<?xml version="1.0" encoding="utf-8"?>
<!-- Generator: Adobe Illustrator 25.0.0, SVG Export Plug-In . SVG Version: 6.00 Build 0)  -->
<svg version="1.1" id="Layer_1" xmlns="http://www.w3.org/2000/svg" xmlns:xlink="http://www.w3.org/1999/xlink" x="0px" y="0px"
	 viewBox="0 0 1920 1080" style="enable-background:new 0 0 1920 1080;" xml:space="preserve">
<style type="text/css">
	.st0{fill:#FBDC5E;}
	.st1{fill:#EE3A3A;}
	.st2{fill:#E0AD48;}
	.st3{fill:#DFAD48;}
	.st4{fill:#F8A789;}
	.st5{fill:#0CB2FF;}
	.st6{fill:#FFFFFF;}
</style>
<g>
	<path class="st0" d="M696.1,569c0-78,0-155.9,0-233.9c2-7.2,6.6-11.8,14.4-11.8c26.2,0,51.8,0,78,0c0,24.9,0,50.4,0,75.3
		c0,5.9,2.6,7.2,7.9,4.6c9.2-5.2,17.7-10.5,26.2-15.7c2-1.3,3.3-1.3,5.2,0c8.5,5.2,17.7,10.5,26.2,15.7c5.2,2.6,7.9,1.3,7.9-4.6
		c0-24.9,0-50.4,0-75.3c25.5,0,51.1,0,76.6,0c9.2,0,15.1,5.9,15.1,15.1c0,41.9,0,83.9,0,125.1c-0.7,0-0.7,0-1.3,0
		c-20.3-5.2-39.3-3.3-57.7,6.6c-30.1,15.7-47.2,50.4-40.6,83.2c2,9.8,5.2,18.3,9.8,26.9c-11.8,0-24.2,0-36,0c-38.7,0-78,0-116.6,0
		C702.7,580.1,698.7,576.9,696.1,569C696.8,569.6,696.1,569,696.1,569z M748.5,544.1c-6.6,0-13.1,0-19.7,0c-2.6,0-4.6,0.7-5.9,3.3
		c-2.6,4.6,0.7,9.8,6.6,9.8c12.4,0,24.9,0,38,0c4.6,0,7.9-2.6,7.2-6.6c0-3.9-3.3-6.6-7.9-6.6C761,543.4,754.4,544.1,748.5,544.1z
		 M742,529c4.6,0,9.2,0,13.8,0c3.9,0,6.6-2.6,6.6-5.9s-2.6-6.6-6.6-6.6c-9.2,0-18.3,0-27.5,0c-3.9,0-6.6,2.6-6.6,6.6
		c0,3.3,2.6,5.9,6.6,5.9C732.8,529,737.4,529,742,529z"/>
	<path class="st1" d="M788.5,323.3L788.5,323.3c1.3,0,2.6,0,3.3,0c22.3,0,44.5,0,66.8,0c1.3,0,2,0,3.3,0c0,0,0,0,0.7,0
		c0,24.9,0,50.4,0,75.3c0,5.9-2.6,7.2-7.9,4.6c-8.5-5.2-17.7-10.5-26.2-15.7c-2-1.3-3.3-1.3-5.2,0c-8.5,5.2-17.7,10.5-26.2,15.7
		c-5.2,2.6-7.9,1.3-7.9-4.6C788.5,373.8,788.5,348.2,788.5,323.3z"/>
	<path class="st2" d="M748.5,544.1c6.6,0,12.4,0,19,0c4.6,0,7.9,2.6,7.9,6.6c0,3.3-3.3,6.6-7.2,6.6c-12.4,0-24.9,0-38,0
		c-5.9,0-9.2-4.6-6.6-9.8c1.3-2.6,3.3-3.3,5.9-3.3C735.4,544.1,742,544.1,748.5,544.1z"/>
	<path class="st3" d="M742,529c-4.6,0-9.2,0-13.8,0c-3.9,0-6.6-2.6-6.6-5.9c0-3.9,2.6-6.6,6.6-6.6c9.2,0,18.3,0,27.5,0
		c3.3,0,6.6,3.3,6.6,6.6s-2.6,5.9-6.6,5.9C751.2,529,746.6,529,742,529z"/>
	<path class="st4" d="M861.2,323.3c-1.3,0-2,0-3.3,0c-22.3,0-44.5,0-66.8,0c-1.3,0-2,0-3.3,0c0.7,0,2,0,2.6,0c22.3,0,45.2,0,67.5,0
		C859.9,322.7,860.6,322.7,861.2,323.3z"/>
	<g>
		<circle class="st5" cx="931.9" cy="538.9" r="78.9"/>
		<path class="st6" d="M918.3,548.4c14-14,27.5-27.7,41.3-41.1c2.2-2.1,5.4-3.7,8.3-4.2c4.1-0.8,7.5,1.6,9.5,5.3
			c2,3.7,1.7,7.5-0.8,11c-0.8,1.1-1.8,2.1-2.8,3.1c-15.8,15.8-31.6,31.7-47.5,47.5c-6.7,6.7-12.8,6.4-18.6-1
			c-6.7-8.5-13.6-16.9-20.2-25.6c-5-6.5-1.9-15,5.8-16.8c4.4-1,7.9,0.7,10.6,4.1c3.9,4.9,7.8,9.8,11.7,14.7
			C916.3,546.2,917.2,547.1,918.3,548.4z"/>
	</g>
</g>
</svg>
