<?xml version="1.0" encoding="utf-8"?>
<!-- Generator: Adobe Illustrator 25.0.0, SVG Export Plug-In . SVG Version: 6.00 Build 0)  -->
<svg version="1.1" id="Layer_1" xmlns="http://www.w3.org/2000/svg" xmlns:xlink="http://www.w3.org/1999/xlink" x="0px" y="0px"
	 viewBox="0 0 1920 1080" style="enable-background:new 0 0 1920 1080;" xml:space="preserve">
<style type="text/css">
	.st0{fill:#FFFFFF;}
	.st1{fill:#FBDC5E;}
	.st2{fill:#0CB2FF;}
</style>
<path class="st0" d="M874.5,491.8c0,11.3,0,22-0.1,32.8c0,1.4-0.7,2.7-1.1,4.1c-1.3-0.6-2.8-0.9-3.9-1.7
	c-6.4-5.3-12.7-10.9-19.2-16.2c-1.2-0.9-3.4-1.3-4.9-1c-5.6,1.4-11,3.3-16.5,5c-4.3,1.3-4.9,0.9-4.9-3.5c0-11.9-0.1-23.7,0.1-35.6
	c0-2.7-0.9-3.9-3.4-4.8c-12.3-4.6-24.4-9.4-36.6-14.2c-3.1-1.2-6.1-2.3-9.4-3.6c-0.1,1.3-0.2,2.1-0.2,2.8c0,52.5,0,105-0.1,157.5
	c0,4.2,1.7,6.6,5.6,8.1c37.6,14.5,75.1,29.1,112.7,43.7c8.3,3.2,16.7,6.5,25.2,9.8c0.1-1.3,0.1-2.1,0.1-3c0-53.4,0-106.7,0-160.1
	c0-0.4,0.1-0.8,0-1.1c-0.5-1-1-2.4-1.8-2.7C902.5,502.7,888.8,497.4,874.5,491.8z M1073.4,453.1c-1.8,0.6-3.2,1.1-4.5,1.6
	c-45.1,17.5-90.2,35.1-135.4,52.6c-2.8,1.1-3.6,2.4-3.6,5.3c0.1,52.7,0.1,105.5,0.1,158.2c0,1.2,0,2.5,0,4.2
	c21.9-8.5,43.5-16.9,65.2-25.3c-9.4-27.6-7.3-53.8,9.2-77.8c16.4-24,39.9-35.7,69-36.8C1073.4,507.8,1073.4,480.8,1073.4,453.1z
	 M1001.7,619.1c-0.1,39.6,32.1,72.1,71.8,72.2c39.6,0.1,72-32.1,72.1-71.9c0.1-39.6-31.8-71.8-71.4-72
	C1034.1,547.1,1001.8,579.1,1001.7,619.1z M973.6,407.5c-16.6-6.4-32.2-12.5-47.8-18.3c-1.5-0.6-3.7-0.1-5.4,0.6
	c-44.5,17.2-89,34.5-133.5,51.9c-1.1,0.4-2.1,0.9-3.8,1.7c1.6,0.7,2.4,1.1,3.3,1.4c13.7,5.3,27.5,10.5,41.1,16.1
	c3.3,1.3,6,1.3,9.2,0c31.3-12.3,62.7-24.4,94.1-36.6C944.8,418.8,958.7,413.3,973.6,407.5z M1064.3,443.7c0-0.3-0.1-0.6-0.1-0.9
	c-12.3-4.8-24.6-9.7-36.9-14.3c-1.9-0.7-4.5-0.7-6.3,0c-40.6,15.7-81.2,31.5-121.7,47.2c-5.1,2-10.3,4-16.1,6.4
	c1.9,0.8,3,1.3,4.1,1.8c11,4.3,22.1,8.5,33.1,12.9c2.6,1.1,4.8,1.1,7.5,0.1c36.3-14.2,72.7-28.3,109.1-42.5
	C1046,450.9,1055.1,447.3,1064.3,443.7z"/>
<path class="st1" d="M874.5,491.8c14.3,5.6,28,10.8,41.7,16.3c0.8,0.3,1.3,1.8,1.8,2.7c0.2,0.3,0,0.7,0,1.1c0,53.4,0,106.7,0,160.1
	c0,0.9-0.1,1.7-0.1,3c-8.5-3.3-16.9-6.5-25.2-9.8c-37.6-14.6-75.1-29.2-112.7-43.7c-3.9-1.5-5.6-3.9-5.6-8.1
	c0.1-52.5,0-105,0.1-157.5c0-0.7,0.1-1.5,0.2-2.8c3.3,1.3,6.4,2.4,9.4,3.6c12.2,4.7,24.4,9.6,36.6,14.2c2.5,0.9,3.4,2.1,3.4,4.8
	c-0.2,11.9-0.1,23.7-0.1,35.6c0,4.4,0.6,4.8,4.9,3.5c5.5-1.7,10.9-3.5,16.5-5c1.5-0.4,3.7,0,4.9,1c6.5,5.2,12.8,10.8,19.2,16.2
	c1,0.9,2.6,1.2,3.9,1.7c0.4-1.4,1.1-2.7,1.1-4.1C874.5,513.9,874.5,503.1,874.5,491.8z"/>
<path class="st1" d="M1073.4,453.1c0,27.6,0,54.7,0,82c-29.1,1.1-52.6,12.8-69,36.8c-16.5,24-18.6,50.2-9.2,77.8
	c-21.7,8.4-43.2,16.8-65.2,25.3c0-1.7,0-3,0-4.2c0-52.7,0-105.5-0.1-158.2c0-3,0.8-4.3,3.6-5.3c45.1-17.4,90.2-35,135.4-52.6
	C1070.3,454.2,1071.7,453.8,1073.4,453.1z"/>
<path class="st2" d="M1001.7,619.1c0.1-40.1,32.4-72,72.5-71.8c39.7,0.2,71.6,32.4,71.4,72c-0.1,39.8-32.5,72-72.1,71.9
	C1033.8,691.2,1001.5,658.8,1001.7,619.1z M1058.4,629c-1.1-1.3-1.9-2.2-2.7-3.2c-3.9-4.9-7.7-9.8-11.7-14.7
	c-2.7-3.4-6.2-5-10.6-4.1c-7.7,1.7-10.8,10.3-5.8,16.8c6.6,8.6,13.5,17.1,20.2,25.6c5.8,7.4,11.9,7.7,18.6,1
	c15.8-15.8,31.6-31.6,47.5-47.5c1-1,2-1.9,2.8-3.1c2.5-3.5,2.8-7.2,0.8-11c-2-3.7-5.3-6.1-9.5-5.3c-3,0.5-6.2,2.1-8.3,4.2
	C1085.8,601.3,1072.3,615,1058.4,629z"/>
<path class="st1" d="M973.6,407.5c-14.9,5.8-28.8,11.3-42.7,16.7c-31.4,12.2-62.8,24.3-94.1,36.6c-3.2,1.3-5.9,1.3-9.2,0
	c-13.6-5.5-27.4-10.7-41.1-16.1c-0.9-0.4-1.8-0.8-3.3-1.4c1.6-0.7,2.7-1.3,3.8-1.7c44.5-17.3,89-34.6,133.5-51.9
	c1.6-0.6,3.8-1.1,5.4-0.6C941.4,395.1,957,401.1,973.6,407.5z"/>
<path class="st1" d="M1064.3,443.7c-9.1,3.6-18.3,7.2-27.4,10.7c-36.4,14.1-72.8,28.3-109.1,42.5c-2.6,1-4.8,1-7.5-0.1
	c-11-4.4-22.1-8.6-33.1-12.9c-1.1-0.4-2.2-0.9-4.1-1.8c5.9-2.3,11-4.4,16.1-6.4c40.6-15.8,81.1-31.6,121.7-47.2
	c1.9-0.7,4.5-0.7,6.3,0c12.4,4.6,24.6,9.5,36.9,14.3C1064.2,443.1,1064.2,443.4,1064.3,443.7z"/>
<path class="st0" d="M1058.4,629c14-14,27.5-27.7,41.3-41.1c2.2-2.1,5.4-3.7,8.3-4.2c4.1-0.8,7.5,1.6,9.5,5.3c2,3.7,1.7,7.5-0.8,11
	c-0.8,1.1-1.8,2.1-2.8,3.1c-15.8,15.8-31.6,31.7-47.5,47.5c-6.7,6.7-12.8,6.4-18.6-1c-6.7-8.5-13.6-16.9-20.2-25.6
	c-5-6.5-1.9-15,5.8-16.8c4.4-1,7.9,0.7,10.6,4.1c3.9,4.9,7.8,9.8,11.7,14.7C1056.4,626.8,1057.3,627.7,1058.4,629z"/>
</svg>
