<?xml version="1.0" encoding="utf-8"?>
<!-- Generator: Adobe Illustrator 25.0.0, SVG Export Plug-In . SVG Version: 6.00 Build 0)  -->
<svg version="1.1" id="Layer_1" xmlns="http://www.w3.org/2000/svg" xmlns:xlink="http://www.w3.org/1999/xlink" x="0px" y="0px"
	 viewBox="0 0 1920 1080" style="enable-background:new 0 0 1920 1080;" xml:space="preserve">
<style type="text/css">
	.st0{fill:#FD9602;}
	.st1{fill:#FE8802;}
	.st2{fill:#FBBD08;}
	.st3{fill:#35C47F;}
	.st4{fill:#F1F6F4;}
</style>
<g>
	<g>
		<path class="st0" d="M1425.8,224.4c37.2-18,74.4-36,111.6-54c21.6-10.4,43.2-20.8,64.8-31.3c1.1-0.5,2.3-1.1,3.6-1.1
			c1.2,1.5,0.8,3.3,0.8,5.1c0,66.7,0,133.4,0.1,200.1c0,4.4-1.7,6.8-5.5,8.7c-30.5,14.6-61,29.4-91.5,44.1
			c-23.6,11.4-47.2,23-70.9,34.4c-3.1,1.5-6.5,2.5-9.3,4.6c-1.2,0-2.5,0-3.7,0C1425.8,364.8,1425.8,294.6,1425.8,224.4z
			 M1578.4,282.2c-16.5,7.9-33,15.9-49.5,23.8c-2.8,1.4-4.5,3.4-4.2,6.8c0.3,3.2,2.5,4.6,5.2,5.6c1.3,0.5,2.1,0,3.1-0.5
			c16.8-8.1,33.6-16.3,50.5-24.4c3.3-1.6,4.8-4,4-7.5c-0.7-3-2.9-4.5-6.4-4.8C1580.5,281.5,1579.4,281.8,1578.4,282.2z
			 M1579.4,309.6c-9.1,4.2-18,8.5-26.9,13c-3.5,1.8-4.4,5-2.8,8.2c1.5,3,4.8,4.3,8.3,2.7c8.7-4,17.3-8.2,25.9-12.5
			c2.4-1.2,4.3-3.1,3.9-5.9C1587.4,310.5,1583.4,307.7,1579.4,309.6z"/>
		<path class="st1" d="M1425.7,435c0-70.2,0-140.4,0-210.6c-5.6-2.7-11.3-5.4-16.9-8.1c-12.2-5.8-24.4-11.6-36.4-17.5
			c-5.8-2.9-11.8-5.3-17.2-9c-0.4,0-0.8,0.1-1.2,0.1c0,14-0.1,28-0.1,41.9c0,8.2,0,16.5,0,24.7c0,3.9-1.6,5.1-4.7,3.7
			c-12.7-6.1-25.4-12.2-38.1-18.3c-3.1-1.5-4.4-4-4.3-7.2c0.2-22.5-0.6-44.9,0.5-67.4c0-0.2,0-0.5,0-0.7c-1.6,0-2.9-0.7-4.2-1.4
			c-17.8-8.6-35.6-17.3-53.4-25.9c-1.2-0.6-2.5-1.2-3.9-1.2c-1.4,1.9-0.8,4.1-0.8,6.2c0,65.8,0,131.6-0.1,197.4
			c0,5.6,1.9,8.6,6.9,10.9c45.7,21.9,91.2,43.9,136.8,66c11.2,5.4,22.3,11,33.5,16.5C1423.2,435,1424.5,435,1425.7,435z"/>
		<path class="st2" d="M1422.7,51.2c-33.1,16-66.2,32-99.3,48c-24.5,11.8-49,23.6-73.5,35.4c-1.7,0.8-3.4,1.7-4.2,3.5
			c1.4,0,2.6,0.6,3.9,1.2c17.8,8.7,35.6,17.3,53.4,25.9c1.3,0.7,2.6,1.4,4.2,1.4c11.2-5.4,22.5-10.8,33.7-16.2
			c41.6-20.1,83.1-40.2,124.7-60.3c7.1-3.4,14.4-6.3,21.1-10.5c-13.4-7.2-27.4-13.3-41-20.1c-5.4-2.7-11.2-4.9-16.3-8.3
			C1427.2,51.2,1425,51.2,1422.7,51.2z"/>
		<path class="st2" d="M1605.7,138.1c-0.7-1.6-2.1-2.4-3.6-3.1c-21.9-10.6-43.8-21.2-65.8-31.7c-0.6-0.3-1.2-0.4-1.8-0.6
			c-1.4,0.8-2.8,1.6-4.3,2.3c-29.1,14.1-58.2,28.1-87.3,42.2c-18.8,9.1-37.6,18-56.3,27.1c-10.5,5.1-21,10.4-31.5,15.5
			c5.4,3.7,11.4,6.1,17.2,9c12.1,6,24.3,11.7,36.4,17.5c5.6,2.7,11.3,5.4,16.9,8.1c37.2-18,74.4-36,111.6-54
			c21.6-10.4,43.2-20.8,64.8-31.3C1603.3,138.6,1604.4,138.1,1605.7,138.1z"/>
		<path class="st0" d="M1581.2,281.3c-0.7,0.2-1.8,0.5-2.8,0.9c-16.5,7.9-33,15.9-49.5,23.8c-2.8,1.4-4.5,3.4-4.2,6.8
			c0.3,3.2,2.5,4.6,5.2,5.6c1.3,0.5,2.1,0,3.1-0.5c16.8-8.1,33.6-16.3,50.5-24.4c3.3-1.6,4.8-4,4-7.5
			C1586.9,283,1584.7,281.6,1581.2,281.3z"/>
		<path class="st0" d="M1587.7,315.2c-0.3-4.7-4.3-7.4-8.3-5.6c-9.1,4.2-18,8.5-26.9,13c-3.5,1.8-4.4,5-2.8,8.2
			c1.5,3,4.8,4.3,8.3,2.7c8.7-4,17.3-8.2,25.9-12.5C1586.3,319.8,1588.1,317.9,1587.7,315.2z"/>
		<path class="st0" d="M1355.2,189.8c10.5-5.2,21-10.4,31.5-15.5c18.8-9.1,37.5-18.1,56.3-27.1c29.1-14,58.2-28.1,87.3-42.2
			c1.5-0.7,2.9-1.5,4.3-2.3c-13.2-6.4-26.3-12.9-39.5-19.3c-2.8-1.3-5.2-3.4-8.4-3.8c-6.7,4.2-14,7.1-21.1,10.5
			c-41.5,20.2-83.1,40.2-124.7,60.3c-11.2,5.4-22.5,10.8-33.7,16.2c0,0.2,0,0.5,0,0.7c12,5.9,23.9,11.7,35.9,17.6
			c3.6,1.7,6.9,3.9,10.8,5C1354.4,189.9,1354.8,189.8,1355.2,189.8z"/>
		<path class="st1" d="M1354,189.9c-3.9-1.1-7.2-3.3-10.8-5c-12-5.8-23.9-11.7-35.9-17.6c-1.2,22.5-0.3,44.9-0.5,67.4
			c0,3.3,1.2,5.8,4.3,7.2c12.7,6.1,25.4,12.2,38.1,18.3c3.1,1.5,4.6,0.2,4.7-3.7c0.1-8.2,0-16.5,0-24.7
			C1353.9,217.9,1353.9,203.9,1354,189.9z"/>
	</g>
	<g>
		<circle class="st3" cx="1425.8" cy="382.1" r="71.9"/>
		<path class="st4" d="M1399.7,397.4c-2.9-3-5.9-6-8.8-9.1c-3.8-4-4.1-8.5-0.7-11.9c3.4-3.4,8-3.3,11.9,0.5c4,3.9,8,7.8,11.8,11.9
			c1.4,1.5,2.3,1.6,3.9,0c10.8-10.9,21.7-21.6,32.3-32.6c2.4-2.5,5.1-1.8,7.8-2c6.9,3.7,7.7,9.1,2.2,14.7
			c-12.5,12.5-25,25-37.5,37.5c-4.7,4.7-8.9,4.7-13.6,0.1C1405.9,403.5,1402.8,400.5,1399.7,397.4z"/>
	</g>
</g>
</svg>
