<?xml version="1.0" encoding="utf-8"?>
<!-- Generator: Adobe Illustrator 25.0.0, SVG Export Plug-In . SVG Version: 6.00 Build 0)  -->
<svg version="1.1" id="Layer_1" xmlns="http://www.w3.org/2000/svg" xmlns:xlink="http://www.w3.org/1999/xlink" x="0px" y="0px"
	 viewBox="0 0 1920 1080" style="enable-background:new 0 0 1920 1080;" xml:space="preserve">
<style type="text/css">
	.st0{fill:#FFFFFF;}
</style>
<g>
	<path class="st0" d="M967.4,562.7c10.1,0,20.2,0.1,30.3-0.1c3.3-0.1,4.9,0.9,6.4,3.9c5.1,9.8,13.7,14.9,24.6,14.9
		c10.7,0,19.2-5,24.2-14.6c1.8-3.5,3.8-4.1,7.3-4.1c19.9,0.1,39.8,0.3,59.7-0.1c3.4-0.1,7.6-1.7,9.9-4.1c1.7-1.8,1.6-6.2,0.8-9.1
		c-1.2-4.4-5.4-5.4-9.6-5.4c-20.4,0-40.8-0.1-61.2,0.1c-3.3,0-5.2-0.8-6.9-4c-5.1-9.6-13.5-14.6-24.2-14.7
		c-10.7-0.1-19.3,4.9-24.4,14.4c-1.9,3.6-4,4.3-7.7,4.3c-20.1-0.1-40.1-0.1-60.2,0c-6.8,0-10.8,3.4-11,8.9
		c-0.3,5.9,3.7,9.8,10.5,9.9C946.5,562.8,957,562.7,967.4,562.7z M1004.8,619.2c-22.1,0-44.1,0-66.2,0c-1.7,0-3.3-0.1-5,0.1
		c-4.5,0.5-7.3,3.2-8,7.6c-0.7,4.6,1.3,8.2,5.6,9.9c1.9,0.8,4.2,0.6,6.3,0.6c44.8,0,89.6,0.1,134.4,0c3.5,0,5.5,0.6,7.3,4.1
		c5.8,11.5,18.7,17.1,31,14c12.6-3.2,21.3-13.9,21.5-26.5c0.2-13.4-8.1-24.3-21.1-27.8c-12.1-3.3-25.4,2.1-31.2,13.5
		c-2,3.9-4.2,4.6-8,4.5C1049.2,619.1,1027,619.2,1004.8,619.2z M1052.7,487.3c7.8,0,15.6,0,23.4,0c15.4,0,30.9,0.1,46.3-0.1
		c5.6,0,9.3-3.8,9.4-8.8c0.1-5.4-3.7-9.2-9.4-9.4c-1.5-0.1-3,0-4.5,0c-44.3,0-88.6,0-132.9,0c-3.2,0-5.2-0.5-7-3.8
		c-5.9-11.7-18.7-17.3-30.9-14.3c-13,3.2-21.7,14-21.7,26.8c0,13.5,8.3,24.3,21.2,27.8c12.2,3.2,25.5-2.5,31.4-14.3
		c1.7-3.3,3.7-3.9,6.9-3.9C1007.6,487.4,1030.1,487.3,1052.7,487.3z"/>
	<path d="M967.4,562.7c-10.4,0-20.9,0.1-31.3,0c-6.8-0.1-10.8-4-10.5-9.9c0.2-5.6,4.2-8.9,11-8.9c20.1-0.1,40.1-0.1,60.2,0
		c3.6,0,5.7-0.7,7.7-4.3c5.1-9.5,13.6-14.4,24.4-14.4c10.7,0.1,19.2,5.1,24.2,14.7c1.7,3.2,3.5,4,6.9,4c20.4-0.1,40.8-0.1,61.2-0.1
		c4.2,0,8.4,1,9.6,5.4c0.8,2.9,0.9,7.3-0.8,9.1c-2.2,2.4-6.5,4.1-9.9,4.1c-19.9,0.4-39.8,0.3-59.7,0.1c-3.5,0-5.5,0.6-7.3,4.1
		c-5,9.7-13.5,14.6-24.2,14.6c-10.9,0-19.4-5.1-24.6-14.9c-1.5-2.9-3.2-3.9-6.4-3.9C987.6,562.8,977.5,562.7,967.4,562.7z
		 M1028.4,562.7c5.2,0.1,9.6-4.1,9.6-9.3c0-5-4-9.3-9-9.5c-5.2-0.2-9.7,3.9-9.9,9.1C1019.1,558.2,1023.2,562.5,1028.4,562.7z"/>
	<path d="M1004.8,619.2c22.2,0,44.5-0.1,66.7,0.1c3.8,0,6-0.7,8-4.5c5.8-11.4,19.1-16.8,31.2-13.5c12.9,3.5,21.2,14.5,21.1,27.8
		c-0.2,12.6-8.9,23.3-21.5,26.5c-12.3,3.1-25.2-2.5-31-14c-1.8-3.5-3.8-4.1-7.3-4.1c-44.8,0.1-89.6,0.1-134.4,0
		c-2.1,0-4.4,0.1-6.3-0.6c-4.3-1.7-6.4-5.3-5.6-9.9c0.7-4.4,3.5-7.1,8-7.6c1.6-0.2,3.3-0.1,5-0.1
		C960.6,619.2,982.7,619.2,1004.8,619.2z M1113,628.5c0-5.3-4.2-9.5-9.4-9.4c-4.9,0-9.2,4.3-9.4,9.1c-0.1,5.1,4.2,9.7,9.3,9.8
		C1108.7,638,1113,633.7,1113,628.5z"/>
	<path d="M1052.7,487.3c-22.6,0-45.1,0-67.7-0.1c-3.2,0-5.2,0.6-6.9,3.9c-5.9,11.7-19.2,17.5-31.4,14.3
		c-12.9-3.4-21.2-14.3-21.2-27.8c0-12.8,8.7-23.6,21.7-26.8c12.1-3,25,2.6,30.9,14.3c1.7,3.4,3.7,3.9,7,3.8c44.3-0.1,88.6,0,132.9,0
		c1.5,0,3,0,4.5,0c5.7,0.3,9.4,4,9.4,9.4c-0.1,5.1-3.8,8.8-9.4,8.8c-15.4,0.1-30.9,0.1-46.3,0.1
		C1068.3,487.3,1060.5,487.3,1052.7,487.3z M953.6,468.9c-5.4,0-9.4,4.1-9.3,9.4c0.1,5.1,4.1,9.2,9.1,9.3c5,0.1,9.7-4.4,9.7-9.3
		C963.1,473.1,958.8,468.9,953.6,468.9z"/>
	<path class="st0" d="M1028.4,562.7c-5.2-0.1-9.3-4.5-9.2-9.8c0.2-5.2,4.6-9.3,9.9-9.1c5,0.2,9,4.5,9,9.5
		C1038,558.5,1033.6,562.8,1028.4,562.7z"/>
	<path class="st0" d="M1113,628.5c0,5.3-4.3,9.5-9.5,9.4c-5.1-0.1-9.4-4.6-9.3-9.8c0.1-4.9,4.4-9.1,9.4-9.1
		C1108.9,619,1113,623.2,1113,628.5z"/>
	<path class="st0" d="M953.6,468.9c5.3,0,9.5,4.2,9.5,9.4c0,5-4.7,9.4-9.7,9.3c-5-0.1-9-4.2-9.1-9.3
		C944.1,472.9,948.2,468.9,953.6,468.9z"/>
</g>
</svg>
