<?xml version="1.0" encoding="utf-8"?>
<!-- Generator: Adobe Illustrator 25.0.0, SVG Export Plug-In . SVG Version: 6.00 Build 0)  -->
<svg version="1.1" id="Layer_1" xmlns="http://www.w3.org/2000/svg" xmlns:xlink="http://www.w3.org/1999/xlink" x="0px" y="0px"
	 viewBox="0 0 1920 1080" style="enable-background:new 0 0 1920 1080;" xml:space="preserve">
<style type="text/css">
	.st0{fill:#FEFEFE;}
	.st1{fill:#262426;}
	.st2{fill:#FA6D51;}
	.st3{fill:#FAD56F;}
	.st4{fill:#EDCEB2;}
	.st5{fill:#EECEB2;}
	.st6{fill:#FA6D50;}
	.st7{fill:#F9D46F;}
	.st8{fill:#F7D36E;}
	.st9{fill:#F8D36E;}
	.st10{fill:#E7C9AE;}
	.st11{fill:#282626;}
	.st12{fill:#272526;}
	.st13{fill:#272527;}
</style>
<path class="st0" d="M969,539.1c-0.3,0.2-0.5,0.4-0.8,0.6c-7.9-7.8-18.4-10.1-28.3-13.8c-1.8-0.6-3.5-1.3-5.3-1.8
	c-2.4-0.6-3.7-1.9-4.7-4.2c-2.4-6-5-12-7.8-17.8c-0.9-1.9-0.5-2.6,1-3.8c7.7-6.2,12.9-14.1,16-23.5c3.2-9.5,4.3-19.2,4.4-29.1
	c0-3.2,0.8-4.7,4.2-5.6c9.3-2.4,18.5-5.2,27.6-8.1c6.6-2.1,9.3-9.2,5.5-14.7c-9-13.6-20.8-22.4-38.1-21.4c-6.1,0.4-6.4,0.1-8.2-6
	c-4.6-15.8-14.9-25.6-30.3-30.3c-15.5-4.8-31.1-4.8-46.3,0.8c-17.9,6.5-29.4,18.9-33.2,37.8c-2.6,12.9-0.8,25.6,3,38.1
	c0.6,2,0.4,3-1.5,4.1c-8,5.1-11.1,14-7.9,22.4c3.1,8.1,11.5,12.9,20.5,11.4c2.5-0.4,3.7,0.1,4.9,2.4c4.6,8.9,10,17.3,18.4,23.3
	c1.3,1,1.2,1.8,0.7,3.1c-1.9,4.9-3.8,9.8-5.4,14.7c-0.8,2.3-2.1,3.8-4.1,5c-21.9,13.2-43.7,26.6-65.5,39.8
	c-8.8,5.3-14.2,12.7-15.4,23c-0.5,4.3,0.4,8.4,1.2,12.6c4.7,25.6,9.3,51.3,14.1,76.9c1.3,7.1,7,9.8,13.5,6.6c2.6-1.3,5.2-2.4,7.6-4
	c2.2-1.4,3.6-1,5.5,0.6c14.5,11.7,29,23.3,43.5,35c9.6,7.8,20.4,11.8,32.9,10.5c5.3-0.5,10.3-1.8,15.3-3.3
	c23.3-7.1,46.7-13.4,70.9-16.4c17.5-2.2,35.1-2.8,52.6-4.2c8.7-0.7,17.5-1,26.1-2.2c7.6-1,12.6-8.4,11.2-15.9
	c-0.6-3.2,0.5-3.4,3.1-3.4c21.6,0,43.2-0.1,64.8-0.2c9.7,0,13.4-3.8,13.4-13.4c0-44.4,0-88.7,0-133.1c0-0.7,0-1.5,0-2.2
	c-0.3-6.7-4.6-10.9-11.3-10.9c-52.2,0-104.4,0-156.7,0c-6.6,0-10.9,4.4-11.1,11.1C969,532.6,969,535.9,969,539.1z"/>
<path class="st1" d="M969,539.1c0-3.2-0.1-6.4,0-9.7c0.2-6.7,4.4-11.1,11.1-11.1c52.2,0,104.4,0,156.7,0c6.7,0,11,4.3,11.3,10.9
	c0,0.7,0,1.5,0,2.2c0,44.4,0,88.7,0,133.1c0,9.6-3.7,13.3-13.4,13.4c-21.6,0.1-43.2,0.2-64.8,0.2c-2.6,0-3.7,0.2-3.1,3.4
	c1.4,7.6-3.5,14.9-11.2,15.9c-8.6,1.2-17.4,1.5-26.1,2.2c-17.5,1.4-35.2,2-52.6,4.2c-24.2,3-47.7,9.3-70.9,16.4
	c-5,1.5-10.1,2.8-15.3,3.3c-12.6,1.3-23.3-2.7-32.9-10.5c-14.5-11.7-29.1-23.2-43.5-35c-1.9-1.6-3.4-2-5.5-0.6c-2.4,1.5-5,2.7-7.6,4
	c-6.5,3.1-12.2,0.4-13.5-6.6c-4.8-25.6-9.4-51.3-14.1-76.9c-0.8-4.2-1.7-8.3-1.2-12.6c1.2-10.3,6.6-17.7,15.4-23
	c21.9-13.2,43.7-26.6,65.5-39.8c2-1.2,3.4-2.7,4.1-5c1.7-5,3.5-9.8,5.4-14.7c0.5-1.3,0.6-2.2-0.7-3.1c-8.3-6-13.7-14.4-18.4-23.3
	c-1.2-2.3-2.4-2.8-4.9-2.4c-9,1.5-17.4-3.2-20.5-11.4c-3.2-8.4-0.2-17.3,7.9-22.4c1.9-1.2,2.1-2.1,1.5-4.1
	c-3.8-12.5-5.6-25.2-3-38.1c3.8-18.8,15.3-31.3,33.2-37.8c15.3-5.5,30.8-5.5,46.3-0.8c15.4,4.7,25.8,14.6,30.3,30.3
	c1.8,6.1,2.1,6.4,8.2,6c17.4-1.1,29.1,7.8,38.1,21.4c3.7,5.6,1.1,12.7-5.5,14.7c-9.1,2.9-18.3,5.7-27.6,8.1
	c-3.4,0.9-4.1,2.4-4.2,5.6c-0.1,9.9-1.2,19.7-4.4,29.1c-3.1,9.4-8.3,17.3-16,23.5c-1.5,1.2-1.9,1.9-1,3.8c2.8,5.8,5.4,11.8,7.8,17.8
	c0.9,2.3,2.3,3.6,4.7,4.2c1.8,0.5,3.6,1.1,5.3,1.8c9.9,3.6,20.4,5.9,28.3,13.8C968.5,539.5,968.8,539.3,969,539.1z M923.6,562.2
	c-2.7,10.3-5.2,20-7.6,29.7c-0.6,2.4-1.2,4.7-4.2,5.1c-3.1,0.5-4.4-1.7-5.7-3.9c-5.2-9.1-10.6-18.1-15.6-27.3
	c-1.7-3.2-3.1-3.1-5.9-1.7c-7.7,4.1-15.6,7.9-23.4,11.8c-4.6,2.3-5.7,2-8.7-2.2c-6.1-8.5-12.2-17-18.4-25.6c-1-1.3-1.6-2.6-3.8-1.3
	c-13.5,8.4-27.2,16.4-40.5,24.9c-7,4.5-10,11.5-8.5,19.8c4.7,26.3,9.6,52.5,14.2,78.8c0.6,3.3,1.4,3.2,3.9,1.9
	c18.2-9.4,36.4-18.7,54.7-27.9c2.7-1.3,2.8-2.5,1.7-5c-5.2-12-10.3-24.1-15.4-36.2c-1.5-3.7-0.9-6.2,1.8-7.3
	c2.7-1.1,4.9,0.1,6.5,3.9c1.4,3.1,2.7,6.2,3.9,9.3c8,20.6,17.2,40.7,31,58.2c1.8,2.2,3.3,3.7,6.5,3c25.1-5.7,50.1-11.3,75.2-16.7
	c2.9-0.6,3.5-1.7,3.5-4.4c-0.1-28.5,0-57-0.1-85.5c0-4.2,1.2-9.2-0.6-12.5c-1.8-3.3-6.5-5.1-10-7.6c-0.1-0.1-0.2-0.1-0.3-0.2
	c-2.3-1.9-3-1-3.4,1.5c-1.6,8.8-3.5,17.6-5.2,26.4c-1.3,6.6-4.3,7.7-9.6,3.6C934.6,570.8,929.3,566.7,923.6,562.2z M1024.3,669.2
	c9.5,0,19.7,0,29.9,0c27-0.1,54-0.2,80.9-0.3c2.5,0,4-0.3,4-3.4c-0.1-34.7-0.1-69.4,0-104.2c0-2.1-0.6-2.7-2.8-2.7
	c-14.6,0.1-29.2,0.1-43.8,0c-2.5,0-2.9,0.9-2.8,3c0.1,5.4,0.1,10.7,0,16.1c0,2.7,0.7,5.6-2.5,7.3c-3.1,1.6-5.2-0.7-7.4-2.2
	c-6.1-3.9-12.2-7.8-18.1-12c-2.5-1.8-4.2-1.6-6.5,0.1c-6.6,4.6-13.3,8.9-20,13.3c-1.7,1.1-3.5,1.9-5.6,0.8c-2.1-1.2-2.4-3-2.3-5.1
	c0-6-0.1-12,0.1-18c0.1-2.7-0.8-3.3-3.4-3.3c-14.1,0.1-28.2,0.1-42.3,0c-2.9,0-3.8,0.6-3.7,3.6c0.1,28.2,0.1,56.5,0,84.7
	c0,3.2,0.9,3.7,3.8,3c10.3-2.4,20.7-4.7,31-6.9c8.8-1.9,16.8,4.7,17.1,13.7C1030,662.3,1027.8,666.6,1024.3,669.2z M820.4,671.6
	c0.9,0.8,1.4,1.3,2,1.8c13.5,10.8,27.2,21.5,40.6,32.6c11.2,9.3,23.5,10.7,36.9,6.7c18.4-5.6,36.9-10.7,55.7-14.5
	c24.2-4.9,48.8-5.5,73.3-7.5c7.7-0.6,15.4-1.1,23.2-1.6c2.7-0.2,4.8-1.1,5.7-4c0.6-2.2,0-3.9-1.5-5.4c-1.6-1.6-3.7-1.3-5.7-1.2
	c-21.7,0.7-43.4,1.5-65.1,2.2c-2.2,0.1-4.5,0.3-6.7,0.2c-2.4-0.1-4-1.5-4.3-3.9c-0.3-2.4,0.9-4.1,3.2-4.9c1.1-0.4,2.2-0.6,3.3-0.8
	c11.8-2.8,23.5-5.6,35.3-8.3c2.5-0.6,4.4-1.6,4.8-4.5c0.6-4.7-2.5-7.3-7.5-6.2c-40.3,8.9-80.6,17.8-120.9,26.6
	c-7.4,1.6-11.4,0-15.7-6.2c-4.5-6.6-9-13.2-13.5-19.8c-1.1-1.6-1.9-2.2-3.9-1.1C846.5,658.3,833.6,664.8,820.4,671.6z M838.5,440.9
	c5.2,15.5,10.8,30.3,20.4,43.1c10.2,13.7,24.3,18.3,40.7,15.3c15.3-2.7,25.5-12,30.6-26.6c4.9-13.9,4.9-28.4,3.9-42.9
	c-0.4-5.3-1-10.6-2.6-16.4c-4.7,5-9.1,9.5-13.3,14.2c-8.3,9.3-18.5,13.4-30.9,13.3C871.3,440.8,855.2,440.9,838.5,440.9z
	 M850.9,431.9c3.9,0,7.7-0.1,11.6,0.1c2.4,0.1,3.9-0.7,5.3-2.6c4.4-6.2,9-12.3,13.6-18.4c5.9-7.8,13.5-12.8,23.3-14.4
	c6.5-1.1,13-0.4,19.4-0.6c1.5,0,2.8,0.1,2.2-2.1c-2.9-9.6-7.4-18-17.1-22.4c-18.6-8.5-37.2-8.6-55.5,0.7c-9.6,4.9-16,13-19,23.5
	c-3.4,11.5-2.2,22.9,0.6,34.4c0.4,1.7,1.5,2,3,1.9C842.4,431.9,846.6,431.9,850.9,431.9z M909.6,580.4c4.5-17.5,8.9-34.8,13.3-52
	c0.3-1.1,0.1-1.9-0.3-2.9c-2.8-6.4-5.6-12.8-8.4-19.2c-0.6-1.5-1.3-1.6-2.8-1c-12.5,5-25.2,5.3-38,0.8c-1.8-0.6-2.4-0.3-2.9,1.4
	c-1.3,3.9-2.7,7.8-4.4,11.5c-1.3,2.8-0.9,4.5,1.2,6.8c15.4,16.6,31.8,32.4,41.3,53.6C908.8,579.6,909,579.8,909.6,580.4z
	 M1080.7,572.7c0-14.9-0.1-28.9,0-42.8c0-2.4-1.1-2.6-2.9-2.6c-12.7,0.1-25.5,0.1-38.2,0c-2.7,0-3.3,0.9-3.3,3.4c0.1,13,0,26,0.1,39
	c0,0.8-0.4,1.7,0.8,2.5c5.4-3.6,11.1-7,16.4-10.9c3.6-2.7,6.5-2.5,10.1,0.1C1069,565.2,1074.6,568.7,1080.7,572.7z M1002.7,549.7
	c7.2,0,14.5-0.1,21.7,0c2.2,0,3.1-0.5,3-2.9c-0.2-5.6-0.1-11.2,0-16.8c0-2.1-0.6-2.8-2.7-2.8c-14.5,0.1-28.9,0.1-43.4,0
	c-2.4,0-3.4,0.8-3.3,3.2c0.1,5.5,0.2,11,0,16.5c-0.1,2.5,1,2.8,3.1,2.8C988.3,549.6,995.5,549.7,1002.7,549.7z M1114.3,549.7
	c7.2,0,14.5-0.1,21.7,0c2.1,0,3.2-0.3,3.1-2.8c-0.2-5.5-0.1-11,0-16.5c0-2.5-1-3.2-3.4-3.2c-14.5,0.1-28.9,0.1-43.4,0
	c-2.2,0-2.7,0.7-2.7,2.8c0.1,5.6,0.2,11.2,0,16.8c-0.1,2.4,0.7,2.9,3,2.9C1099.9,549.6,1107.1,549.7,1114.3,549.7z M882.3,555.3
	c-7.6-8.3-14.8-16.2-22-24.1c-1.2-1.3-2.1-1.2-3.5-0.3c-4.8,3.1-9.7,6-14.7,8.9c-1.5,0.9-1.9,1.5-0.7,3.1
	c5.5,7.4,10.8,14.9,16.1,22.5c1,1.4,1.9,1.5,3.4,0.8C867.9,562.5,874.9,559,882.3,555.3z M926.2,405.4c-10,0.2-20.1-2.2-29.2,3.4
	c-8.9,5.5-13,15-20.1,23.1c5.6,0,10,0.2,14.5,0c4.9-0.2,9.7-1.5,13.7-4.4C913.2,421.2,919.1,412.8,926.2,405.4z M945,405
	c-1.4,0-2.7,0-4.1,0c-1.1,0-1.9,0-1.5,1.6c2,7.7,3.1,15.6,3.9,23.6c0.1,1.1,0.2,1.9,1.8,1.4c8.8-2.7,17.7-5.2,26.5-7.8
	c1.8-0.5,1.8-1.4,0.8-2.7C965.7,411.8,957.7,404.4,945,405z M946.7,539.2c0.3-1-0.6-1.5-1.8-1.9c-4-1.4-8-2.7-12-4.2
	c-1.8-0.7-2,0.1-2.4,1.5c-1.3,5.3-2.7,10.6-4.1,15.9c-0.3,1.3-0.4,2.3,0.9,3.3c4.2,3.1,8.3,6.4,12.4,9.6c1.1,0.8,1.9,1.2,2.3-0.7
	C943.5,555,945.1,547.3,946.7,539.2z M835.6,465.5c2.1,0.1,2.4-0.7,1.5-2.7c-1.8-4.2-3.5-8.5-5-12.8c-0.9-2.7-1.8-2-3.2-0.6
	c-2.8,2.7-3.7,6.8-2.3,10.3C828,463,831.8,465.5,835.6,465.5z"/>
<path class="st2" d="M923.6,562.2c5.7,4.4,11,8.6,16.3,12.7c5.3,4.1,8.3,2.9,9.6-3.6c1.7-8.8,3.6-17.6,5.2-26.4
	c0.5-2.5,1.2-3.5,3.4-1.5c0.1,0.1,0.2,0.1,0.3,0.2c3.5,2.5,8.2,4.2,10,7.6c1.8,3.3,0.6,8.3,0.6,12.5c0,28.5,0,57,0.1,85.5
	c0,2.7-0.6,3.8-3.5,4.4c-25.1,5.4-50.2,11-75.2,16.7c-3.2,0.7-4.7-0.7-6.5-3c-13.8-17.6-23-37.6-31-58.2c-1.2-3.1-2.6-6.2-3.9-9.3
	c-1.6-3.7-3.8-5-6.5-3.9c-2.7,1.1-3.3,3.7-1.8,7.3c5.1,12.1,10.1,24.2,15.4,36.2c1.1,2.5,1,3.7-1.7,5c-18.3,9.2-36.5,18.5-54.7,27.9
	c-2.5,1.3-3.4,1.4-3.9-1.9c-4.6-26.3-9.6-52.5-14.2-78.8c-1.5-8.3,1.5-15.3,8.5-19.8c13.3-8.6,27-16.5,40.5-24.9
	c2.2-1.4,2.8-0.1,3.8,1.3c6.1,8.5,12.2,17.1,18.4,25.6c3,4.2,4.2,4.5,8.7,2.2c7.8-3.9,15.7-7.7,23.4-11.8c2.8-1.5,4.2-1.5,5.9,1.7
	c5,9.2,10.4,18.2,15.6,27.3c1.3,2.2,2.6,4.4,5.7,3.9c2.9-0.4,3.6-2.7,4.2-5.1C918.4,582.2,920.9,572.6,923.6,562.2z"/>
<path class="st3" d="M1024.3,669.2c3.4-2.6,5.7-6.9,5.5-12.5c-0.3-9-8.3-15.6-17.1-13.7c-10.4,2.2-20.7,4.5-31,6.9
	c-2.9,0.7-3.8,0.2-3.8-3c0.1-28.2,0.1-56.5,0-84.7c0-3,0.9-3.7,3.7-3.6c14.1,0.1,28.2,0.1,42.3,0c2.5,0,3.5,0.6,3.4,3.3
	c-0.2,6,0,12-0.1,18c0,2.1,0.3,4,2.3,5.1c2.1,1.2,3.8,0.4,5.6-0.8c6.7-4.4,13.4-8.7,20-13.3c2.4-1.7,4-1.9,6.5-0.1
	c5.9,4.2,12,8.1,18.1,12c2.2,1.4,4.3,3.8,7.4,2.2c3.1-1.6,2.4-4.6,2.5-7.3c0-5.4,0.1-10.7,0-16.1c-0.1-2.2,0.3-3.1,2.8-3
	c14.6,0.1,29.2,0.1,43.8,0c2.1,0,2.8,0.6,2.8,2.7c-0.1,34.7-0.1,69.4,0,104.2c0,3.1-1.5,3.4-4,3.4c-27,0.1-54,0.2-80.9,0.3
	C1044,669.3,1033.9,669.2,1024.3,669.2z M1090.5,642.5c-8.9,0-17.7,0-26.6,0c-3.1,0-5.6,0.6-5.8,4.2c-0.2,3,1.9,4.8,5.8,4.8
	c17.6,0,35.2,0,52.8,0c3.8,0,6.2-1.9,5.9-4.7c-0.4-3.5-2.7-4.3-5.9-4.3C1107.9,642.6,1099.2,642.5,1090.5,642.5z M1098.3,620.1
	c-6.4,0-12.7,0-19.1,0c-3,0-5.2,0.9-5.4,4.3c-0.2,2.9,1.8,4.7,5.4,4.7c12.6,0.1,25.2,0.1,37.8,0c3.5,0,5.8-2,5.5-4.7
	c-0.3-3.2-2.4-4.3-5.5-4.3C1110.8,620.1,1104.6,620.1,1098.3,620.1z"/>
<path class="st4" d="M820.4,671.6c13.2-6.8,26.1-13.3,39-20c2-1,2.8-0.4,3.9,1.1c4.4,6.6,9,13.2,13.5,19.8c4.3,6.2,8.3,7.9,15.7,6.2
	c40.3-8.9,80.6-17.8,120.9-26.6c5-1.1,8.1,1.5,7.5,6.2c-0.4,2.9-2.3,3.9-4.8,4.5c-11.8,2.8-23.5,5.5-35.3,8.3
	c-1.1,0.3-2.2,0.5-3.3,0.8c-2.3,0.8-3.5,2.4-3.2,4.9c0.3,2.4,2,3.8,4.3,3.9c2.2,0.1,4.5-0.1,6.7-0.2c21.7-0.7,43.4-1.5,65.1-2.2
	c2-0.1,4.1-0.4,5.7,1.2c1.5,1.5,2.2,3.3,1.5,5.4c-0.8,2.9-3,3.8-5.7,4c-7.7,0.5-15.4,1-23.2,1.6c-24.5,2-49.1,2.5-73.3,7.5
	c-18.8,3.8-37.3,8.9-55.7,14.5c-13.4,4.1-25.7,2.6-36.9-6.7c-13.4-11.1-27.1-21.7-40.6-32.6C821.8,673,821.3,672.4,820.4,671.6z"/>
<path class="st5" d="M838.5,440.9c16.7,0,32.8-0.1,48.9,0c12.3,0.1,22.6-4,30.9-13.3c4.2-4.7,8.6-9.2,13.3-14.2
	c1.5,5.8,2.2,11.1,2.6,16.4c1,14.5,0.9,29-3.9,42.9c-5.1,14.6-15.3,23.9-30.6,26.6c-16.4,3-30.5-1.7-40.7-15.3
	C849.3,471.2,843.7,456.4,838.5,440.9z M893.5,486.3c7.9-0.1,14.5-3,19.5-9.2c1.7-2.1,1.9-4.4-0.2-6.3c-2.1-1.9-4.5-1.8-6.3,0.3
	c-6.5,7.4-14.2,7.7-22.7,4c-2.8-1.2-5.3-0.7-6.5,2.3c-1.2,2.9,0.3,4.7,2.9,5.9C884.4,485.3,888.8,486.3,893.5,486.3z"/>
<path class="st6" d="M850.9,431.9c-4.2,0-8.5,0-12.7,0c-1.5,0-2.6-0.2-3-1.9c-2.8-11.4-3.9-22.8-0.6-34.4c3.1-10.5,9.4-18.5,19-23.5
	c18.3-9.3,36.9-9.3,55.5-0.7c9.7,4.4,14.2,12.8,17.1,22.4c0.7,2.2-0.7,2.1-2.2,2.1c-6.5,0.2-13-0.5-19.4,0.6
	c-9.7,1.6-17.4,6.6-23.3,14.4c-4.6,6.1-9.1,12.2-13.6,18.4c-1.4,1.9-2.9,2.7-5.3,2.6C858.6,431.8,854.7,431.9,850.9,431.9z"/>
<path class="st4" d="M909.6,580.4c-0.6-0.6-0.8-0.8-0.9-1c-9.4-21.2-25.9-37-41.3-53.6c-2.1-2.3-2.5-4-1.2-6.8
	c1.7-3.7,3-7.6,4.4-11.5c0.6-1.7,1.2-2,2.9-1.4c12.7,4.5,25.4,4.2,38-0.8c1.5-0.6,2.2-0.5,2.8,1c2.7,6.4,5.5,12.8,8.4,19.2
	c0.4,0.9,0.6,1.8,0.3,2.9C918.5,545.6,914.1,562.8,909.6,580.4z"/>
<path class="st6" d="M1080.7,572.7c-6.1-4-11.8-7.4-17.1-11.3c-3.6-2.6-6.5-2.8-10.1-0.1c-5.3,3.9-11,7.3-16.4,10.9
	c-1.2-0.8-0.8-1.7-0.8-2.5c0-13,0-26-0.1-39c0-2.5,0.6-3.4,3.3-3.4c12.7,0.1,25.5,0.1,38.2,0c1.9,0,3,0.2,2.9,2.6
	C1080.7,543.8,1080.7,557.8,1080.7,572.7z"/>
<path class="st7" d="M1002.7,549.7c-7.2,0-14.5-0.1-21.7,0c-2.1,0-3.2-0.3-3.1-2.8c0.2-5.5,0.1-11,0-16.5c-0.1-2.5,0.9-3.3,3.3-3.2
	c14.5,0.1,28.9,0.1,43.4,0c2.2,0,2.8,0.7,2.7,2.8c-0.1,5.6-0.2,11.2,0,16.8c0.1,2.4-0.8,2.9-3,2.9
	C1017.2,549.6,1010,549.7,1002.7,549.7z"/>
<path class="st7" d="M1114.3,549.7c-7.2,0-14.5-0.1-21.7,0c-2.2,0-3.1-0.5-3-2.9c0.2-5.6,0.1-11.2,0-16.8c0-2,0.5-2.8,2.7-2.8
	c14.5,0.1,28.9,0.1,43.4,0c2.4,0,3.4,0.8,3.4,3.2c-0.1,5.5-0.2,11,0,16.5c0.1,2.5-1,2.8-3.1,2.8
	C1128.8,549.6,1121.6,549.7,1114.3,549.7z"/>
<path class="st7" d="M882.3,555.3c-7.4,3.7-14.4,7.2-21.4,10.8c-1.5,0.8-2.4,0.6-3.4-0.8c-5.3-7.5-10.7-15-16.1-22.5
	c-1.2-1.6-0.8-2.2,0.7-3.1c4.9-2.9,9.8-5.9,14.7-8.9c1.4-0.9,2.3-1,3.5,0.3C867.4,539.1,874.7,547,882.3,555.3z"/>
<path class="st8" d="M926.2,405.4c-7.1,7.5-13,15.9-21.2,22c-4,3-8.8,4.2-13.7,4.4c-4.5,0.2-8.9,0-14.5,0
	c7.1-8.1,11.2-17.6,20.1-23.1C906.1,403.2,916.2,405.6,926.2,405.4z"/>
<path class="st9" d="M945,405c12.7-0.6,20.6,6.7,27.4,16.1c0.9,1.3,0.9,2.2-0.8,2.7c-8.9,2.6-17.7,5.1-26.5,7.8
	c-1.6,0.5-1.7-0.3-1.8-1.4c-0.8-8-1.9-15.9-3.9-23.6c-0.4-1.6,0.4-1.6,1.5-1.6C942.3,405,943.7,405,945,405z"/>
<path class="st8" d="M946.7,539.2c-1.6,8.2-3.2,15.9-4.7,23.5c-0.4,1.9-1.2,1.5-2.3,0.7c-4.1-3.2-8.2-6.5-12.4-9.6
	c-1.3-1-1.2-2-0.9-3.3c1.4-5.3,2.8-10.6,4.1-15.9c0.4-1.5,0.6-2.2,2.4-1.5c3.9,1.5,8,2.8,12,4.2C946.1,537.7,947,538.2,946.7,539.2z
	"/>
<path class="st10" d="M835.6,465.5c-3.8,0-7.6-2.4-9-5.8c-1.4-3.5-0.5-7.5,2.3-10.3c1.4-1.4,2.3-2.1,3.2,0.6c1.4,4.4,3.2,8.6,5,12.8
	C838,464.8,837.7,465.6,835.6,465.5z"/>
<path class="st11" d="M1090.5,642.5c8.7,0,17.5,0,26.2,0c3.1,0,5.5,0.9,5.9,4.3c0.3,2.8-2.1,4.7-5.9,4.7c-17.6,0-35.2,0-52.8,0
	c-3.9,0-6-1.8-5.8-4.8c0.3-3.6,2.8-4.3,5.8-4.2C1072.7,642.6,1081.6,642.5,1090.5,642.5z"/>
<path class="st12" d="M1098.3,620.1c6.2,0,12.5,0.1,18.7,0c3.1,0,5.1,1.1,5.5,4.3c0.3,2.7-2,4.7-5.5,4.7c-12.6,0.1-25.2,0.1-37.8,0
	c-3.6,0-5.6-1.8-5.4-4.7c0.2-3.3,2.4-4.3,5.4-4.3C1085.6,620.1,1092,620.1,1098.3,620.1z"/>
<path class="st13" d="M893.5,486.3c-4.7,0-9.1-1-13.3-3.1c-2.6-1.2-4.1-3.1-2.9-5.9c1.3-3,3.7-3.5,6.5-2.3c8.5,3.6,16.2,3.4,22.7-4
	c1.8-2.1,4.2-2.1,6.3-0.3c2.1,1.9,2,4.2,0.2,6.3C908,483.2,901.4,486.2,893.5,486.3z"/>
</svg>
