<?xml version="1.0" encoding="utf-8"?>
<!-- Generator: Adobe Illustrator 25.0.0, SVG Export Plug-In . SVG Version: 6.00 Build 0)  -->
<svg version="1.1" id="Layer_1" xmlns="http://www.w3.org/2000/svg" xmlns:xlink="http://www.w3.org/1999/xlink" x="0px" y="0px"
	 viewBox="0 0 1920 1080" style="enable-background:new 0 0 1920 1080;" xml:space="preserve">
<style type="text/css">
	.st0{fill:#F9B300;}
	.st1{fill:#F96450;}
	.st2{fill:#3CC7B3;}
	.st3{fill:#DB9500;}
	.st4{fill:#EFEFEF;}
	.st5{fill:#515150;}
	.st6{fill:#505050;}
	.st7{fill:#008B78;}
	.st8{fill:#1EA995;}
	.st9{fill:#BD7800;}
	.st10{fill:#3DC7B4;}
	.st11{fill:#D1D1D1;}
	.st12{fill:#018C78;}
	.st13{fill:#EDEFEE;}
	.st14{fill:#FEFEFE;}
	.st15{fill:#20AA97;}
	.st16{fill:#FFFFFF;}
</style>
<path class="st0" d="M816,468.2c1.2,0,2.5-0.1,3.7-0.1c69.3,0,138.7,0,208-0.1c3.3,0,4.3,0.7,4.3,4.2c-0.2,14.6,0,29.2,0,43.8
	c0,8,0,16,0,24c0,1.6-0.1,3.2-0.1,4.9c0,36.9,0,73.8,0.1,110.8c0,3.3-0.6,4.5-4.2,4.4c-34.6-0.2-69.1-0.1-103.7-0.1
	c0-11.2,0-22.4-0.2-33.6c0-2.1,0.9-2.4,2.7-2.4c3.1,0.1,6.2,0,9.3,0c13.2,0,26.4,0,39.6,0.1c8.5,0,8.4,0,8.5-8.3
	c0-3.1-1-3.7-3.8-3.7c-14.7,0.1-29.4,0.1-44.1,0.1c-0.1-8-0.1-15.9-0.2-23.9c13.2,0,26.5-0.1,39.7-0.1c8.5,0,8.3,0,8.4-8.5
	c0-2.8-0.8-3.6-3.6-3.6c-27.8,0.1-55.7,0.1-83.5,0.1c-5.6-8.6-13.5-12.4-23.7-12.1c-9.7,0.3-19.4,0.1-29.2,0.1
	c-16,0-23.1,5.2-28,20.3C816.1,545.6,816.1,506.9,816,468.2z M912.2,504c-21.6,0-43.2,0-64.8,0c-7.3,0-7.3,0-7.3,7.2
	c0,4.8,0,4.8,4.9,4.8c43.6,0,87.2,0,130.8,0c8.3,0,8.2,0,8.3-8.2c0.1-3.2-1-3.9-4-3.9C957.4,504.1,934.8,504,912.2,504z M912.1,552
	c21.5,0,43,0,64.5,0c7.5,0,7.2,0,7.6-7.4c0.2-4-1.3-4.6-4.9-4.6c-43.7,0.1-87.4,0.1-131.2,0.1c-8.1,0-7.9,0-8.1,8
	c-0.1,3.5,1.1,4.1,4.3,4.1C866.8,551.9,889.4,552,912.1,552z"/>
<path class="st1" d="M924.1,659.9c34.6,0,69.1-0.1,103.7,0.1c3.6,0,4.2-1.2,4.2-4.4c-0.1-36.9-0.1-73.8-0.1-110.8
	c0-1.6,0.1-3.2,0.1-4.9c8,0.1,15.9,0.1,23.9,0.2c0,16.2-0.1,32.4,0,48.5c0,3.7-1.7,8.6,0.8,10.7c2.5,2.1,7.4,0.6,11.2,0.5
	c20,0.1,40,0.1,59.9,0.2c0,8-0.1,16-0.1,23.9c-9.6,0-19.2,0-28.8,0c-4.9,0-7,2.1-7,7.1c0,3.1,0,6.2,0,9.4c0,5.5,2,7.5,7.4,7.5
	c9.5,0,19,0,28.5,0c0,8.1,0.2,16.2,0.1,24.3c-0.1,6.5-5.2,11.5-11.8,11.7c-4.2,0.1-8.5,0-12.7,0c3-19.7-10.7-36.1-29.8-36
	c-18.7,0.1-32,16.6-29.1,36c-39,0-78,0-117.1,0.1c-2.8,0-3.6-0.7-3.5-3.5C924.2,673.7,924.1,666.8,924.1,659.9z"/>
<path class="st2" d="M912.1,612c0,30.6-0.1,61.2,0,91.7c0,3.5-1,4.2-4.3,4.2c-30.6-0.2-61.2-0.2-91.7-0.2c0-31.9,0.1-63.9,0.1-95.8
	C848.1,612,880.1,612,912.1,612z M840,660.3c0-5.7,0-11.5,0-17.2c0-4.5-2.2-7.1-5.9-7.1c-3.7-0.1-6.1,2.5-6.1,6.9
	c0,11.4,0,22.7,0,34.1c0,4.4,2.3,7,6.1,6.9c3.7-0.1,5.9-2.6,5.9-7.1C840.1,671.3,840,665.8,840,660.3z M852,659.8
	c0,5.6,0,11.2,0,16.9c0,4.7,2.3,7.3,6.1,7.3c3.7-0.1,5.8-2.6,5.9-7.2c0-11.2,0-22.5,0-33.7c0-4.5-2.2-7-5.9-7.1c-3.7,0-6,2.5-6,7
	C852,648.6,852,654.2,852,659.8z M888,659.9c0-5.6,0-11.2,0-16.9c0-4.5-2.2-7-6-7c-3.7,0-6,2.6-6,7c0,11.4,0,22.7,0,34.1
	c0,4.4,2.4,7,6.2,6.9c3.6-0.1,5.8-2.6,5.8-6.8C888.1,671.4,888,665.6,888,659.9z"/>
<path class="st3" d="M816,468.2c0,38.7,0,77.4,0.1,116.2c0.4,2.8-0.5,3.9-3.5,3.7c-5.8-0.3-11.7-0.2-17.6,0c-2.2,0.1-3-0.4-3-2.8
	c0.1-38.2,0.1-76.3,0-114.5c0-2.1,0.6-2.8,2.7-2.7C801.8,468.2,808.9,468.1,816,468.2z"/>
<path class="st4" d="M1127.9,600c-20-0.1-40-0.1-59.9-0.2c0-19.9,0-39.8,0-59.7c8.2,0,16.5,0,24.7,0c6.2,10.6,12.5,21.1,18.7,31.7
	C1116.9,581.2,1123.1,590.2,1127.9,600z"/>
<path class="st5" d="M1044.5,683.9c-2.9-19.4,10.4-35.8,29.1-36c19.2-0.1,32.8,16.3,29.8,36c-4.2,14.6-14.7,23.6-28.3,24
	C1060.4,708.3,1048.8,699.3,1044.5,683.9z M1085.9,678c0-6.5-5.4-12-11.9-12c-6.6-0.1-12,5.2-12.1,11.8c-0.1,6.7,5.4,12.2,12.1,12.2
	C1080.5,689.9,1085.9,684.5,1085.9,678z"/>
<path class="st6" d="M1092.7,540.1c-8.2,0-16.5,0-24.7,0c-4,0-8,0-12,0c-8-0.1-15.9-0.1-23.9-0.2c0-8,0-16,0-24
	c19.3,0,38.6,0,57.9,0c7.9,0,13.1,4.1,13.9,10.7C1104.6,533.3,1100.5,538.3,1092.7,540.1z"/>
<path class="st7" d="M912.1,612c-32,0-64,0-96,0c-4,0-8.1,0-12.1,0c-3.1,0-6.2-0.2-9.3,0c-2.2,0.1-2.6-0.7-2.6-2.8
	c-0.1-9.3-0.2-9.3,9.1-9.3c8.9,0,17.9,0,26.8-0.1c4.1,0,8.1,0,12.2,0c11.9,0,23.9,0,35.8,0c4.1,0,8.1,0,12.2,0
	c10.9,0,21.9,0.1,32.8,0c2.3,0,3.2,0.4,3.2,3c0,9,0.1,9-9,9C914.1,612,913.1,612,912.1,612z"/>
<path class="st8" d="M804,612c4,0,8.1,0,12.1,0c0,31.9-0.1,63.9-0.1,95.8c-3.8,0.1-8.7,1.6-11.2-0.5c-2.4-2-0.7-7-0.7-10.7
	C804,668.4,804,640.2,804,612z"/>
<path class="st9" d="M897,576c27.8,0,55.7,0,83.5-0.1c2.8,0,3.6,0.8,3.6,3.6c-0.1,8.5,0.1,8.4-8.4,8.5c-13.2,0-26.5,0-39.7,0.1
	c-10.9,0-21.8-0.1-32.8,0c-2.1,0-3.4-0.2-3.5-2.8C899.6,581.9,897.9,579.1,897,576z"/>
<path class="st10" d="M840.1,599.9c-4.1,0-8.1,0-12.2,0c0-4,0-8,0.1-12c0.2-6.8,5.1-11.9,11.8-11.9c12.1-0.1,24.2-0.1,36.2,0
	c6.7,0.1,11.7,5.2,11.9,11.9c0.1,4,0.1,8,0.1,12c-4.1,0-8.1,0-12.2,0c0-3.1,0-6.2,0.1-9.3c0.1-1.9-0.5-2.6-2.5-2.6
	c-10.4,0.1-20.7,0.1-31.1,0c-2,0-2.6,0.7-2.5,2.6C840.2,593.7,840.1,596.8,840.1,599.9z"/>
<path class="st0" d="M1127.8,647.9c-9.5,0-19,0-28.5,0c-5.4,0-7.4-2-7.4-7.5c0-3.1,0-6.2,0-9.4c0-5,2.1-7.1,7-7.1
	c9.6,0,19.2,0,28.8,0C1127.8,632,1127.8,640,1127.8,647.9z"/>
<path class="st9" d="M936.1,612c14.7,0,29.4,0.1,44.1-0.1c2.9,0,3.9,0.7,3.8,3.7c-0.1,8.3,0,8.3-8.5,8.3c-13.2,0-26.4,0-39.6-0.1
	C936,619.9,936.1,616,936.1,612z"/>
<path class="st9" d="M912.2,504c22.6,0,45.2,0.1,67.8-0.1c3,0,4.1,0.7,4,3.9c-0.2,8.2,0,8.2-8.3,8.2c-43.6,0-87.2,0-130.8,0
	c-4.9,0-4.9,0-4.9-4.8c0-7.2,0-7.2,7.3-7.2C869,504,890.6,504,912.2,504z"/>
<path class="st9" d="M912.1,552c-22.6,0-45.2-0.1-67.8,0.1c-3.1,0-4.4-0.6-4.3-4.1c0.2-8,0-8,8.1-8c43.7,0,87.4,0,131.2-0.1
	c3.6,0,5.1,0.6,4.9,4.6c-0.4,7.4-0.1,7.4-7.6,7.4C955,552,933.5,552,912.1,552z"/>
<path class="st11" d="M1056,540.1c4,0,8,0,12,0c0,19.9,0,39.8,0,59.7c-3.8,0.1-8.7,1.6-11.2-0.5c-2.4-2.1-0.7-7-0.8-10.7
	C1055.9,572.5,1056,556.3,1056,540.1z"/>
<path class="st12" d="M840,660.3c0,5.5,0,11,0,16.5c0,4.5-2.2,7.1-5.9,7.1c-3.7,0.1-6.1-2.5-6.1-6.9c0-11.4,0-22.7,0-34.1
	c0-4.4,2.3-7,6.1-6.9c3.7,0.1,5.9,2.6,5.9,7.1C840.1,648.8,840,654.6,840,660.3z"/>
<path class="st12" d="M852,659.8c0-5.6,0-11.2,0-16.9c0-4.4,2.3-7,6-7c3.7,0,5.9,2.6,5.9,7.1c0,11.2,0,22.5,0,33.7
	c0,4.5-2.1,7.1-5.9,7.2c-3.9,0.1-6.1-2.5-6.1-7.3C852,671.1,852,665.4,852,659.8z"/>
<path class="st12" d="M888,659.9c0,5.7,0,11.5,0,17.2c0,4.2-2.2,6.7-5.8,6.8c-3.7,0.1-6.1-2.5-6.2-6.9c0-11.4,0-22.7,0-34.1
	c0-4.4,2.3-7,6-7c3.7,0,5.9,2.6,6,7C888.1,648.6,888,654.3,888,659.9z"/>
<path class="st13" d="M1085.9,678c0,6.5-5.4,11.9-11.9,12c-6.7,0-12.2-5.5-12.1-12.2c0.1-6.5,5.6-11.8,12.1-11.8
	C1080.6,666,1086,671.5,1085.9,678z"/>
<path class="st14" d="M840.1,599.9c0-3.1,0-6.2-0.1-9.4c-0.1-1.9,0.5-2.6,2.5-2.6c10.4,0.1,20.7,0.1,31.1,0c2,0,2.6,0.7,2.5,2.6
	c-0.1,3.1-0.1,6.2-0.1,9.3C864,599.9,852.1,599.9,840.1,599.9z"/>
<g>
	<ellipse class="st10" cx="949.7" cy="388" rx="56" ry="56"/>
	<path class="st15" d="M954.1,332.2c-2.4,2.1-5.6,2.1-8.5,3.1c-21,7.8-33.5,22.6-37,44.7c-2.9,18.5,2.9,34.3,15.7,47.6
		c7.1,7.3,15.8,12.2,25.8,14.5c1.4,0.3,2.8,0.6,3.9,1.7c-28,2.6-55.9-17.6-59.9-48.4c-4.1-31.4,17.4-57,44.7-62.4
		C943.9,331.9,949,331.9,954.1,332.2z"/>
	<path class="st16" d="M983.1,353.4c2.1,4.7,3.5,9.7,3.7,14.9c0.1,2.4,0,4.8-0.1,7.1c-0.2,2.7-1.7,4.8-4.3,5.5
		c-8.5,2.4-17,2.6-25.5-0.3c-0.4-0.1-0.8-0.3-1.4-0.6c3.3-3.6,7.2-6.1,11.7-8.3c-6.9-5.2-14.1-8.9-22.7-9.5
		c-8.7-0.6-16.3,2.3-23.2,7.3c5.7-7.2,14.7-12.6,24.8-13.5c10.1-0.9,19.4,1.6,28.4,6.1c0.6,0.3,1.3,0.6,2,1c1.8-3.6,3.5-7.1,6.5-9.8
		C983,353.3,983.1,353.3,983.1,353.4z"/>
	<path class="st16" d="M950.3,396.5c-2,1.8-3.7,3.4-5.6,4.8c-1.8,1.4-3.9,2.5-5.8,3.7c10.3,8,28,14.8,45.7,0.8
		c-1.7,2.6-5.7,6.4-8.9,8.5c-11,7.1-22.7,7.4-34.8,3.9c-3.8-1.1-7.5-2.7-11.3-4.1c-1.5,3.3-3.2,6.8-6,9.9c-0.7-1.4-1.3-2.6-1.8-3.9
		c-2.3-5.9-3-12-2.7-18.3c0.2-2.7,1.5-4.8,4.1-5.6c8.2-2.5,16.6-3.1,24.9-0.6C948.8,395.8,949.4,396.1,950.3,396.5z"/>
</g>
</svg>
