<?xml version="1.0" encoding="utf-8"?>
<!-- Generator: Adobe Illustrator 25.0.0, SVG Export Plug-In . SVG Version: 6.00 Build 0)  -->
<svg version="1.1" id="Layer_1" xmlns="http://www.w3.org/2000/svg" xmlns:xlink="http://www.w3.org/1999/xlink" x="0px" y="0px"
	 viewBox="0 0 1920 1080" style="enable-background:new 0 0 1920 1080;" xml:space="preserve">
<g>
	<path d="M936.4,512.6c0.6,0.1,1.5,0.1,2.3,0.2c2,0.3,3.3,1.4,4,3.3c0.8,2.1,1.5,4.3,2,6.6c0.3,1.3,0.9,1.7,2.2,1.7
		c11.3-0.1,22.6-0.1,33.9-0.1c4.2,0,4.7,0.6,3.7,4.7c-0.5,2.1-1.2,4.2-1.8,6.2c-0.4,1.3-1.2,1.7-2.5,1.6c-1.1-0.1-2-0.4-3.1-0.6
		c-6.5-1-13,2.1-16.5,8c-0.8,1.4-1.5,2.8-2.1,4.3c-0.2,0.5-0.4,1-1.1,1c-2.1,0.2-4.2,0.2-6.3-0.3c-1.7-0.4-2.8-1.5-3.4-3.2
		c-3-9.1-5.9-18.3-9.2-27.3c-0.1-0.3-0.2-0.5-0.3-0.8c-0.4-1.4-1.2-1.9-2.6-1.6c-0.3,0.1-0.6,0.1-0.9,0.1c-1.3,0-2.2-0.6-2.3-1.5
		c-0.1-1,0.7-1.9,1.8-2.3C934.9,512.6,935.5,512.6,936.4,512.6z"/>
	<path d="M975.2,540c7.5,0,13.4,5.9,13.4,13.5c0,7.5-5.5,12.9-13.2,12.9c-7.7,0-13.7-5.7-13.7-13.2C961.7,546.1,967.9,540,975.2,540
		z M975.3,543.8c-5.4,0-9.8,4.5-9.8,9.8c0,5.2,4.5,9.7,9.8,9.7c5.2,0,9.7-4.6,9.7-9.8C985,548.2,980.5,543.8,975.3,543.8z"/>
	<path d="M976.6,520.3c-8.6,0.3-17.1,0.3-26,0.2c1.9-2.1,3.5-4.2,5.8-5.3c1.2-0.6,2.4-0.4,3.6,0.3c1,0.6,1.7,1.5,2.4,2.3
		c1.1,1.1,1.2,1.1,2.3,0c0.8-0.8,1.5-1.6,2.5-2.3c1.5-1.1,2.7-1.1,4.3-0.1C973.4,516.7,974.8,518.7,976.6,520.3z"/>
	<path d="M957.8,557.4c0,2-1.9,3.8-3.8,3.9c-1.9,0-3.9-1.9-3.9-3.8c0-2,1.9-3.9,4-3.9C956,553.6,957.8,555.4,957.8,557.4z"/>
	<path d="M977.2,550.3c0.5,3.1-0.7,5.5-3.3,7.3c-1.1,0.8-2.2,0.8-3,0c-0.7-0.7-0.9-1.9,0.1-2.6c2.4-1.7,2.5-4,2.2-6.6
		c-0.2-1.7,0.6-2.5,1.8-2.6c1,0,1.6,0.4,1.9,1.4c0.1,0.5,0.1,1.1,0.1,1.6C977.2,549.3,977.2,549.8,977.2,550.3z"/>
</g>
</svg>
