<?xml version="1.0" encoding="utf-8"?>
<!-- Generator: Adobe Illustrator 25.0.0, SVG Export Plug-In . SVG Version: 6.00 Build 0)  -->
<svg version="1.1" id="Layer_1" xmlns="http://www.w3.org/2000/svg" xmlns:xlink="http://www.w3.org/1999/xlink" x="0px" y="0px"
	 viewBox="0 0 1920 1080" style="enable-background:new 0 0 1920 1080;" xml:space="preserve">
<style type="text/css">
	.st0{fill:#399AE9;}
	.st1{fill:#FEBF6C;}
	.st2{fill:#ECA559;}
	.st3{fill:#60AEF5;}
	.st4{fill:#FE4C4C;}
	.st5{fill:#3C9AE8;}
	.st6{fill:#3E6787;}
	.st7{fill:#3D9AE7;}
	.st8{fill:#33D7DC;}
	.st9{fill:#FEFCFA;}
	.st10{fill:#FEFEFD;}
	.st11{fill:#CAC9C8;}
</style>
<path class="st0" d="M1164.5,632.8c-3.2,6.1-8.2,8.8-15.2,8c-3.7-0.4-7.4-0.1-11.1-0.1c-0.1-3.2,0.2-6.3-0.4-9.5
	c-2-11.9-8.7-20.3-18.8-26.4c0-13.3,0-26.6,0-39.9c5.2,0,10.3,0,15.5-0.1c5.3,0,7.5-2.1,7.6-7.4c0.1-5.2-0.1-10.3,0.1-15.5
	c0.1-3.7-1.2-6.6-3.8-9.2c-6.2-6.1-12.9-12-18.4-18.7c-6.2-7.5-13.3-11.7-23.2-10c-0.1-1.7-1.4-2.5-2.4-3.5
	c-5.2-5.3-10.5-10.5-15.7-15.8c-2.1-2.2-4.4-4.1-7.3-5.2c14.5,0,29-0.1,43.4-0.1c3.6,0,6.6,1.9,9.1,4.4
	c12.2,12.4,24.4,24.8,36.7,37.2c1.8,1.8,2.7,4.1,4.1,6.2C1164.5,562.6,1164.5,597.7,1164.5,632.8z"/>
<path class="st1" d="M756,617.9c0-1.5-0.1-2.9-0.1-4.4c0-65.3,0-130.5,0-195.8c0-8.1,2-10,10.1-10c31.6,0,63.3,0,94.9,0
	c1.5,0,2.9,0.1,4.4,0.1c0,22.8-0.1,45.7,0,68.5c0,4.6,1.7,6.4,6.2,6.4c18.7,0,37.4,0,56.2,0c3.9,0,5.5-1.6,5.5-5.6
	c0-23.1,0-46.2-0.1-69.3c22.4,0,44.7,0,67.1,0.1c0,45,0,90.1,0,135.1c-1.6,0.1-3.2,0.2-4.8,0.2c-15.1,0-30.2,0-45.4,0
	c-3.1,0-5.5,0.8-6.6,3.9c-1.7,4.5,1.4,8.2,7,8.2c16.6,0.1,33.1,0.1,49.7,0.1c0,7.6,0,15.3,0,22.9c-13.5,0-27.1,0.1-40.6,0.1
	c-3.6,0-7.2-0.1-10.7,0.1c-3.4,0.2-6.3,3.2-6,6.3c0.3,3.2,2,5.4,5.5,5.7c2.4,0.2,4.8,0.5,7.1,0.5c14.9,0.1,29.7,0.1,44.6,0.1
	c0,8.9,0,17.7,0,26.6c-2,0-4,0.1-6,0.1c-45.3,0-90.7,0.1-136,0.1c-0.8-1-1.6-2.1-2.5-3.1c-10.4-12.6-25.2-16.8-40.6-11.5
	c-7.8,2.7-13.4,8.2-18.3,14.6C783.2,618,769.6,617.9,756,617.9z"/>
<path class="st2" d="M1000.1,617.8c0-8.9,0-17.7,0-26.6c4.4-0.1,8.8,0,13.1-0.3c4.5-0.4,6.5-2.8,6.2-6.7c-0.2-3.4-2.7-5.5-6.9-5.6
	c-4.1-0.1-8.2-0.1-12.3-0.2c0-7.6,0-15.3,0-22.9c4.2,0,8.5,0,12.7-0.2c4.2-0.1,6.7-2.6,6.6-6.3c-0.1-3.7-2.3-5.6-6.6-5.8
	c-4.2-0.1-8.5-0.2-12.7-0.2c0-45,0-90.1,0-135.1c13-0.1,26.1-0.2,39.1-0.1c3.6,0,6,2,6.5,5.7c0.2,1.7,0.4,3.4,0.4,5.1
	c0.1,20.3,0.1,40.7,0.2,61c0,1.6-0.1,3.2-0.1,4.8c0,42.9,0,85.9-0.1,128.8c0,1.7,0.4,3.5-0.6,5.1c-13.7,0-27.5,0-41.2,0
	C1002.9,618.2,1001.4,618.6,1000.1,617.8z"/>
<path class="st3" d="M1045.6,618.3c1-1.6,0.6-3.4,0.6-5.1c0-42.9,0-85.9,0.1-128.8c0-1.6,0.1-3.2,0.1-4.8c8.3,0,16.6,0,24.9,0
	c2.9,1.1,5.2,3,7.3,5.2c5.2,5.3,10.5,10.5,15.7,15.8c1,1,2.4,1.8,2.4,3.5c-7,0-14.1,0.1-21.1,0.1c-5.4,0-6.8,1.4-6.8,6.8
	c0,15.6,0,31.1,0,46.7c0,5.2,1.9,7.2,7.2,7.2c14.4,0,28.7,0,43.1,0c0,13.3,0,26.6,0,39.9c-0.9-0.3-1.7-0.6-2.6-1
	c-13.3-5-25.7-3.6-36.8,5.6c-9.8,8.1-13.7,18.7-12.6,31.3c-7.2-0.1-14.3-0.1-21.5-0.2C1045.6,633.2,1045.6,625.7,1045.6,618.3z"/>
<path class="st4" d="M933.1,407.8c0,23.1,0.1,46.2,0.1,69.3c0,4-1.6,5.6-5.5,5.6c-18.7,0-37.4,0-56.2,0c-4.5,0-6.2-1.8-6.2-6.4
	c0-22.8,0-45.7,0-68.5C887.9,407.9,910.5,407.8,933.1,407.8z"/>
<path class="st5" d="M1045.6,618.3c0,7.5,0,14.9,0,22.4c-11.4,0-22.9,0.1-34.3,0.1c-49.4,0-98.9,0-148.3,0c-0.5-1.8,0.2-3.6,0.2-5.5
	c0-6.3-2.6-11.8-5.1-17.4c45.3,0,90.7-0.1,136-0.1c2,0,4-0.1,6-0.1c1.3,0.9,2.8,0.5,4.3,0.5C1018.1,618.3,1031.8,618.3,1045.6,618.3
	z"/>
<path class="st6" d="M858.1,618c2.5,5.5,5.1,11,5.1,17.4c0,1.8-0.7,3.6-0.2,5.5c-1.9,17.6-16.5,31-34.7,31.8
	c-16.7,0.7-32.4-11.9-35.8-28.7c-0.2-1-0.4-2.1-0.7-3.1c-0.6-8.1,1.5-15.5,4.9-22.7c4.9-6.4,10.5-11.9,18.3-14.6
	c15.4-5.3,30.2-1.1,40.6,11.5C856.4,615.9,857.3,616.9,858.1,618z M827.5,623.1c-7.7,0-14,6.3-13.8,13.9c0.2,7.5,6.3,13.5,13.8,13.5
	c7.7,0,13.9-6.2,13.8-13.9C841.2,629.1,835.1,623.1,827.5,623.1z"/>
<path class="st6" d="M1067,640.8c-1-12.5,2.8-23.2,12.6-31.3c11.1-9.1,23.5-10.6,36.8-5.6c0.9,0.3,1.7,0.6,2.6,1
	c10.1,6.1,16.8,14.5,18.8,26.4c0.5,3.2,0.2,6.3,0.4,9.5c-2,11.9-7.7,21.4-18.5,27.3C1097.3,680.3,1070.1,666.2,1067,640.8z
	 M1102.7,650.5c7.5,0,13.9-6.4,13.8-13.6c-0.1-7.8-6.3-13.8-14-13.7c-7.6,0-13.6,6.1-13.7,13.6
	C1088.7,644.4,1094.9,650.5,1102.7,650.5z"/>
<path class="st7" d="M796.7,618c-3.4,7.2-5.5,14.7-4.9,22.7c-8.2,0-16.5,0-24.7,0c-7.7,0-11.2-3.5-11.2-11.3c0-3.9,0.1-7.7,0.1-11.6
	C769.6,617.9,783.2,618,796.7,618z"/>
<path class="st8" d="M1119,565c-14.4,0-28.7,0-43.1,0c-5.3,0-7.2-1.9-7.2-7.2c0-15.6,0-31.1,0-46.7c0-5.4,1.5-6.8,6.8-6.8
	c7,0,14.1-0.1,21.1-0.1c9.9-1.7,17,2.4,23.2,10c5.6,6.7,12.2,12.5,18.4,18.7c2.6,2.6,3.9,5.5,3.8,9.2c-0.2,5.2,0,10.3-0.1,15.5
	c-0.1,5.4-2.2,7.4-7.6,7.4C1129.4,565,1124.2,565,1119,565z"/>
<path class="st9" d="M1000.1,578.4c4.1,0,8.2,0,12.3,0.2c4.2,0.1,6.7,2.2,6.9,5.6c0.3,3.9-1.7,6.3-6.2,6.7
	c-4.4,0.4-8.7,0.3-13.1,0.3c-14.9,0-29.7,0-44.6-0.1c-2.4,0-4.8-0.3-7.1-0.5c-3.5-0.3-5.2-2.5-5.5-5.7c-0.3-3.1,2.6-6.1,6-6.3
	c3.6-0.2,7.2-0.1,10.7-0.1C973.1,578.5,986.6,578.4,1000.1,578.4z"/>
<path class="st10" d="M1000.1,543c4.2,0.1,8.5,0.1,12.7,0.2c4.3,0.1,6.5,2.1,6.6,5.8c0.1,3.7-2.4,6.2-6.6,6.3
	c-4.2,0.1-8.5,0.1-12.7,0.2c-16.6,0-33.1-0.1-49.7-0.1c-5.6,0-8.7-3.8-7-8.2c1.2-3.1,3.6-3.9,6.6-3.9c15.1,0,30.2,0,45.4,0
	C997,543.2,998.6,543.1,1000.1,543z"/>
<path class="st11" d="M827.5,623.1c7.6,0,13.7,5.9,13.8,13.5c0.1,7.7-6,13.9-13.8,13.9c-7.6,0-13.7-5.9-13.8-13.5
	C813.5,629.4,819.8,623.1,827.5,623.1z"/>
<path class="st11" d="M1102.7,650.5c-7.8,0-14-6.1-13.9-13.7c0-7.5,6.1-13.6,13.7-13.6c7.8,0,13.9,6,14,13.7
	C1116.5,644.1,1110.1,650.4,1102.7,650.5z"/>
</svg>
