<?xml version="1.0" encoding="utf-8"?>
<!-- Generator: Adobe Illustrator 25.0.0, SVG Export Plug-In . SVG Version: 6.00 Build 0)  -->
<svg version="1.1" id="Layer_1" xmlns="http://www.w3.org/2000/svg" xmlns:xlink="http://www.w3.org/1999/xlink" x="0px" y="0px"
	 viewBox="0 0 1920 1080" style="enable-background:new 0 0 1920 1080;" xml:space="preserve">
<style type="text/css">
	.st0{fill:#FFFFFF;}
</style>
<path d="M752,539.9c0.1-114.8,93.2-207.9,208-207.9c115,0,208.4,93.5,208.1,208.4c-0.3,114.9-93.5,207.9-208.3,207.7
	C845,747.8,751.9,654.6,752,539.9z M1136.1,540c0-97.1-78.7-175.8-175.8-176C863.1,363.8,784,442.7,784,540
	c0,97,78.7,175.9,175.8,176C1057,716.2,1136.1,637.2,1136.1,540z"/>
<path class="st0" d="M1136.1,540c0,97.2-79.1,176.2-176.3,176C862.7,715.8,784,637,784,540c0-97.2,79.1-176.2,176.3-176
	C1057.4,364.1,1136.1,442.9,1136.1,540z M959.5,576.9c-1.4-1.8-2.3-3.2-3.4-4.4c-25.4-25.7-50.8-51.4-76.3-77.1
	c-8.4-8.5-20.2-8.7-28.1-0.8c-7.9,7.8-7.7,19.7,0.7,28.1c31.3,31.3,62.7,62.6,94.2,93.9c8.8,8.7,20,8.7,28.8-0.1
	c30.6-30.4,61.2-60.9,91.7-91.4c8.8-8.8,9.2-20.5,1.2-28.5c-8-8-19.6-7.5-28.5,1.2c-8.8,8.6-17.5,17.3-26.3,26
	C995.9,541.2,978.2,558.6,959.5,576.9z"/>
<path d="M959.5,576.9c18.6-18.3,36.3-35.7,54-53.1c8.8-8.7,17.5-17.4,26.3-26c8.9-8.7,20.5-9.1,28.5-1.2c8,8,7.6,19.7-1.2,28.5
	c-30.5,30.5-61.1,61-91.7,91.4c-8.8,8.8-20,8.8-28.8,0.1c-31.4-31.2-62.8-62.5-94.2-93.9c-8.4-8.4-8.6-20.3-0.7-28.1
	c7.9-7.9,19.7-7.6,28.1,0.8c25.5,25.6,50.9,51.4,76.3,77.1C957.3,573.7,958.2,575.1,959.5,576.9z"/>
</svg>
