<?xml version="1.0" encoding="utf-8"?>
<!-- Generator: Adobe Illustrator 25.0.0, SVG Export Plug-In . SVG Version: 6.00 Build 0)  -->
<svg version="1.1" id="Layer_1" xmlns="http://www.w3.org/2000/svg" xmlns:xlink="http://www.w3.org/1999/xlink" x="0px" y="0px"
	 viewBox="0 0 1920 1080" style="enable-background:new 0 0 1920 1080;" xml:space="preserve">
<style type="text/css">
	.st0{fill:#FFFFFF;}
</style>
<path d="M931.6,856c68.2,0,136.3,0.4,204.5-0.1c41.2-0.3,77.6-33.7,81.6-74.8c1.8-18.3,1.1-36.9,1.2-55.4c0.1-45.5,0-91,0-136.5
	c0-29.8-0.1-59.7,0-89.5c0.1-14.5,9.3-25.1,23.6-27.9c16.5-3.3,33.2,9.6,33.4,26.4c0.3,25.7,0.1,51.3,0.1,77c0,45,0,90,0,135
	c0,22.8,0.8,45.7-0.3,68.5c-1.7,35.4-15.6,66-40.3,91.5c-21.2,21.9-47,35.7-77,41.2c-8.2,1.5-16.5,2.5-24.8,2.5
	c-134.8,0.2-269.6,0.1-404.5,0.1c-67.3,0-127.4-49.4-140-115.5c-2-10.2-3-20.8-3-31.2c-0.2-133.5-0.1-267-0.1-400.5
	c0-60.1,39.9-115.4,96.8-135c19.6-6.8,39.6-7.9,60-7.9c65,0.2,130,0.1,194.9,0.2c23.3,0,46.7,0,70,0c15.7,0,28.3,13.1,28.1,28.9
	c-0.2,15.7-12.8,28.2-28.4,28.2c-80.3,0-160.6-0.1-240.9,0.1c-16.8,0-33.8-0.7-50.4,1.6c-41.4,5.5-72.2,41.9-72.4,83.8
	c-0.1,24.7,0,49.3,0,74c0,109.7,0,219.3,0,329c0,37.1,22.3,69.6,57,81.5c9.3,3.2,19.5,4.9,29.3,4.9
	C797.3,856.3,864.5,856.1,931.6,856C931.6,856.1,931.6,856,931.6,856z"/>
<path d="M1336.3,294.4c-0.2,23.9-8.7,44.4-25.6,61.3c-63,63.1-126,126.1-189.1,189.1c-39.1,39.1-78.5,77.9-117.2,117.5
	c-16.3,16.6-34.9,27.4-57.6,32.5c-30.3,6.8-60.2,14.9-90.4,22.3c-39.6,9.7-76.3-22.5-71.1-62.8c1.7-13.1,5.9-25.9,9.1-38.8
	c5.7-22.7,11.5-45.4,17.2-68.1c4-16.1,11.9-29.8,23.6-41.5c45-45,90-90,135-135c58.7-58.7,117.3-117.3,176-176
	c18.8-18.8,41.5-27.9,68-26.7c18.4,0.8,35.9,6.4,49.4,18.9c19.2,17.6,37.8,36.1,55.1,55.5C1331.5,256.8,1336.4,275.1,1336.3,294.4z
	 M842.5,661.2c32.3-8.1,63.5-16,94.8-23.6c9.2-2.2,16.7-6.5,23.4-13.2c74.5-74.7,149.1-149.2,223.7-223.8c1.5-1.5,3.7-2.3,5-3.1
	c-28.2-28.3-55-55.2-82-82.4c-8.4,8.4-16.8,16.9-25.2,25.4c-68.6,68.5-137.2,137-205.5,205.8c-4.2,4.3-7.6,10.3-9.2,16.1
	c-6.4,23.5-12.1,47.3-18,71C847.1,642.3,844.9,651.3,842.5,661.2z M1229.5,354.3c14.4-14.1,29.4-27.8,43.2-42.6
	c9.7-10.4,8.2-26.9-1.9-37.2c-13.4-13.6-26.9-27.2-40.5-40.6c-12.1-11.9-29.9-11.7-42,0.4c-9,8.9-17.9,17.8-26.9,26.8
	c-4.3,4.3-8.5,8.7-12.4,12.6C1176.3,300.9,1203.1,327.8,1229.5,354.3z"/>
<path class="st0" d="M842.5,661.2c2.4-9.9,4.6-18.8,6.8-27.8c5.9-23.7,11.5-47.5,18-71c1.6-5.8,5-11.9,9.2-16.1
	c68.4-68.8,137-137.2,205.5-205.8c8.5-8.5,16.9-17,25.2-25.4c27.1,27.2,53.9,54.1,82,82.4c-1.3,0.8-3.5,1.6-5,3.1
	c-74.6,74.5-149.2,149.1-223.7,223.8c-6.7,6.7-14.1,11-23.4,13.2C905.9,645.1,874.7,653.1,842.5,661.2z"/>
<path class="st0" d="M1229.5,354.3c-26.4-26.5-53.2-53.4-80.4-80.7c3.9-3.9,8.1-8.3,12.4-12.6c8.9-9,17.9-17.9,26.9-26.8
	c12.1-12,29.9-12.3,42-0.4c13.6,13.4,27.1,27,40.5,40.6c10.1,10.3,11.6,26.8,1.9,37.2C1258.9,326.5,1243.9,340.2,1229.5,354.3z"/>
</svg>
