<?xml version="1.0" encoding="utf-8"?>
<!-- Generator: Adobe Illustrator 25.0.0, SVG Export Plug-In . SVG Version: 6.00 Build 0)  -->
<svg version="1.1" id="Layer_1" xmlns="http://www.w3.org/2000/svg" xmlns:xlink="http://www.w3.org/1999/xlink" x="0px" y="0px"
	 viewBox="0 0 1920 1080" style="enable-background:new 0 0 1920 1080;" xml:space="preserve">
<g>
	<path d="M875,714c-3.1-1.1-6.3-1.9-9.2-3.3c-10.2-4.9-14.2-14.8-11.1-25.6c2.7-9.3,8.2-17,13.1-25.1
		c29.5-49.4,59.2-98.7,88.8-148.1c4.7-7.8,9-15.9,14.1-23.4c5.9-8.6,13.4-14.5,24.9-13.7c8.2,0.6,14.2,4.6,18.7,10.8
		c10,13.9,18.2,28.9,27,43.5c29.1,47.9,58.1,95.9,87.1,143.9c2.1,3.5,3.7,7.4,5.5,11c0,5,0,10,0,15c-3.1,5-6.7,9.7-12.4,11.9
		c-3.1,1.2-6.4,2-9.6,3.1C1033,714,954,714,875,714z M993.7,628.1c1.8,0,3.7-0.2,5.5,0c3.5,0.5,4.3-1,4.7-4.3
		c2.3-21.5,6.3-42.8,9.8-64.1c1.4-8.4-2.6-16.8-10.1-21c-7.5-4.2-15.7-3.2-22.5,2.9c-6.4,5.8-8.4,12.9-6.9,21.5
		c3.1,18.2,6,36.5,8.6,54.8C984.1,628,983.7,628.1,993.7,628.1z M993.9,680.1c11.8,0,21.2-8.4,21.1-18.9c0-11-9.2-20.3-20.4-20
		c-12.9,0.3-20.4,8.3-21.3,19.9C972.4,671.2,982.6,680.1,993.9,680.1z"/>
	<path d="M906,368c9.4,1.9,18.9,3.3,27.7,7.1c36.1,15.7,58.2,42.7,65.6,81.6c0.6,3.3,0.4,4.5-3.6,4.7c-7.5,0.4-14.7,2.1-21.5,7
		c-4.3-29.2-18.5-51.3-44.5-64.8c-17.1-8.9-35.4-11.1-54.1-6.2c-43.1,11.3-63.9,50.5-60.3,84.5c2.7,25.2,14.9,45.1,36.1,59.1
		c21.1,13.9,44,16.3,69.3,8.6c-6.7,11-12.7,20.9-18.7,30.7c-1.5,2.4-3.9,1.5-5.9,1.4c-17.1-0.5-33.6-3.5-48.9-11.3
		c-21.6-11.1-38.1-27.2-48.8-49.2c-5.4-11.2-8.3-22.9-10.5-35c0-8,0-16,0-24c0.2-0.2,0.6-0.4,0.7-0.7c1.7-16.5,7.4-31.5,16.5-45.2
		c12.5-19,29.3-32.5,50.3-41.1c8.6-3.5,17.6-5,26.5-7C890,368,898,368,906,368z"/>
	<path d="M894.2,407.9c5.2,0,7.1,1.9,7.4,7.1c1.1,14.7,2.3,29.3,3.3,44c0.1,2,0.9,3.5,2.1,4.8c8.1,9.6,2.4,26.5-11.1,26.5
		c-6.8,0-9.2,5.8-13.6,8.8c-4.1,2.8-7.5,6.5-11.3,9.7c-3.7,3.2-7.3,1.8-10.2-1c-3-2.9-4.1-6.5-1-10.2c5.1-6.1,10.2-12.1,15.4-18.2
		c1.6-1.9,2.8-3.9,3-6.5c0.2-4.5,2.2-8.2,5.7-11.1c1.1-0.9,1.1-1.9,1.2-3c0.7-14.6,1.4-29.1,2.1-43.7
		C887.5,409.6,888.9,407.9,894.2,407.9z"/>
</g>
</svg>
