<?xml version="1.0" encoding="utf-8"?>
<!-- Generator: Adobe Illustrator 25.0.0, SVG Export Plug-In . SVG Version: 6.00 Build 0)  -->
<svg version="1.1" id="Layer_1" xmlns="http://www.w3.org/2000/svg" xmlns:xlink="http://www.w3.org/1999/xlink" x="0px" y="0px"
	 viewBox="0 0 1920 1080" style="enable-background:new 0 0 1920 1080;" xml:space="preserve">
<style type="text/css">
	.st0{fill:#FC5E72;}
	.st1{fill:#2A2A6F;}
	.st2{fill:#FEFDFD;}
	.st3{fill:#FDFDFE;}
	.st4{fill:#FAFAFB;}
	.st5{fill:#2B2B6F;}
	.st6{fill:#FC5F73;}
	.st7{fill:#FEFBFC;}
	.st8{fill:#FEFAFA;}
	.st9{fill:#FBFBFC;}
</style>
<g>
	<path class="st0" d="M1021.3,501.2c6.3,11.2,12.6,22.4,19,33.5c28.7,49.7,57.4,99.4,86.1,149.1c3.8,6.7,4.5,13.4,1.1,20.3
		c-3.5,7-9.4,10.4-17,11.2c-1,0.1-2,0.1-3,0.1c-73.6,0-147.1,0-220.7,0c-11.2,0-19.2-5.8-21.6-15.9c-1.3-5.4-0.2-10.4,2.5-15.1
		c16-27.8,32.1-55.5,48.1-83.3c0.7-1.3,1.4-2.6,2.1-4c2.5-3.6,4.7-7.3,6.5-11.4c2.8-3.9,5.2-8.1,7.2-12.4c2.8-4.2,5.7-8.3,7.4-13.1
		l0,0.1c0.5,0,0.7-0.3,0.7-0.7c0.6-0.9,1.3-1.9,1.8-2.8c12.2-21,24.4-42,36.4-63.2c3.3-5.8,7.4-10.2,13.7-12.6
		c3.5-0.4,6.9-0.4,10.4-0.2c3.9,1.3,7.3,3.3,10.3,6C1015.3,491.6,1018.3,496.4,1021.3,501.2z M997.1,704.8c34.2,0,68.5,0,102.7,0
		c3.2,0,6.5,0.1,9.7,0c6.6-0.4,10.8-5.8,9.3-12.1c-0.4-1.7-1.3-3.2-2.2-4.7c-24.8-43-49.6-86.1-74.5-129.1
		c-11.9-20.6-24.1-41.2-35.6-62c-4.2-7.6-15.1-7.8-18.5,0.1c-0.3,0.7-0.7,1.3-1.1,1.9c-27.2,47.1-54.4,94.2-81.6,141.4
		c-9.4,16.2-18.8,32.4-28.1,48.7c-4.7,8.2-0.3,15.7,9.3,15.9c0.9,0,1.7,0,2.6,0C925.1,704.8,961.1,704.8,997.1,704.8z"/>
	<path class="st1" d="M924.4,585.7c-1.7,4-4,7.8-6.5,11.4c-21.8,2-42.5-1.7-62.2-11.2c-44.8-21.6-71-70-64.6-119.3
		c7-53.5,48.8-94.9,102.1-101.1c61.8-7.3,118.9,36.2,128.3,97.7c2,12.7,1.9,25.4-0.3,38c-3-4.8-6-9.6-9-14.4
		c0.5-7.6,0-15.2-1.2-22.8c-9.4-59.6-68.5-99.6-127.4-86.2c-54.1,12.4-89.6,62.3-81.9,117.2c6.2,43.5,31.2,72.4,72.6,87
		C890.7,587.7,907.5,588.3,924.4,585.7z"/>
	<path class="st2" d="M997.1,704.8c-36,0-72,0-107.9,0c-0.9,0-1.7,0-2.6,0c-9.5-0.1-14-7.6-9.3-15.9c9.3-16.2,18.7-32.4,28.1-48.7
		c27.2-47.1,54.4-94.2,81.6-141.4c0.4-0.6,0.8-1.3,1.1-1.9c3.4-7.9,14.2-7.7,18.5-0.1c11.6,20.8,23.7,41.3,35.6,62
		c24.8,43,49.7,86,74.5,129.1c0.9,1.5,1.8,3.1,2.2,4.7c1.5,6.3-2.7,11.7-9.3,12.1c-3.2,0.2-6.5,0-9.7,0
		C1065.6,704.8,1031.3,704.8,997.1,704.8z M997.4,549c-4.5,0-9-0.1-13.5,0c-4,0.1-6,2.2-5.9,6.2c0.1,3.5,0.4,7,0.7,10.5
		c1.3,21.4,2.6,42.9,3.9,64.3c0.2,4,2.2,5.9,6.2,5.9c4,0.1,8,0,12,0c10.6,0,11-0.4,11.6-11c1.3-23.1,2.7-46.1,4.1-69.2
		c0.3-4.4-1.6-6.6-6-6.7C1006.1,549,1001.7,549,997.4,549z M1014.7,665.1c-0.1-9.8-8.3-17.9-18-17.8c-9.7,0.1-17.9,8.4-17.7,18.1
		c0.2,9.6,8.3,17.6,17.8,17.6C1006.4,683.1,1014.7,674.7,1014.7,665.1z"/>
	<path class="st3" d="M991.6,480.9c-6.3,2.3-10.4,6.8-13.7,12.6c-12,21.1-24.2,42.1-36.4,63.2c-0.6,1-1.2,1.9-1.8,2.8
		c-0.4,0.1-1,0-0.7,0.7c0,0,0-0.1,0-0.1c-1.3-0.4-2.4,0.4-3.5,0.8c-11.9,4.2-24.2,5.8-36.8,4.6c-50.2-4.6-85.6-52.5-75.1-101.9
		c9.9-46.5,54.9-75.6,101.3-65.6C962.4,406.3,991.3,439.8,991.6,480.9z M911.9,437.7c0-7.2,0-14.5,0-21.7c0-4.4-1.8-6.8-5.1-6.9
		c-3.4-0.1-5.4,2.4-5.4,7c0,14.4,0,28.7,0,43.1c0,2.1-0.6,3.2-2.6,4.1c-10,4.4-14.4,15.4-10.4,25.2c4,10,15.1,14.8,25.4,10.9
		c2.2-0.8,3.3-0.4,4.8,1.1c4.9,5,9.8,9.9,14.8,14.9c3.4,3.4,6.2,3.8,8.7,1.5c2.5-2.4,2-5.6-1.4-9c-4.9-4.9-9.8-9.9-14.9-14.8
		c-1.4-1.4-1.8-2.4-1-4.5c4-10.3-0.3-20.8-10.3-25.2c-2.2-1-2.6-2.1-2.5-4.2C912,452,911.9,444.9,911.9,437.7z"/>
	<path class="st4" d="M924.4,585.7c-16.9,2.6-33.7,2-49.9-3.7c-41.4-14.5-66.5-43.5-72.6-87c-7.8-54.9,27.8-104.8,81.9-117.2
		c58.8-13.5,117.9,26.6,127.4,86.2c1.2,7.6,1.7,15.1,1.2,22.8c-3-2.7-6.5-4.7-10.3-6c0.2-4.5-0.3-9-0.9-13.4
		c-7.5-52.4-56.8-88.6-109.2-80.4c-67.5,10.6-102.3,86.6-66.3,144.7c20.6,33.2,62.4,53.3,106,41.7
		C929.6,577.6,927.3,581.8,924.4,585.7z"/>
	<path class="st5" d="M931.6,573.3c-43.6,11.6-85.4-8.4-106-41.7c-36-58-1.3-134.1,66.3-144.7c52.4-8.2,101.7,28,109.2,80.4
		c0.6,4.4,1.1,8.9,0.9,13.4c-3.5-0.3-7-0.2-10.4,0.2c-0.3-41.1-29.2-74.6-66.8-82.7c-46.4-10-91.4,19.1-101.3,65.6
		c-10.5,49.4,24.9,97.3,75.1,101.9c12.7,1.2,24.9-0.4,36.8-4.6c1.1-0.4,2.2-1.3,3.5-0.8C937.3,565,934.4,569.1,931.6,573.3z"/>
	<path class="st5" d="M938.9,560.2c-0.2-0.7,0.4-0.6,0.7-0.7C939.6,559.9,939.4,560.2,938.9,560.2z"/>
	<path class="st0" d="M997.4,549c4.4,0,8.7-0.1,13.1,0c4.4,0.1,6.3,2.3,6,6.7c-1.4,23.1-2.8,46.1-4.1,69.2c-0.6,10.6-1,11-11.6,11
		c-4,0-8,0.1-12,0c-4-0.1-6-1.9-6.2-5.9c-1.3-21.4-2.6-42.9-3.9-64.3c-0.2-3.5-0.6-7-0.7-10.5c-0.1-4,1.9-6.1,5.9-6.2
		C988.4,549,992.9,549,997.4,549z M997.5,559.5c-2,0-4,0.1-6,0c-2.2-0.2-2.7,0.6-2.5,2.8c0.5,6.1,0.7,12.2,1.1,18.3
		c0.8,13.8,1.9,27.6,2.5,41.5c0.3,5.4,4,2.9,6.4,3.4c3.2,0.6,2.9-1.7,3-3.7c1-17.9,2.1-35.9,3.2-53.8
		C1005.7,559.5,1005.8,559.5,997.5,559.5z"/>
	<path class="st6" d="M1014.7,665.1c0.1,9.7-8.2,18-17.9,17.9c-9.6-0.1-17.6-8-17.8-17.6c-0.2-9.6,8-18,17.7-18.1
		C1006.4,647.2,1014.6,655.3,1014.7,665.1z M1004.2,665.3c0.1-3.9-3.4-7.5-7.4-7.5c-3.8,0-7.3,3.4-7.3,7.2c0,3.9,3.5,7.5,7.4,7.5
		C1000.6,672.4,1004.1,669.1,1004.2,665.3z"/>
	<path class="st1" d="M911.9,437.7c0,7.1,0.1,14.2,0,21.3c0,2,0.3,3.2,2.5,4.2c10,4.4,14.3,14.9,10.3,25.2c-0.8,2-0.4,3.1,1,4.5
		c5,4.9,9.9,9.8,14.9,14.8c3.4,3.4,3.9,6.6,1.4,9c-2.5,2.4-5.3,1.9-8.7-1.5c-5-4.9-9.9-9.8-14.8-14.9c-1.5-1.5-2.6-1.9-4.8-1.1
		c-10.3,4-21.3-0.9-25.4-10.9c-4-9.9,0.4-20.8,10.4-25.2c2.1-0.9,2.7-2,2.6-4.1c-0.1-14.4-0.1-28.7,0-43.1c0-4.6,2-7.1,5.4-7
		c3.3,0.1,5.1,2.6,5.1,6.9C912,423.3,911.9,430.5,911.9,437.7z M906.9,472.2c-5.2-0.1-9.1,3.5-9.3,8.6c-0.2,5.2,3.9,9.5,9,9.5
		c4.8,0,9.1-4.2,9.2-9C915.8,476.2,912,472.3,906.9,472.2z"/>
	<path class="st7" d="M997.5,559.5c8.4,0,8.2,0,7.7,8.4c-1.1,17.9-2.2,35.9-3.2,53.8c-0.1,2,0.2,4.3-3,3.7c-2.4-0.5-6.2,2-6.4-3.4
		c-0.7-13.8-1.7-27.6-2.5-41.5c-0.4-6.1-0.5-12.2-1.1-18.3c-0.2-2.2,0.3-2.9,2.5-2.8C993.5,559.7,995.5,559.5,997.5,559.5z"/>
	<path class="st8" d="M1004.2,665.3c-0.1,3.8-3.5,7.1-7.3,7.2c-3.8,0-7.4-3.6-7.4-7.5c0-3.8,3.5-7.2,7.3-7.2
		C1000.7,657.8,1004.2,661.4,1004.2,665.3z"/>
	<path class="st9" d="M906.9,472.2c5.1,0.1,8.9,4,8.9,9.1c-0.1,4.8-4.4,9.1-9.2,9c-5.1,0-9.1-4.3-9-9.5
		C897.7,475.7,901.7,472.1,906.9,472.2z"/>
</g>
</svg>
