<?xml version="1.0" encoding="utf-8"?>
<!-- Generator: Adobe Illustrator 25.0.0, SVG Export Plug-In . SVG Version: 6.00 Build 0)  -->
<svg version="1.1" id="Layer_1" xmlns="http://www.w3.org/2000/svg" xmlns:xlink="http://www.w3.org/1999/xlink" x="0px" y="0px"
	 viewBox="0 0 1920 1080" style="enable-background:new 0 0 1920 1080;" xml:space="preserve">
<style type="text/css">
	.st0{fill:#FFFFFF;}
</style>
<path d="M1059,456.1c-2,2.7-3.8,5.4-5.9,8c-21.9,26.6-43.8,53.2-65.7,79.8c-0.7,0.8-1,2.1-1,3.1c-0.1,18.8-0.2,37.6-0.1,56.3
	c0,3.8-1.4,6.2-4.9,7.9c-12.5,6.1-25,12.4-37.5,18.5c-1.4,0.7-3.2,1.1-4.8,1c-2.7-0.2-4.5-2.3-4.8-5c-0.1-1-0.2-1.9-0.2-2.9
	c0-25.2,0-50.4,0-75.6c0-1.5-0.4-2.6-1.4-3.8c-23.1-27.9-46.2-55.9-69.2-83.9c-1.8-2.2-2.8-4.5-1.5-7.3c1.3-2.7,3.7-3.5,6.6-3.5
	c61.1,0,122.2,0,183.3,0c3.5,0,5.8,1.5,7.2,4.7C1059,454.2,1059,455.2,1059,456.1z M880.2,460.7c0.5,0.7,0.8,1.2,1.2,1.6
	c20.5,24.9,41,49.8,61.6,74.7c2.1,2.6,3.1,5.2,3.1,8.6c-0.1,22.4,0,44.8,0,67.1c0,0.7,0,1.5,0,2.4c0.9-0.4,1.4-0.6,1.9-0.9
	c8.2-4,16.3-8.1,24.5-12.1c1.3-0.6,1.7-1.4,1.7-2.8c0-18.2,0.1-36.4,0.1-54.6c0-2.8,0.8-5.1,2.6-7.2c20.7-25.1,41.4-50.2,62.1-75.3
	c0.4-0.4,0.7-0.9,1.2-1.6C986.7,460.7,933.6,460.7,880.2,460.7z"/>
<path class="st0" d="M880.2,460.7c53.4,0,106.5,0,159.9,0c-0.5,0.7-0.8,1.2-1.2,1.6c-20.7,25.1-41.4,50.2-62.1,75.3
	c-1.8,2.2-2.6,4.4-2.6,7.2c0,18.2-0.1,36.4-0.1,54.6c0,1.4-0.4,2.1-1.7,2.8c-8.2,4-16.4,8.1-24.5,12.1c-0.5,0.3-1,0.5-1.9,0.9
	c0-1,0-1.7,0-2.4c0-22.4,0-44.8,0-67.1c0-3.3-0.9-6-3.1-8.6c-20.6-24.8-41.1-49.8-61.6-74.7C881.1,461.9,880.8,461.4,880.2,460.7z"
	/>
</svg>
