<?xml version="1.0" encoding="utf-8"?>
<!-- Generator: Adobe Illustrator 25.0.0, SVG Export Plug-In . SVG Version: 6.00 Build 0)  -->
<svg version="1.1" id="Layer_1" xmlns="http://www.w3.org/2000/svg" xmlns:xlink="http://www.w3.org/1999/xlink" x="0px" y="0px"
	 viewBox="0 0 1920 1080" style="enable-background:new 0 0 1920 1080;" xml:space="preserve">
<g>
	<path d="M960.9,636.3c-28.7,0-57.3,0-86,0c-2.1,0-5.2,1.2-6.1-1.7c-1-3-1-6.3,0.1-9.3c0.6-1.8,2.5-1.3,4-1.3
		c6.5-0.3,6.5-0.3,6.5-6.9c0-44.6,0-89.3,0-133.9c0-7.9,0.2-8.1,8.2-8.1c8.5,0,17-0.2,25.5,0.1c3.4,0.1,4.2-1.1,4.1-4.2
		c-0.2-6.5,0-13-0.1-19.5c-0.1-3.8,1.5-5.4,5.4-5.4c25.8,0.1,51.6,0.1,77.5,0c3.9,0,5.3,1.8,5.3,5.5c-0.1,6.5,0.1,13-0.1,19.5
		c-0.1,3,0.8,4.1,3.9,4c9-0.2,18-0.1,27-0.1c6.3,0,6.8,0.5,6.8,6.9c0,45.1,0.1,90.3-0.1,135.4c0,5.2,1.2,7.3,6.5,6.5
		c5.5-0.7,4.4,3.5,4.6,6.7c0.2,3.5-0.1,6.1-4.9,6C1019.5,636.2,990.2,636.3,960.9,636.3z M960.8,508.3c13,0.1,23.6-10.1,23.8-23.1
		c0.3-13-10.6-24-23.6-24c-12.8,0-23.5,10.6-23.6,23.5C937.3,497.6,947.8,508.2,960.8,508.3z M958.7,605.1c0-4.6-0.2-9.3,0.1-13.9
		c0.2-3.4-0.8-4.8-4.4-4.6c-4.3,0.3-8.6,0.2-12.9,0c-3.5-0.2-5.2,1-5.1,4.8c0.2,9.5,0.2,18.9,0,28.4c-0.1,3.1,1.2,4,4.1,3.9
		c4.8-0.2,9.6-0.2,14.4,0c3.2,0.1,4-1.2,3.9-4.1C958.5,614.8,958.7,610,958.7,605.1z M963.3,605.5c0,5,0.1,10,0,14.9
		c0,2.3,0.8,3.3,3.2,3.3c5.3-0.1,10.6-0.1,15.9,0c2.3,0,3.2-0.9,3.2-3.2c-0.1-10-0.1-19.9,0-29.9c0-2.7-1.1-4-3.9-3.9
		c-5,0.1-10,0.1-14.9,0c-3-0.1-3.6,1.3-3.6,3.9C963.4,595.5,963.3,600.5,963.3,605.5z M942.9,555c-1.3,0-2.7,0.2-4,0
		c-4.8-0.7-6,1.6-5.9,6c0.4,14.6-2.1,12.5,12.8,12.7c0.5,0,1,0,1.5,0c3.8,0.4,5.7-1.1,5.3-5.1c-0.1-1.3,0-2.7,0-4
		C952.7,553.4,953.1,555.1,942.9,555z M906.4,492c-1,0-2,0-3,0c-6.7,0-6.7,0-6.7,7c0,0.5,0,1,0,1.5c0.1,11.2-1.5,10.1,10.1,10.2
		c10.6,0.1,9.2,0.2,9.2-9.1C916,490.8,917.2,492.1,906.4,492z M1015.9,492c-10.7,0.1-9.9-1.3-9.9,8.8c0.1,10.4-1.7,9.9,9.9,9.9
		c10.6,0,9.3,0.7,9.4-9.4C1025.3,490.6,1026,492.1,1015.9,492z M906.5,555c-10.4,0.2-9.9-1.6-9.8,8.9c0.1,10.7-1.4,9.7,10,9.8
		c10.9,0.1,9.3,0.3,9.3-9.5C916,553.8,917,555.1,906.5,555z M979.4,573.7c11,0,9.6,0.4,9.6-9.2c0-10.8,1.2-9.4-10.2-9.4
		c-9.6,0-9.1-1.4-9.1,9.1C969.7,574.5,968.4,573.6,979.4,573.7z M1015.8,555c-1.3,0-2.7,0.2-4,0c-4.7-0.7-6.5,1.3-5.8,5.9
		c0.1,0.8,0,1.7,0,2.5c0.2,11.1-1.8,10.2,10.5,10.3c9.9,0,8.8,0.4,8.8-9C1025.3,553.6,1026.2,555.1,1015.8,555z M942.9,542.1
		c1.3,0,2.7-0.1,4,0c4.3,0.6,5.8-1.1,5.8-5.5c0-13,0.1-13-12.9-12.9c-0.5,0-1,0.1-1.5,0c-3.8-0.4-5.7,1.1-5.2,5.1
		c0.1,1.1,0,2.3,0,3.5C933.2,543.5,932.1,542,942.9,542.1z M979.1,542.1c1.5,0,3-0.2,4.5,0c4.2,0.5,5.4-1.4,5.4-5.5
		c0-13,0.1-13-12.8-13c-0.8,0-1.7,0.1-2.5,0c-3.3-0.3-4.5,1.4-4.3,4.5c0.1,1.3,0,2.7,0,4C969.4,543.7,968.5,542,979.1,542.1z
		 M906.4,542.1c1,0,2,0,3,0c6.6,0,6.6,0,6.6-6.6c0-11.9,0-11.9-12.3-11.9c-7.1,0-7.1,0-7.1,7.1c0,0.5,0,1,0,1.5
		C896.7,543.6,895.6,542,906.4,542.1z M1015.2,542.1c1.7,0,3.3-0.2,5,0c3.9,0.5,5.6-1.2,5.1-5.1c-0.1-1,0-2,0-3
		c-0.1-11.8,1.5-10.3-10.2-10.4c-10.4-0.1-9.1-0.6-9.1,9.1C1006,543.1,1004.8,542,1015.2,542.1z"/>
	<path d="M947.2,484.9c-0.9-4.1,1-5.3,4.6-4.9c3,0.4,4.8-0.3,4.3-3.9c-0.6-3.6,0.5-5.4,4.8-5.3c3.9,0.1,5.6,1.1,5,5.1
		c-0.5,3.3,0.8,4.6,4.1,4.1c3.5-0.5,5.1,0.5,5,4.5c-0.1,3.7-0.8,5.8-5,5.2c-3.8-0.6-4.7,1.4-4.2,4.6c0.6,4.2-1.8,4.5-5.1,4.5
		c-3.1,0-5.3-0.5-4.7-4.3c0.6-3.6-0.6-5.3-4.5-4.7C947.7,490.2,946.4,488.3,947.2,484.9z"/>
</g>
</svg>
