<?xml version="1.0" encoding="utf-8"?>
<!-- Generator: Adobe Illustrator 25.0.0, SVG Export Plug-In . SVG Version: 6.00 Build 0)  -->
<svg version="1.1" id="Layer_1" xmlns="http://www.w3.org/2000/svg" xmlns:xlink="http://www.w3.org/1999/xlink" x="0px" y="0px"
	 viewBox="0 0 1920 1080" style="enable-background:new 0 0 1920 1080;" xml:space="preserve">
<style type="text/css">
	.st0{fill:#FEFEFE;}
	.st1{fill:#010101;}
	.st2{fill:#040404;}
	.st3{fill:#AAE8FE;}
	.st4{fill:#F8DF6D;}
	.st5{fill:#4F4F68;}
	.st6{fill:#CCF1FE;}
	.st7{fill:#FCED9E;}
	.st8{fill:#63637C;}
	.st9{fill:#EEEEEE;}
	.st10{fill:#F4F4F4;}
	.st11{fill:#B1B1B1;}
	.st12{fill:#B0B0B0;}
	.st13{fill:#EAEAEA;}
	.st14{fill:#FCFCFC;}
</style>
<path class="st0" d="M960.4,649.5c-5.6,0-11.2,0-16.9,0c-44.3,0-88.7-0.1-133,0c-29,0.1-48.4,28.3-38.1,55
	c6.2,16.1,21,25.9,39.2,25.9c98.9,0,197.9,0,296.8,0c1.2,0,2.5,0,3.7-0.1c20.4-0.9,37.5-18.1,38.2-38.5
	c0.9-23.6-17.2-42.3-41.2-42.3C1059.6,649.4,1010,649.5,960.4,649.5z M1000.5,462.2c0-5.5,0-11,0-16.5c0-4.8-1.4-6.1-6.3-6.2
	c-6,0-12-0.1-18,0c-1.9,0-2.9-0.3-3.4-2.4c-1.6-6.2-4-12-7.2-17.6c-1-1.7-0.7-2.7,0.7-4.1c4.4-4.2,8.7-8.6,13-13
	c3.2-3.3,3.2-5.2-0.1-8.5c-7.7-7.7-15.3-15.4-23-23.1c-3.5-3.5-5.4-3.5-8.8-0.1c-4.3,4.2-8.5,8.4-12.7,12.7
	c-1.4,1.5-2.4,1.9-4.4,0.8c-5.4-3.2-11.2-5.5-17.2-7.1c-2.1-0.6-2.6-1.5-2.6-3.6c0.2-6.1,0.1-12.2,0-18.4c0-4.2-1.5-5.7-5.6-5.7
	c-11.2,0-22.5,0-33.7,0c-4.1,0-5.7,1.5-5.7,5.6c0,6.2-0.1,12.5,0,18.7c0,1.9-0.4,2.9-2.4,3.4c-6.2,1.6-12,4-17.5,7.2
	c-1.8,1-2.7,0.6-4-0.8c-4.2-4.4-8.6-8.7-13-13c-3.2-3.1-5.2-3.2-8.3-0.1c-7.9,7.8-15.8,15.7-23.6,23.6c-3.1,3.1-3.1,5.1,0,8.3
	c4.4,4.4,8.8,8.9,13.3,13.2c1.3,1.2,1.5,2.2,0.6,3.8c-3.2,5.5-5.6,11.4-7.3,17.5c-0.5,1.9-1.3,2.6-3.3,2.5c-6.2-0.1-12.5-0.1-18.7,0
	c-4.1,0-5.7,1.5-5.7,5.6c0,11.2,0,22.5,0,33.7c0,4.1,1.6,5.6,5.7,5.6c6.2,0,12.5,0.1,18.7,0c2,0,2.8,0.6,3.3,2.5
	c1.6,6.2,4.1,12,7.3,17.5c0.9,1.6,0.8,2.5-0.6,3.8c-4.5,4.3-8.9,8.8-13.3,13.2c-3.1,3.1-3.1,5.1,0,8.3c7.8,7.9,15.7,15.8,23.6,23.6
	c3.1,3,5.2,3,8.3-0.1c4.3-4.2,8.5-8.4,12.7-12.7c1.5-1.5,2.6-2,4.6-0.8c5.3,3.1,10.9,5.5,16.9,6.9c2.3,0.6,2.8,1.7,2.8,3.9
	c-0.1,6-0.1,12,0,18c0,4.5,1.5,6,6.1,6c11,0,22,0,33,0c4.4,0,5.9-1.5,5.9-5.8c0-6.1,0.1-12.2,0-18.4c-0.1-2.1,0.6-3.1,2.6-3.6
	c6-1.6,11.8-4,17.2-7.1c2-1.2,3-0.6,4.3,0.8c4.2,4.3,8.4,8.5,12.7,12.7c3.3,3.2,5.4,3.3,8.6,0.1c7.8-7.7,15.6-15.5,23.3-23.3
	c3.3-3.3,3.2-5.2,0-8.5c-4.3-4.4-8.6-8.7-13-12.9c-1.4-1.4-1.5-2.4-0.6-4.1c3.2-5.5,5.6-11.4,7.2-17.6c0.5-1.7,1.3-2.3,3.1-2.3
	c6.4,0.1,12.7,0.1,19.1,0c3.9,0,5.4-1.6,5.5-5.5C1000.5,473.4,1000.5,467.8,1000.5,462.2z M991.5,551.9c0,3.4,0,6.7,0,10.1
	c0,5.1,1.3,6.5,6.3,6.5c3.2,0,6.5,0,9.7,0c1.3,0,2.2,0,2.8,1.7c1.3,3.8,4.4,7.6,4,11c-0.4,3.7-5.2,6-7.9,9c-0.1,0.1-0.2,0.2-0.3,0.3
	c-2.8,3-2.9,5,0.1,8c3.9,4,7.9,8,11.9,11.9c7.4,7.4,7.4,7.4,14.7,0.1c5.3-5.3,5.3-5.3,12.2-2.5c1.4,0.6,2.8,1.3,4.2,1.5
	c2,0.3,2.3,1.4,2.2,3.1c-0.1,3.5-0.1,7,0,10.5c0.1,3.8,1.6,5.4,5.5,5.4c7.2,0.1,14.5,0,21.7,0c4.1,0,5.7-1.5,5.7-5.6
	c0.1-3.5,0-7,0-10.5c0-1.3,0-2.2,1.7-2.8c3.8-1.3,7.6-4.4,11-4c3.7,0.4,5.9,5.3,9,8c0.1,0.1,0.2,0.2,0.3,0.3c3,2.8,5.1,2.9,8-0.1
	c4-3.9,7.9-8,11.9-11.9c7.4-7.4,7.4-7.4,0.1-14.7c-5.4-5.4-5.4-5.4-2.6-12.2c0.6-1.4,1.3-2.8,1.5-4.2c0.3-1.9,1.3-2.3,3.1-2.3
	c3.5,0.1,7,0.1,10.5,0c3.8-0.1,5.4-1.6,5.4-5.5c0.1-7.2,0-14.5,0-21.7c0-4.1-1.5-5.7-5.6-5.7c-3.5,0-7-0.1-10.5,0
	c-1.6,0-2.3-0.4-2.9-2.1c-1.2-3.8-4.5-7.7-3.8-11c0.7-3.3,5.1-5.8,7.9-8.7c0.1-0.1,0.2-0.2,0.3-0.3c2.8-3,2.8-5.1-0.1-8.1
	c-3.9-3.9-7.8-7.8-11.7-11.6c-7.6-7.6-7.6-7.6-15.2-0.1c-5.1,5.1-5.1,5.1-11.6,2.5c-1.5-0.6-3-1.4-4.5-1.7c-1.9-0.3-2.3-1.4-2.3-3.1
	c0.1-3.5,0.1-7,0-10.5c-0.1-3.9-1.6-5.4-5.5-5.4c-7.4-0.1-14.7-0.1-22.1,0c-3.8,0-5.3,1.6-5.4,5.6c-0.1,3.5-0.1,7,0,10.5
	c0,1.6-0.3,2.3-2,2.9c-3.8,1.2-7.7,4.5-11,3.9c-3.3-0.7-5.8-5.1-8.7-7.9c-0.1-0.1-0.2-0.2-0.3-0.3c-3-2.8-5-2.8-8,0.1
	c-3.9,3.9-7.8,7.8-11.7,11.7c-7.6,7.6-7.6,7.6-0.1,15.2c5.1,5.1,5.1,5.1,2.4,11.6c-0.6,1.5-1.4,3-1.7,4.5c-0.3,2-1.4,2.3-3.1,2.3
	c-3.6-0.1-7.2-0.1-10.9,0c-3.4,0-5.1,1.8-5.1,5.1C991.5,544.4,991.5,548.1,991.5,551.9z"/>
<path class="st1" d="M960.4,649.5c49.6,0,99.2-0.1,148.8,0c24,0,42.1,18.7,41.2,42.3c-0.7,20.4-17.8,37.6-38.2,38.5
	c-1.2,0.1-2.5,0.1-3.7,0.1c-98.9,0-197.9,0-296.8,0c-18.2,0-33-9.8-39.2-25.9c-10.3-26.8,9.1-55,38.1-55c44.3-0.1,88.7,0,133,0
	C949.1,649.5,954.8,649.5,960.4,649.5z M793.6,699.7L793.6,699.7c9-8.5,17.7-17.2,26.2-26.2l0,0c0.3-0.3,0.5-0.5,0.8-0.8
	c4.5-4.7,9-9.4,13.8-14.3c-10.3,0.5-20.7-1.1-30.9,0.8c-22.3,4.2-32.6,31.9-18.4,49.4c2.6-2.7,5.2-5.4,7.7-8.1
	C793.1,700.2,793.4,700,793.6,699.7z M985.4,671.1c-16.5,16.7-33,33.4-49.6,50.3c18.8,0,37.6,0,56.3,0c2.1,0,2.4-1,2.4-2.7
	c-0.1-15.6-0.1-31.2-0.1-46.8c0-3,0-6.1,0-9.7C991.1,665.5,988.3,668.3,985.4,671.1z M835.5,671.1c-14.5,14.8-29,29.5-43.6,44.4
	c5,3.5,10.9,5.9,17.4,5.9c8.1,0.1,16.3-0.6,24.3,0.2c9.8,1,16.7-2.3,23.3-9.6c12.6-13.8,26.2-26.7,39.4-40c4.2-4.5,8.4-9,12.6-13.4
	c0,0-0.2-0.1-0.4-0.1c-19.5,0-38.9,0-58.4,0c-1.5,0-2.6,0.4-3.6,1.4C842.8,663.7,839.1,667.4,835.5,671.1z M910.4,671.2
	c-15.9,15.8-31.9,31.7-47.8,47.5c-0.7,0.7-1.4,1.5-2.6,2.7c16.7,0,32.7-0.6,48.6,0.2c9.8,0.5,16.6-2.4,23.3-9.7
	c12.6-13.8,26.2-26.7,39.4-40c4.3-4.5,8.5-8.9,12.7-13.3c0.1,0.1-0.1-0.2-0.3-0.2c-19.7,0-39.4,0-59.2-0.1c-1.2,0-2.1,0.3-2.9,1.2
	C918,663.5,914.2,667.3,910.4,671.2z M1003.6,671.9c0,15.7,0,31.5-0.2,47.2c0,2.2,1,2.3,2.7,2.3c11.6-0.1,23.2,0,34.9,0
	c23.2,0,46.5,0.2,69.7-0.1c12.5-0.2,22-6.4,27.5-17.6c5.3-10.9,4.5-21.7-2.7-31.8c-6.3-9.2-15.2-13.4-26.1-13.4
	c-31.1-0.1-62.1-0.1-93.2,0c-4.2,0-10.1-1.9-12.1,0.8C1002,662,1003.6,667.6,1003.6,671.9z"/>
<path class="st2" d="M1000.5,462.2c0,5.6,0,11.2,0,16.9c0,3.9-1.6,5.4-5.5,5.5c-6.4,0.1-12.7,0.1-19.1,0c-1.8,0-2.6,0.6-3.1,2.3
	c-1.6,6.2-4.1,12-7.2,17.6c-1,1.7-0.9,2.7,0.6,4.1c4.4,4.2,8.7,8.6,13,12.9c3.3,3.3,3.3,5.3,0,8.5c-7.7,7.8-15.5,15.6-23.3,23.3
	c-3.2,3.2-5.3,3.1-8.6-0.1c-4.3-4.2-8.5-8.4-12.7-12.7c-1.4-1.4-2.4-2-4.3-0.8c-5.4,3.2-11.2,5.5-17.2,7.1c-2.1,0.5-2.7,1.5-2.6,3.6
	c0.2,6.1,0.1,12.2,0,18.4c0,4.3-1.5,5.8-5.9,5.8c-11,0-22,0-33,0c-4.6,0-6.1-1.4-6.1-6c0-6-0.1-12,0-18c0-2.2-0.4-3.3-2.8-3.9
	c-5.9-1.5-11.6-3.9-16.9-6.9c-2.1-1.2-3.2-0.7-4.6,0.8c-4.1,4.3-8.4,8.5-12.7,12.7c-3.1,3.1-5.2,3.1-8.3,0.1
	c-7.9-7.8-15.7-15.7-23.6-23.6c-3.1-3.1-3.1-5.1,0-8.3c4.4-4.4,8.8-8.9,13.3-13.2c1.3-1.3,1.5-2.2,0.6-3.8
	c-3.2-5.5-5.6-11.4-7.3-17.5c-0.5-1.9-1.4-2.5-3.3-2.5c-6.2,0.1-12.5,0.1-18.7,0c-4.1,0-5.7-1.5-5.7-5.6c0-11.2,0-22.5,0-33.7
	c0-4.1,1.6-5.6,5.7-5.6c6.2,0,12.5-0.1,18.7,0c2,0,2.8-0.6,3.3-2.5c1.6-6.2,4.1-12,7.3-17.5c0.9-1.6,0.7-2.5-0.6-3.8
	c-4.5-4.3-8.9-8.8-13.3-13.2c-3.1-3.1-3.1-5.1,0-8.3c7.8-7.9,15.7-15.7,23.6-23.6c3.1-3.1,5.1-3.1,8.3,0.1c4.4,4.3,8.7,8.6,13,13
	c1.3,1.4,2.3,1.8,4,0.8c5.5-3.2,11.4-5.7,17.5-7.2c2-0.5,2.5-1.5,2.4-3.4c-0.1-6.2-0.1-12.5,0-18.7c0-4.1,1.6-5.6,5.7-5.6
	c11.2,0,22.5,0,33.7,0c4,0,5.5,1.6,5.6,5.7c0,6.1,0.1,12.2,0,18.4c-0.1,2.1,0.5,3.1,2.6,3.6c6,1.6,11.8,4,17.2,7.1
	c2,1.1,3,0.7,4.4-0.8c4.1-4.3,8.4-8.5,12.7-12.7c3.4-3.4,5.3-3.4,8.8,0.1c7.7,7.7,15.4,15.3,23,23.1c3.3,3.3,3.3,5.3,0.1,8.5
	c-4.3,4.4-8.6,8.7-13,13c-1.4,1.3-1.7,2.3-0.7,4.1c3.2,5.5,5.6,11.4,7.2,17.6c0.5,2,1.6,2.4,3.4,2.4c6-0.1,12-0.1,18,0
	c4.9,0,6.3,1.4,6.3,6.2C1000.5,451.2,1000.5,456.7,1000.5,462.2z M879,565.4c6.6,0,13.2,0,19.8,0.2c2.1,0.1,2.7-0.5,2.7-2.7
	c-0.1-5.9,0-11.7-0.1-17.6c-0.1-3.3,1.3-5.2,4.4-5.9c8.6-1.9,16.6-5.2,24.1-9.9c2.8-1.8,5.1-1.4,7.3,0.9c4,4.1,8.2,8.1,12.1,12.2
	c1.6,1.7,2.5,2,4.3,0.1c4.9-5.2,9.9-10.2,15.1-15.1c1.8-1.7,1.4-2.6-0.1-4.1c-4.2-4-8.1-8.2-12.2-12.1c-2.5-2.4-2.8-4.7-1-7.6
	c4.6-7.3,7.9-15.2,9.8-23.7c0.7-3.4,2.7-4.7,6.1-4.6c5.9,0.1,11.7,0,17.6,0.1c2,0,2.5-0.5,2.5-2.5c-0.1-7.4-0.1-14.7,0-22.1
	c0-2-0.6-2.5-2.5-2.5c-5.9,0.1-11.7-0.1-17.6,0.1c-3.4,0.1-5.4-1.3-6.1-4.6c-1.9-8.5-5.1-16.4-9.8-23.7c-1.9-2.9-1.5-5.2,1-7.6
	c4.2-4.1,8.3-8.3,12.5-12.4c1.3-1.3,1.6-2.1,0.1-3.5c-5.3-5.1-10.5-10.3-15.6-15.6c-1.6-1.6-2.4-1.3-3.8,0.1
	c-4,4.2-8.2,8.1-12.1,12.3c-2.5,2.6-4.9,2.9-7.9,1c-7.2-4.6-15-7.8-23.4-9.6c-3.3-0.7-4.9-2.5-4.8-6c0.1-5.2,0-10.5-0.1-15.7
	c0.7-3.3,0-4.8-4-4.6c-6.7,0.4-13.5,0.2-20.2,0.1c-2.1,0-2.8,0.5-2.7,2.6c0.2,5.9,0,11.7,0.1,17.6c0.1,3.3-1.3,5.2-4.4,5.9
	c-8.6,1.9-16.6,5.2-24.1,9.9c-2.8,1.7-5,1.4-7.3-0.9c-4.1-4.2-8.3-8.3-12.4-12.5c-1.4-1.4-2.2-1.8-3.8-0.1
	c-5.1,5.3-10.3,10.5-15.6,15.6c-1.5,1.4-1.2,2.2,0.1,3.5c4.2,4.1,8.3,8.3,12.5,12.4c2.5,2.4,2.8,4.7,1,7.6
	c-4.6,7.3-7.9,15.2-9.8,23.7c-0.7,3.4-2.7,4.7-6.1,4.6c-5.9-0.1-11.7,0-17.6-0.1c-2,0-2.5,0.5-2.5,2.5c0.1,7.4,0.1,14.7,0,22.1
	c0,2,0.5,2.5,2.5,2.5c5.9-0.1,11.7,0.1,17.6-0.1c3.4-0.1,5.4,1.3,6.1,4.6c1.9,8.5,5.1,16.4,9.8,23.7c1.9,2.9,1.5,5.3-1,7.6
	c-4.2,4.1-8.3,8.3-12.5,12.4c-1.4,1.3-1.6,2.1-0.1,3.5c5.3,5.1,10.5,10.3,15.6,15.6c1.6,1.6,2.4,1.3,3.8-0.1
	c4.1-4.2,8.3-8.3,12.4-12.5c2.3-2.4,4.5-2.6,7.3-0.9c7.5,4.6,15.5,8,24.1,9.9c2.9,0.7,4.5,2.4,4.4,5.6c-0.1,5.5,0.3,11-0.1,16.5
	C874.1,565.4,875.7,566.1,879,565.4z"/>
<path class="st2" d="M991.5,551.9c0-3.7,0-7.5,0-11.2c0-3.3,1.7-5.1,5.1-5.1c3.6,0,7.2-0.1,10.9,0c1.7,0,2.8-0.3,3.1-2.3
	c0.3-1.6,1.1-3,1.7-4.5c2.7-6.5,2.7-6.5-2.4-11.6c-7.5-7.6-7.5-7.6,0.1-15.2c3.9-3.9,7.7-7.8,11.7-11.7c3-2.9,5-2.9,8-0.1
	c0.1,0.1,0.2,0.2,0.3,0.3c2.9,2.8,5.4,7.2,8.7,7.9c3.2,0.7,7.2-2.6,11-3.9c1.7-0.6,2.1-1.3,2-2.9c-0.1-3.5-0.1-7,0-10.5
	c0.1-3.9,1.6-5.5,5.4-5.6c7.4-0.1,14.7-0.1,22.1,0c3.9,0,5.4,1.6,5.5,5.4c0.1,3.5,0.1,7,0,10.5c0,1.7,0.3,2.8,2.3,3.1
	c1.6,0.3,3,1.1,4.5,1.7c6.4,2.7,6.4,2.7,11.6-2.5c7.6-7.6,7.6-7.5,15.2,0.1c3.9,3.9,7.8,7.7,11.7,11.6c2.9,3,2.9,5.1,0.1,8.1
	c-0.1,0.1-0.2,0.2-0.3,0.3c-2.8,2.9-7.2,5.4-7.9,8.7c-0.7,3.2,2.6,7.2,3.8,11c0.5,1.7,1.3,2.1,2.9,2.1c3.5-0.1,7-0.1,10.5,0
	c4.1,0.1,5.6,1.6,5.6,5.7c0,7.2,0,14.5,0,21.7c0,3.9-1.6,5.4-5.4,5.5c-3.5,0.1-7,0.1-10.5,0c-1.8-0.1-2.7,0.4-3.1,2.3
	c-0.3,1.4-1,2.8-1.5,4.2c-2.8,6.8-2.8,6.8,2.6,12.2c7.3,7.3,7.3,7.3-0.1,14.7c-4,4-7.9,8-11.9,11.9c-3,2.9-5.1,2.9-8,0.1
	c-0.1-0.1-0.2-0.2-0.3-0.3c-3.1-2.7-5.3-7.5-9-8c-3.5-0.4-7.3,2.8-11,4c-1.7,0.6-1.7,1.5-1.7,2.8c0,3.5,0,7,0,10.5
	c-0.1,4.1-1.6,5.6-5.7,5.6c-7.2,0-14.5,0-21.7,0c-3.9,0-5.4-1.6-5.5-5.4c-0.1-3.5-0.1-7,0-10.5c0-1.7-0.3-2.8-2.2-3.1
	c-1.4-0.2-2.8-0.9-4.2-1.5c-6.9-2.8-6.9-2.8-12.2,2.5c-7.3,7.3-7.3,7.3-14.7-0.1c-4-4-8-7.9-11.9-11.9c-2.9-3-2.9-5-0.1-8
	c0.1-0.1,0.2-0.2,0.3-0.3c2.7-3,7.5-5.3,7.9-9c0.4-3.5-2.8-7.3-4-11c-0.6-1.7-1.5-1.7-2.8-1.7c-3.2,0-6.5,0-9.7,0
	c-5,0-6.3-1.4-6.3-6.5C991.5,558.6,991.5,555.2,991.5,551.9z M1075.4,491.9c0-1.4-0.2-2.8,0-4.1c0.4-2.6-0.6-3.5-3.2-3.3
	c-3,0.2-6,0.2-9,0c-2.4-0.2-3,0.7-2.8,3c0.2,3,0,6,0.1,9c0.1,2.9-1.2,4.7-4,5.4c-5.6,1.4-10.9,3.5-15.8,6.6c-2.5,1.6-4.7,1-6.7-1.1
	c-2.2-2.3-4.6-4.6-6.9-6.9c-1.1-1.2-1.9-1.2-3,0c-2.4,2.5-4.9,5-7.4,7.4c-1.5,1.4-1.3,2.3,0.1,3.6c2.3,2.1,4.4,4.4,6.7,6.6
	c2.1,2,2.5,4.2,1,6.7c-3,4.9-5.2,10.2-6.5,15.8c-0.7,2.9-2.6,4-5.5,4c-3.2-0.1-6.5,0.1-9.7,0c-1.6-0.1-2.2,0.5-2.1,2.1
	c0.1,3.5,0.2,7,0,10.5c-0.1,2.1,0.7,2.5,2.6,2.4c3.1-0.1,6.2,0,9.4,0c2.9-0.1,4.7,1.2,5.4,4.1c1.3,5.6,3.5,10.9,6.6,15.8
	c1.4,2.3,1.2,4.5-0.8,6.4c-2.4,2.4-4.7,4.8-7.2,7.1c-1.2,1.1-1.2,1.9,0,3c2.5,2.4,5,4.9,7.4,7.4c1.4,1.5,2.3,1.3,3.6-0.1
	c2.1-2.3,4.4-4.4,6.6-6.7c2-2.1,4.2-2.5,6.7-1c4.8,3,10,5.1,15.5,6.4c3,0.7,4.4,2.5,4.3,5.6c-0.1,3.2,0.1,6.5,0,9.7
	c-0.1,1.6,0.5,2.2,2.1,2.1c3.5-0.1,7-0.2,10.5,0c2.1,0.1,2.5-0.7,2.4-2.6c-0.1-3.2,0-6.5,0-9.7c0-2.6,1.1-4.3,3.7-4.9
	c5.7-1.4,11.2-3.5,16.2-6.7c2.5-1.6,4.7-1,6.7,1.1c2.2,2.3,4.6,4.6,6.9,6.9c1.1,1.2,1.9,1.2,3,0c2.4-2.5,4.9-5,7.4-7.4
	c1.5-1.4,1.3-2.3-0.1-3.6c-2.3-2.1-4.4-4.4-6.7-6.6c-2.1-2-2.6-4.2-1-6.7c3-4.9,5.2-10.2,6.5-15.8c0.7-2.9,2.6-4.1,5.5-4
	c3.2,0.1,6.5-0.1,9.7,0c1.6,0,2.2-0.4,2.2-2.1c-0.1-3.5-0.2-7,0-10.5c0.1-2.1-0.7-2.5-2.6-2.5c-3.1,0.1-6.2,0-9.4,0
	c-2.9,0.1-4.7-1.1-5.4-4c-1.4-5.6-3.5-10.9-6.6-15.8c-1.6-2.5-1.1-4.7,1.1-6.7c2.4-2.2,4.6-4.6,6.9-6.9c1.2-1.1,1.2-1.9,0-3
	c-2.5-2.4-5-4.9-7.4-7.4c-1.4-1.5-2.3-1.3-3.6,0.1c-1.9,2.1-4.1,4-6,6.1c-2.4,2.6-4.8,3.2-7.9,1.2c-4.4-2.9-9.3-4.8-14.4-6
	c-3.4-0.8-4.9-2.6-4.7-6C1075.5,494.6,1075.5,493.3,1075.4,491.9z"/>
<path class="st3" d="M1135.5,671.9c7.2,10.1,7.9,20.9,2.7,31.8c-5.5,11.3-15,17.5-27.5,17.6c-23.2,0.3-46.5,0.1-69.7,0.1
	c-11.6,0-23.2,0-34.9,0c-1.7,0-2.7-0.1-2.7-2.3c0.1-15.7,0.1-31.5,0.2-47.2c33.1,0,66.2,0,99.3,0c8.7,0,17.5,0.1,26.2-0.1
	C1131.2,671.8,1133.4,673.8,1135.5,671.9z"/>
<path class="st4" d="M971.3,672c-13.2,13.3-26.8,26.2-39.4,40c-6.6,7.2-13.4,10.2-23.3,9.7c-15.9-0.9-31.9-0.2-48.6-0.2
	c1.2-1.2,1.9-2,2.6-2.7c15.9-15.8,31.8-31.7,47.8-47.5c1.2,1.3,2.8,0.8,4.2,0.8C933.5,672,952.4,672,971.3,672z"/>
<path class="st5" d="M896.4,672c-13.2,13.3-26.8,26.2-39.4,40c-6.6,7.3-13.5,10.6-23.3,9.6c-8-0.9-16.2-0.1-24.3-0.2
	c-6.6-0.1-12.4-2.4-17.4-5.9c14.6-14.8,29.1-29.6,43.6-44.4c1.2,1.4,2.8,0.8,4.2,0.8C858.6,672,877.5,672,896.4,672z"/>
<path class="st5" d="M994.4,671.9c0,15.6,0.1,31.2,0.1,46.8c0,1.8-0.3,2.7-2.4,2.7c-18.7-0.1-37.4,0-56.3,0
	c16.6-16.9,33.1-33.6,49.6-50.3C988.3,672.9,991.4,671.6,994.4,671.9z"/>
<path class="st6" d="M1135.5,671.9c-2.1,1.9-4.2-0.1-6.4,0c-8.7,0.2-17.5,0.1-26.2,0.1c-33.1,0-66.2,0-99.3,0
	c0-4.3-1.6-9.9,0.5-12.7c2-2.6,7.9-0.7,12.1-0.8c31.1-0.1,62.1-0.1,93.2,0C1120.3,658.5,1129.2,662.7,1135.5,671.9z"/>
<path class="st7" d="M792.9,700.5c-2.6,2.7-5.1,5.4-7.7,8.1c-14.2-17.4-3.9-45.1,18.4-49.4c10.2-1.9,20.6-0.4,30.9-0.8
	c-4.7,4.9-9.3,9.6-13.8,14.3c-0.3,0.3-0.5,0.5-0.8,0.8c0,0,0,0,0,0c-9.2,1-15.6,6.6-20.9,13.5c-2.9,3.7-5.3,7.8-5.4,12.8
	c0,0,0,0,0,0C793.4,700,793.1,700.2,792.9,700.5z"/>
<path class="st8" d="M896.4,672c-18.9,0-37.8,0-56.7-0.1c-1.4,0-3,0.6-4.2-0.8c3.7-3.7,7.4-7.4,11-11.2c1-1.1,2.2-1.5,3.6-1.4
	c19.5,0,38.9,0,58.4,0c0.2,0,0.4,0.1,0.4,0.1C904.8,663,900.6,667.5,896.4,672z"/>
<path class="st7" d="M971.3,672c-18.9,0-37.8,0-56.7-0.1c-1.4,0-3,0.6-4.2-0.8c3.7-3.8,7.5-7.6,11.2-11.5c0.8-0.9,1.7-1.2,2.9-1.2
	c19.7,0,39.4,0,59.2,0.1c0.2,0,0.4,0.2,0.3,0.2C979.8,663.1,975.6,667.5,971.3,672z"/>
<path class="st4" d="M793.6,699.7c0.1-5,2.5-9.1,5.4-12.8c5.3-6.9,11.7-12.5,20.9-13.5C811.4,682.5,802.6,691.3,793.6,699.7z"/>
<path class="st8" d="M994.4,671.9c-3-0.4-6.1,0.9-8.9-0.8c2.9-2.8,5.7-5.7,8.9-8.9C994.4,665.8,994.4,668.9,994.4,671.9z"/>
<path class="st4" d="M819.8,673.5c0.3-0.3,0.5-0.5,0.8-0.8C820.4,673,820.1,673.3,819.8,673.5z"/>
<path class="st4" d="M792.9,700.5c0.3-0.3,0.5-0.5,0.8-0.8C793.4,700,793.1,700.2,792.9,700.5z"/>
<path class="st9" d="M901.4,363.1c0,5.2,0.2,10.5,0.1,15.7c-0.1,3.5,1.5,5.3,4.8,6c8.3,1.9,16.2,5,23.4,9.6c3,1.9,5.5,1.7,7.9-1
	c4-4.2,8.2-8.1,12.1-12.3c1.4-1.4,2.2-1.8,3.8-0.1c5.1,5.3,10.3,10.5,15.6,15.6c1.5,1.4,1.2,2.2-0.1,3.5c-4.2,4.1-8.3,8.3-12.5,12.4
	c-2.5,2.4-2.8,4.7-1,7.6c4.6,7.3,7.9,15.2,9.8,23.7c0.7,3.4,2.7,4.7,6.1,4.6c5.9-0.1,11.7,0,17.6-0.1c1.9,0,2.5,0.5,2.5,2.5
	c-0.1,7.4-0.1,14.7,0,22.1c0,2-0.5,2.5-2.5,2.5c-5.9-0.1-11.7,0.1-17.6-0.1c-3.4-0.1-5.4,1.3-6.1,4.6c-1.9,8.5-5.1,16.4-9.8,23.7
	c-1.9,2.9-1.5,5.2,1,7.6c4.2,4,8.1,8.2,12.2,12.1c1.6,1.5,1.9,2.3,0.1,4.1c-5.2,4.9-10.2,9.9-15.1,15.1c-1.8,1.9-2.7,1.5-4.3-0.1
	c-4-4.2-8.1-8.1-12.1-12.2c-2.3-2.3-4.5-2.7-7.3-0.9c-7.4,4.7-15.5,8-24.1,9.9c-3.2,0.7-4.5,2.6-4.4,5.9c0.1,5.9-0.1,11.7,0.1,17.6
	c0.1,2.1-0.6,2.7-2.7,2.7c-6.6-0.2-13.2-0.1-19.8-0.2c0-8.6,0-17.2,0-25.9c0-1.4,0.4-2.9-1.9-3.3c-12.2-2.1-23.4-6.7-33.6-13.7
	c-1.8-1.2-2.7-0.9-4.1,0.5c-4.2,4.3-8.5,8.4-12.7,12.8c-1.7,1.8-2.9,2.2-4.8,0.2c-2.5-2.8-5.1-5.5-7.9-7.9c-2-1.8-1.5-2.9,0.1-4.5
	c4.3-4.2,8.4-8.5,12.8-12.6c1.7-1.6,1.8-2.9,0.5-4.8c-7.2-9.7-11.2-20.8-13.5-32.5c-0.4-2.2-1.3-2.6-3.2-2.5
	c-6.1,0.1-12.2-0.1-18.4,0.1c-2.7,0.1-3.5-0.8-3.4-3.4c0.2-3.7,0.2-7.5,0-11.2c-0.1-2.6,0.8-3.5,3.4-3.4c6.1,0.2,12.2,0,18.4,0.1
	c1.6,0,2.7,0,3.1-2.2c2.3-12,6.4-23.3,13.8-33.2c1.2-1.6,1-2.8-0.5-4.2c-4.4-4.2-8.6-8.7-13-12.9c-1.7-1.6-2-2.8-0.1-4.5
	c2.7-2.4,5.3-5,7.7-7.7c1.8-2.1,3.1-2.2,5-0.1c4.1,4.4,8.5,8.5,12.6,12.8c1.4,1.4,2.3,1.6,4.1,0.4c10-6.8,21-11.4,32.9-13.6
	c2.4-0.4,2.7-1.5,2.7-3.4c-0.1-5.7,0.2-11.5-0.1-17.2c-0.2-3.6,1.1-4.4,4.5-4.3C889.4,363.2,895.4,363.1,901.4,363.1z M835.6,462.2
	c0,28.6,23.6,52.3,52.2,52.3c29.1,0.1,52.8-23.4,52.8-52.5c0-29.1-23.5-52.5-52.7-52.5C859,409.5,835.6,433.2,835.6,462.2z"/>
<path class="st10" d="M901.4,363.1c-6,0-12,0.2-18-0.1c-3.3-0.1-4.7,0.7-4.5,4.3c0.3,5.7,0,11.5,0.1,17.2c0,2-0.3,3-2.7,3.4
	c-11.9,2.1-22.9,6.7-32.9,13.6c-1.8,1.2-2.7,1-4.1-0.4c-4.2-4.3-8.6-8.4-12.6-12.8c-2-2.1-3.2-2-5,0.1c-2.4,2.7-5,5.3-7.7,7.7
	c-1.9,1.7-1.6,2.9,0.1,4.5c4.4,4.2,8.6,8.7,13,12.9c1.5,1.4,1.6,2.6,0.5,4.2c-7.4,9.9-11.5,21.2-13.8,33.2c-0.4,2.2-1.5,2.2-3.1,2.2
	c-6.1,0-12.2,0.1-18.4-0.1c-2.6-0.1-3.5,0.8-3.4,3.4c0.2,3.7,0.2,7.5,0,11.2c-0.1,2.6,0.7,3.5,3.4,3.4c6.1-0.2,12.2,0,18.4-0.1
	c1.9,0,2.7,0.4,3.2,2.5c2.3,11.7,6.3,22.8,13.5,32.5c1.4,1.8,1.2,3.1-0.5,4.8c-4.4,4.1-8.5,8.5-12.8,12.6c-1.7,1.6-2.1,2.7-0.1,4.5
	c2.8,2.5,5.5,5.1,7.9,7.9c1.9,2.1,3.1,1.6,4.8-0.2c4.1-4.3,8.5-8.5,12.7-12.8c1.3-1.4,2.3-1.7,4.1-0.5c10.2,7,21.4,11.6,33.6,13.7
	c2.3,0.4,1.9,1.9,1.9,3.3c0,8.6,0,17.2,0,25.9c-3.3,0.7-4.9,0-4.6-4c0.4-5.5,0-11,0.1-16.5c0-3.2-1.5-4.9-4.4-5.6
	c-8.6-1.9-16.6-5.3-24.1-9.9c-2.8-1.7-5-1.5-7.3,0.9c-4.1,4.2-8.3,8.3-12.4,12.5c-1.4,1.4-2.2,1.8-3.8,0.1
	c-5.1-5.3-10.3-10.5-15.6-15.6c-1.5-1.4-1.3-2.2,0.1-3.5c4.2-4.1,8.3-8.3,12.5-12.4c2.5-2.4,2.8-4.7,1-7.6
	c-4.6-7.3-7.9-15.2-9.8-23.7c-0.7-3.4-2.7-4.7-6.1-4.6c-5.9,0.1-11.7,0-17.6,0.1c-2,0-2.5-0.5-2.5-2.5c0.1-7.4,0.1-14.7,0-22.1
	c0-2,0.5-2.5,2.5-2.5c5.9,0.1,11.7-0.1,17.6,0.1c3.4,0.1,5.4-1.3,6.1-4.6c1.9-8.5,5.1-16.4,9.8-23.7c1.9-2.9,1.5-5.3-1-7.6
	c-4.2-4.1-8.3-8.3-12.5-12.4c-1.3-1.3-1.6-2.1-0.1-3.5c5.3-5.1,10.5-10.3,15.6-15.6c1.6-1.6,2.4-1.3,3.8,0.1
	c4.1,4.2,8.3,8.3,12.4,12.5c2.3,2.4,4.5,2.6,7.3,0.9c7.5-4.7,15.5-8,24.1-9.9c3.2-0.7,4.5-2.7,4.4-5.9c-0.1-5.9,0.1-11.7-0.1-17.6
	c-0.1-2.2,0.6-2.7,2.7-2.6c6.7,0.1,13.5,0.3,20.2-0.1C901.4,358.2,902.1,359.8,901.4,363.1z"/>
<path class="st11" d="M1075.4,491.9c0,1.4,0.1,2.8,0,4.1c-0.2,3.4,1.3,5.3,4.7,6c5.1,1.2,10,3.1,14.4,6c3.1,2,5.5,1.5,7.9-1.2
	c1.9-2.1,4.1-4,6-6.1c1.3-1.4,2.2-1.6,3.6-0.1c2.4,2.6,4.9,5,7.4,7.4c1.2,1.1,1.2,1.9,0,3c-2.4,2.2-4.6,4.6-6.9,6.9
	c-2.1,2-2.6,4.2-1.1,6.7c3,4.9,5.2,10.2,6.6,15.8c0.7,2.9,2.5,4.1,5.4,4c3.1-0.1,6.2,0.1,9.4,0c1.9-0.1,2.7,0.4,2.6,2.5
	c-0.2,3.5-0.1,7,0,10.5c0.1,1.7-0.5,2.2-2.2,2.1c-3.2-0.1-6.5,0-9.7,0c-2.9-0.1-4.8,1.1-5.5,4c-1.4,5.6-3.5,10.9-6.5,15.8
	c-1.6,2.5-1.1,4.7,1,6.7c2.3,2.2,4.4,4.5,6.7,6.6c1.4,1.3,1.6,2.2,0.1,3.6c-2.6,2.4-5,4.9-7.4,7.4c-1.1,1.2-1.9,1.2-3,0
	c-2.2-2.4-4.6-4.6-6.9-6.9c-2-2.1-4.2-2.6-6.7-1.1c-5,3.1-10.4,5.3-16.2,6.7c-2.5,0.6-3.7,2.4-3.7,4.9c0,3.2-0.1,6.5,0,9.7
	c0.1,1.9-0.4,2.7-2.4,2.6c-3.5-0.2-7-0.1-10.5,0c-1.6,0-2.2-0.5-2.1-2.1c0.1-3.2,0-6.5,0-9.7c0.1-3.1-1.3-4.9-4.3-5.6
	c-5.5-1.3-10.7-3.5-15.5-6.4c-2.5-1.5-4.7-1.1-6.7,1c-2.2,2.3-4.5,4.4-6.6,6.7c-1.3,1.4-2.2,1.6-3.6,0.1c-2.4-2.6-4.9-5-7.4-7.4
	c-1.2-1.1-1.2-1.9,0-3c2.5-2.3,4.8-4.8,7.2-7.1c2-1.9,2.3-4.1,0.8-6.4c-3-4.9-5.2-10.2-6.6-15.8c-0.7-2.9-2.5-4.1-5.4-4.1
	c-3.1,0.1-6.2-0.1-9.4,0c-1.9,0.1-2.7-0.3-2.6-2.4c0.2-3.5,0.1-7,0-10.5c0-1.6,0.5-2.2,2.1-2.1c3.2,0.1,6.5,0,9.7,0
	c2.9,0.1,4.8-1.1,5.5-4c1.4-5.6,3.5-10.9,6.5-15.8c1.5-2.5,1.1-4.7-1-6.7c-2.3-2.2-4.4-4.5-6.7-6.6c-1.4-1.3-1.6-2.2-0.1-3.6
	c2.6-2.4,5-4.9,7.4-7.4c1.1-1.2,1.9-1.2,3,0c2.2,2.4,4.6,4.6,6.9,6.9c2,2.1,4.2,2.6,6.7,1.1c4.9-3,10.2-5.2,15.8-6.6
	c2.9-0.7,4.1-2.5,4-5.4c-0.1-3,0.1-6-0.1-9c-0.1-2.2,0.4-3.2,2.8-3c3,0.2,6,0.2,9,0c2.7-0.2,3.6,0.7,3.2,3.3
	C1075.3,489.1,1075.4,490.5,1075.4,491.9z M1108.4,552.1c0.1-22.4-18-40.5-40.3-40.6c-22.1-0.1-40.5,17.9-40.6,39.9
	c-0.1,22.7,18,41.1,40.7,41C1090.2,592.5,1108.4,574.3,1108.4,552.1z"/>
<path class="st2" d="M835.6,462.2c0-29,23.5-52.7,52.2-52.7c29.2,0,52.7,23.4,52.7,52.5c0,29-23.6,52.5-52.8,52.5
	C859.1,514.5,835.5,490.8,835.6,462.2z M931.5,461.9c0-24-19.7-43.4-43.8-43.3c-23.5,0.1-43.1,19.7-43.1,43.3
	c0,24.1,19.5,43.7,43.4,43.7C912.1,505.4,931.5,485.9,931.5,461.9z"/>
<path class="st2" d="M1108.4,552.1c-0.1,22.1-18.2,40.3-40.3,40.3c-22.7,0-40.8-18.3-40.7-41c0.1-22,18.5-40.1,40.6-39.9
	C1090.5,511.6,1108.5,529.8,1108.4,552.1z M1099.4,551.9c0-17.3-14.2-31.4-31.5-31.4c-17.5,0.1-31.5,14.2-31.5,31.8
	c0.1,17.2,14.4,31.3,31.7,31.2C1085.5,583.4,1099.5,569.2,1099.4,551.9z"/>
<path class="st12" d="M931.5,461.9c0,24.1-19.4,43.6-43.5,43.6c-24,0.1-43.5-19.5-43.4-43.7c0-23.5,19.6-43.2,43.1-43.3
	C911.8,418.5,931.5,437.9,931.5,461.9z M888,427.5c-18.9,0-34.4,15.4-34.5,34.2c0,19.3,15.5,34.8,34.7,34.8
	c18.8,0,34.2-15.5,34.3-34.4C922.5,443,907.1,427.6,888,427.5z"/>
<path class="st13" d="M1099.4,551.9c0,17.3-14,31.5-31.3,31.6c-17.3,0.1-31.6-14-31.7-31.2c-0.1-17.5,14-31.7,31.5-31.8
	C1085.2,520.5,1099.4,534.6,1099.4,551.9z M1067.9,574.5c12.3,0.1,22.4-9.9,22.6-22.2c0.1-12.5-9.9-22.7-22.4-22.8
	c-12.3,0-22.5,9.9-22.6,22.2C1045.4,564.2,1055.4,574.4,1067.9,574.5z"/>
<path class="st2" d="M888,427.5c19.1,0,34.5,15.5,34.5,34.6c0,18.9-15.5,34.4-34.3,34.4c-19.2,0-34.7-15.5-34.7-34.8
	C853.6,442.9,869.2,427.5,888,427.5z M913.5,462.2c0.1-14.1-11.3-25.6-25.3-25.7c-14.1-0.1-25.6,11.3-25.7,25.3
	c-0.1,14,11.3,25.6,25.3,25.7C901.9,487.6,913.4,476.2,913.5,462.2z"/>
<path class="st2" d="M1067.9,574.5c-12.4-0.1-22.5-10.3-22.4-22.8c0.1-12.3,10.2-22.2,22.6-22.2c12.5,0,22.5,10.2,22.4,22.8
	C1090.3,564.5,1080.2,574.5,1067.9,574.5z M1081.4,551.9c0-7.5-6.2-13.5-13.6-13.4c-7.3,0.1-13.3,6.1-13.3,13.4
	c0,7.5,6,13.6,13.5,13.6C1075.4,565.5,1081.5,559.4,1081.4,551.9z"/>
<path class="st14" d="M913.5,462.2c-0.1,14-11.6,25.4-25.7,25.3c-14-0.1-25.4-11.6-25.3-25.7c0.1-14,11.6-25.4,25.7-25.3
	C902.2,436.6,913.6,448.1,913.5,462.2z"/>
<path class="st14" d="M1081.4,551.9c0,7.5-6,13.5-13.5,13.5c-7.4,0-13.5-6.1-13.5-13.6c0-7.3,6-13.3,13.3-13.4
	C1075.3,538.5,1081.4,544.5,1081.4,551.9z"/>
</svg>
