<svg xmlns="http://www.w3.org/2000/svg" width="48" height="48" id="box">
  <g fill-rule="evenodd" transform="translate(0 -1004.362)">
    <circle cx="24" cy="1028.362" r="24" fill="#50b748"></circle>
    <path fill="#fff" d="M-36.33 1019.87a.5.5 0 0 0-.008 0 .5.5 0 0 0-.05.01.5.5 0 0 0-.122.035l-11.562 4.945a.5.5 0 0 0-.363.266.5.5 0 0 0-.004.01.5.5 0 0 0-.051.34v14.886a.5.5 0 0 0 .004.061.5.5 0 0 0 0 .01.5.5 0 0 0 .006.031.5.5 0 0 0 .302.377l11.668 4.99a.5.5 0 0 0 .176.04.5.5 0 0 0 .022 0 .5.5 0 0 0 .002 0 .5.5 0 0 0 .015 0 .5.5 0 0 0 .02 0 .5.5 0 0 0 .031 0 .5.5 0 0 0 .148-.037l6.346-2.715a5.5 5.5 0 0 0 4.76 2.757c3.032 0 5.5-2.468 5.5-5.5 0-2.733-2.008-5-4.625-5.421v-9.444a.5.5 0 0 0-.084-.431.5.5 0 0 0-.34-.217l-11.557-4.944a.5.5 0 0 0-.13-.037.5.5 0 0 0-.014 0 .5.5 0 0 0-.037 0 .5.5 0 0 0-.053 0zm.027 1.043 2.452 1.047-10.39 4.443a.5.5 0 0 0-.028.014l-2.454-1.049 10.42-4.455zm3.725 1.592 2.973 1.271-10.584 4.526a.5.5 0 0 0-.3.529.5.5 0 0 0-.001.039v5.348l-1.084-1.626a.5.5 0 0 0-.64-.17l-1.276.637v-5.888l10.912-4.666zm4.242 1.814 2.453 1.049-10.42 4.457-2.45-1.049 10.388-4.443a.5.5 0 0 0 .03-.014zm-19.154 1.81 3 1.282v6.459a.5.5 0 0 0 .723.447l1.605-.803 1.728 2.592a.5.5 0 0 0 .499.268.5.5 0 0 0 .052-.01.5.5 0 0 0 .016 0 .5.5 0 0 0 .033-.01.5.5 0 0 0 .133-.066.5.5 0 0 0 .21-.475v-6.262l2.688 1.149v13.916l-10.687-4.572v-13.912zm22.375 0v8.747a5.506 5.506 0 0 0-5.229 4.258l-1.232.525-2.916 1.248a.5.5 0 0 0 .392.92l2.916-1.248.698-.297c0 .029-.004.058-.004.088 0 .644.118 1.26.322 1.834l-5.635 2.41v-13.916l10.688-4.568zm.125 9.74c2.491 0 4.5 2.01 4.5 4.5 0 2.492-2.009 4.5-4.5 4.5a4.492 4.492 0 0 1-4.5-4.5c0-2.49 2.009-4.5 4.5-4.5zm-6.406 1.753a.5.5 0 0 0-.18.043l-2.916 1.248a.5.5 0 1 0 .392.918l2.916-1.246a.5.5 0 0 0-.212-.963zm9.38.515a.5.5 0 0 0-.312.108l-3.879 2.96-1.307-1.6a.5.5 0 0 0-.775.632l1.92 2.35 4.648-3.547a.5.5 0 0 0-.295-.903z" color="#000" font-family="sans-serif" font-weight="400" overflow="visible" style="line-height:normal;text-indent:0;text-align:start;text-decoration-line:none;text-decoration-style:solid;text-decoration-color:#000;text-transform:none;block-progression:tb;isolation:auto;mix-blend-mode:normal" transform="translate(59.5 -4.51)"></path>
  </g>
</svg>
