<?xml version="1.0" encoding="utf-8"?>
<!-- Generator: Adobe Illustrator 25.0.0, SVG Export Plug-In . SVG Version: 6.00 Build 0)  -->
<svg version="1.1" id="Layer_1" xmlns="http://www.w3.org/2000/svg" xmlns:xlink="http://www.w3.org/1999/xlink" x="0px" y="0px"
	 viewBox="0 0 1920 1080" style="enable-background:new 0 0 1920 1080;" xml:space="preserve">
<g>
	<path d="M1028.2,647.3c1,0,2.1,0,3.2,0c21.6,0,43.2,0,64.8,0c15.4,0,27,11.5,27,26.9c0.1,36.8,0.1,73.6,0,110.4
		c0,15.8-11.6,27.1-27.4,27.1c-43.8,0-87.6,0-131.4,0c-9,0-16.3-3.4-21.9-10.4c-1.2-1.5-1.6-1.3-2.7,0c-5.6,7-12.9,10.4-21.9,10.4
		c-43.8-0.1-87.6,0-131.4,0c-15.8,0-27.3-11.4-27.3-27.2c0-36.7,0-73.4,0-110.1c0-15.6,11.5-27.1,27.1-27.1c21.1,0,42.2,0,63.3,0
		c1.6,0,3.2,0,4.7,0c0.6-1-0.2-1.4-0.6-1.9c-3.8-5-5.6-10.7-5.6-17c0-36.6,0-73.2,0-109.8c0-15.8,11.5-27.3,27.3-27.3
		c43.9,0,87.8,0,131.7,0c15.6,0,27.2,11.4,27.3,27c0.1,36.8,0,73.6,0,110.4c0,6.1-1.8,11.6-5.4,16.5
		C1028.5,645.7,1027.6,646.2,1028.2,647.3z M941.3,647.3c21.9,0,43.8,0,65.7,0c10.8,0,18.9-7.8,18.9-18.3c0.1-37,0.1-74,0-111
		c0-10.3-8.1-18.2-18.4-18.2c-13.6-0.1-27.2,0-40.8-0.1c-2.4,0-2.8,0.8-2.8,2.9c0.1,11.9,0.1,23.8,0,35.7c0,5-2.9,6.7-7.3,4.2
		c-4.2-2.4-8.5-4.9-12.7-7.4c-1.9-1.2-3.6-1.2-5.6,0c-4.1,2.5-8.2,4.9-12.4,7.3c-4.7,2.7-7.5,1-7.5-4.4c0-11.7-0.1-23.4,0-35.1
		c0-2.4-0.5-3.2-3.1-3.2c-12.8,0.1-25.6,0.1-38.4,0.1c-13.1,0-20.5,7.3-20.5,20.4c0,35.8,0,71.6,0,107.4c0,12.2,7.6,19.8,19.8,19.8
		C898.1,647.3,919.7,647.3,941.3,647.3z M852.4,803.3c21.8,0,43.6,0,65.4,0c11.4,0,19.2-7.8,19.3-19.2c0-36.4,0-72.8,0-109.2
		c0-11.2-7.9-19.1-19-19.2c-13.3,0-26.6,0.1-39.9-0.1c-2.5,0-3.2,0.7-3.2,3.2c0.1,11.8,0.1,23.6,0,35.4c0,5.2-2.8,6.8-7.4,4.1
		c-4-2.3-8-4.6-11.9-7c-2.3-1.5-4.4-1.4-6.7,0c-3.9,2.4-7.9,4.7-11.9,7c-4.7,2.7-7.5,1-7.5-4.4c0-11.7-0.1-23.4,0-35.1
		c0-2.4-0.5-3.2-3.1-3.2c-13,0.1-26,0.1-39,0.1c-12.3,0-19.8,7.5-19.8,19.8c0,36.1,0,72.2,0,108.3c0,11.9,7.6,19.5,19.5,19.5
		C809,803.3,830.7,803.3,852.4,803.3z M1029.8,803.3c21.7,0,43.4,0,65.1,0c12.1,0,19.7-7.5,19.7-19.6c0-36.3,0-72.6,0-108.9
		c0-11.3-7.7-19.1-19-19.1c-13.3,0-26.6,0.1-39.9-0.1c-2.6,0-3.1,0.9-3.1,3.3c0.1,11.8,0.1,23.6,0,35.4c0,5-2.9,6.6-7.2,4.2
		c-3.9-2.2-7.9-4.4-11.6-6.9c-2.7-1.8-5.1-1.7-7.7,0c-3.6,2.3-7.4,4.4-11.1,6.6c-1.7,1-3.5,2.1-5.6,0.9c-2.2-1.2-2.1-3.2-2.1-5.2
		c0-11.8-0.1-23.6,0-35.4c0-2.2-0.6-2.9-2.9-2.9c-13.4,0.1-26.8,0-40.2,0.1c-11.2,0-19,8-19,19.2c0,36.3,0,72.6,0,108.9
		c0,11.8,7.8,19.5,19.6,19.5C986.7,803.3,1008.3,803.3,1029.8,803.3z M939.2,655.8c0.6,1.3,0.9,3.2,2.2,3c1-0.1,1.9-1.5,2.1-3
		C941.9,655.8,940.5,655.8,939.2,655.8z"/>
	<path d="M984.4,627.1c-5.6,0-11.2,0-16.8,0c-4,0-5.9-2-5.9-5.9c-0.1-6-0.1-12,0-18c0-3.8,1.9-5.7,5.8-5.8c11.3-0.1,22.6-0.1,33.9,0
		c3.8,0,5.7,2,5.7,5.8c0.1,6,0.1,12,0,18c0,4.1-1.8,5.9-5.9,5.9C995.6,627.1,990,627.1,984.4,627.1z"/>
	<path d="M894.5,610.6c-4.7,0-9.4,0-14.1,0c-3.3,0-5.1-1.6-5.1-4.2c0-2.6,1.8-4.3,5-4.3c9.5,0,18.9,0,28.4,0c3.3,0,5,1.7,4.9,4.4
		c-0.1,2.7-1.8,4.1-5.1,4.1C903.9,610.7,899.2,610.6,894.5,610.6z"/>
	<path d="M889.3,627.9c-3,0-6,0.1-9,0c-3.1-0.1-5-1.9-4.9-4.5c0.1-2.4,2-4.1,5-4.1c6-0.1,12-0.1,18,0c3,0,4.8,1.7,4.9,4.2
		c0.1,2.6-1.8,4.3-4.9,4.4C895.2,627.9,892.2,627.9,889.3,627.9C889.3,627.9,889.3,627.9,889.3,627.9z"/>
	<path d="M895.6,753.4c5.5,0,11,0,16.5,0c4.3,0,6.1,1.8,6.1,6c0.1,6,0.1,12,0,18c0,3.9-1.8,5.7-5.7,5.7c-11.3,0.1-22.6,0.1-33.9,0
		c-3.9,0-5.6-1.9-5.7-5.8c0-6,0-12,0-18c0-4,1.9-5.9,5.9-5.9C884.4,753.4,890,753.4,895.6,753.4z"/>
	<path d="M805.7,766.6c-4.7,0-9.4,0-14.1,0c-3.2,0-5.1-1.7-5.1-4.2c0-2.5,1.9-4.2,5.1-4.3c9.5-0.1,18.9-0.1,28.4,0
		c3.1,0,5,1.8,5,4.4c-0.1,2.5-1.9,4.1-4.9,4.1C815.2,766.7,810.4,766.6,805.7,766.6z"/>
	<path d="M800.2,775.3c3.1,0,6.2-0.1,9.3,0c2.9,0.1,4.8,1.9,4.8,4.3c0,2.5-1.8,4.3-4.8,4.3c-6.2,0.1-12.4,0.1-18.6,0
		c-2.6,0-4.5-2-4.5-4.3c0-2.3,1.8-4.2,4.5-4.3C794,775.2,797.1,775.3,800.2,775.3C800.2,775.3,800.2,775.3,800.2,775.3z"/>
	<path d="M1073.6,783.1c-5.7,0-11.4,0-17.1,0c-3.9,0-5.9-2-5.9-5.9c-0.1-6-0.1-12,0-18c0-3.8,2-5.8,5.7-5.8
		c11.4-0.1,22.8-0.1,34.1,0c3.5,0,5.5,2.1,5.6,5.6c0.1,6.1,0.1,12.2,0,18.3c0,3.8-2,5.7-5.7,5.8
		C1084.7,783.2,1079.1,783.1,1073.6,783.1z"/>
	<path d="M979,766.6c-4.6,0-9.2,0-13.8,0c-3.3,0-5.4-1.7-5.3-4.3c0-2.6,2-4.2,5.4-4.2c9.3,0,18.5,0,27.8,0c3.3,0,5.1,1.5,5.2,4.1
		c0.1,2.7-1.9,4.3-5.2,4.4C988.4,766.7,983.7,766.7,979,766.6z"/>
	<path d="M973.7,783.9c-3,0-6,0.1-9,0c-2.9-0.1-4.8-1.8-4.8-4.3c0-2.4,1.9-4.3,4.8-4.3c6.1-0.1,12.2-0.1,18.3,0
		c2.9,0,4.8,1.8,4.8,4.3c0,2.5-1.9,4.2-4.8,4.3C979.9,784,976.8,783.9,973.7,783.9C973.7,783.9,973.7,783.9,973.7,783.9z"/>
</g>
</svg>
