<?xml version="1.0" encoding="utf-8"?>
<!-- Generator: Adobe Illustrator 25.0.0, SVG Export Plug-In . SVG Version: 6.00 Build 0)  -->
<svg version="1.1" id="Layer_1" xmlns="http://www.w3.org/2000/svg" xmlns:xlink="http://www.w3.org/1999/xlink" x="0px" y="0px"
	 viewBox="0 0 1920 1080" style="enable-background:new 0 0 1920 1080;" xml:space="preserve">
<style type="text/css">
	.st0{fill:#606060;}
</style>
<g>
	<path class="st0" d="M891.2,612.4c-0.1,13.4-10.7,23.7-23.9,23.6c-13.5-0.2-23.5-10.6-23.4-24.5c0.1-12.7,11.2-23.5,23.9-23.2
		C881.1,588.7,891.3,599.2,891.2,612.4z M867.7,600c-6.9-0.1-12.5,5.4-12.5,12.2c0,6.7,5.7,12.5,12.4,12.4
		c6.8-0.1,12.3-5.7,12.2-12.6C879.8,605.4,874.4,600.1,867.7,600z"/>
	<g>
		<path class="st0" d="M857.3,476.9c10.4-10.4,19.9-19.9,29.4-29.4c3.5-3.5,8.3-3.8,9.6-0.3c0.8,2.2,0.3,6.2-1.2,7.9
			c-10.6,11.2-21.7,22-32.7,32.9c-3.2,3.2-6.5,3-9.6-0.1c-4.3-4.2-8.5-8.4-12.7-12.7c-2.7-2.8-3.9-6.2-0.7-9.2
			c2.9-2.7,6.1-1.8,8.7,1C851,470.2,854,473.3,857.3,476.9z"/>
		<path class="st0" d="M1122.5,475.7H918c-4.5,0-8.2-3.7-8.2-8.2v0c0-4.5,3.7-8.2,8.2-8.2h204.5c4.5,0,8.2,3.7,8.2,8.2v0
			C1130.6,472,1127,475.7,1122.5,475.7z"/>
	</g>
	<path class="st0" d="M1122.5,620.5H918c-4.5,0-8.2-3.7-8.2-8.2v0c0-4.5,3.7-8.2,8.2-8.2h204.5c4.5,0,8.2,3.7,8.2,8.2v0
		C1130.6,616.9,1127,620.5,1122.5,620.5z"/>
	<g>
		<path class="st0" d="M857.3,549.2c10.4-10.4,19.9-19.9,29.4-29.4c3.5-3.5,8.3-3.8,9.6-0.3c0.8,2.2,0.3,6.2-1.2,7.9
			c-10.6,11.2-21.7,22-32.7,32.9c-3.2,3.2-6.5,3-9.6-0.1c-4.3-4.2-8.5-8.4-12.7-12.7c-2.7-2.8-3.9-6.2-0.7-9.2
			c2.9-2.7,6.1-1.8,8.7,1C851,542.5,854,545.6,857.3,549.2z"/>
		<path class="st0" d="M1122.5,547.9H918c-4.5,0-8.2-3.7-8.2-8.2v0c0-4.5,3.7-8.2,8.2-8.2h204.5c4.5,0,8.2,3.7,8.2,8.2v0
			C1130.6,544.3,1127,547.9,1122.5,547.9z"/>
	</g>
</g>
</svg>
