<?xml version="1.0" encoding="utf-8"?>
<!-- Generator: Adobe Illustrator 25.0.0, SVG Export Plug-In . SVG Version: 6.00 Build 0)  -->
<svg version="1.1" id="Layer_1" xmlns="http://www.w3.org/2000/svg" xmlns:xlink="http://www.w3.org/1999/xlink" x="0px" y="0px"
	 viewBox="0 0 1920 1080" style="enable-background:new 0 0 1920 1080;" xml:space="preserve">
<style type="text/css">
	.st0{fill:#D8291F;stroke:#000000;stroke-miterlimit:10;}
	.st1{fill:#FFFFFF;}
	.st2{fill:#D8291F;}
</style>
<g>
	<circle class="st0" cx="959.5" cy="539.5" r="253.8"/>
	<g>
		<g>
			<path class="st1" d="M1168.7,539.4c0,27.3-0.1,54.5,0.1,81.8c0,4.3-1.5,6.9-5.4,8.8c-54.6,27.2-109.2,54.5-163.8,81.9
				c-3.5,1.7-6.4,1.7-9.9,0C935,684.4,880.2,657,825.5,629.7c-3.5-1.7-5-4-5-7.9c0.1-54.9,0.1-109.8,0-164.6c0-3.9,1.5-6.2,5-7.9
				c54.8-27.3,109.5-54.6,164.2-82.1c3.6-1.8,6.6-1.7,10.2,0.1c54.2,27.2,108.5,54.4,162.8,81.3c4.6,2.3,6.2,5.2,6.2,10.2
				C1168.6,485.7,1168.7,512.5,1168.7,539.4z M1156.7,465.3c-1.4,0.7-2.2,1-3,1.4c-50.1,25-100.2,50.1-150.4,75.1
				c-2.2,1.1-2.7,2.4-2.7,4.6c0.1,49.4,0,98.8,0.1,148.1c0,0.9,0.1,1.8,0.2,3c1.3-0.6,2.2-1,3.1-1.4c49.9-25,99.8-49.9,149.8-74.8
				c2.5-1.2,3-2.7,3-5.2c-0.1-49,0-98,0-147C1156.7,468,1156.7,466.9,1156.7,465.3z M940.6,519.1c0,2,0,3.4,0,4.7
				c0,16.6,0,33.2,0,49.9c0,3.3-0.6,6-4,7.3c-3.2,1.3-5.5-0.4-7.6-2.6c-6.3-6.4-12.7-12.8-19.1-19c-1.1-1.1-3-1.8-4.5-1.9
				c-5.2-0.2-10.5-0.1-15.7-0.1c-7.5,0-9.1-1.6-9.1-8.9c0-18.6,0-37.2,0.1-55.9c0-2.6-0.7-4-3.1-5.1c-13.9-6.8-27.7-13.8-41.6-20.7
				c-1-0.5-2-0.9-3.3-1.4c-0.1,1.2-0.1,2-0.1,2.9c0,49.5,0,99-0.1,148.5c0,2.4,0.9,3.5,2.9,4.5c49.9,24.9,99.8,49.8,149.7,74.8
				c1,0.5,2.1,1,3.5,1.6c0-24.9,0-49.1,0-73.4c0-25.9,0-51.7-0.1-77.6c0-1.5-0.7-3.7-1.8-4.2C971.7,534.6,956.5,527.1,940.6,519.1z
				 M1148.9,455.4c-1.5-0.8-2.5-1.4-3.6-2c-14.7-7.4-29.5-14.7-44.2-22.2c-2.5-1.3-4.4-1.2-6.9,0.1c-44.8,23.9-89.7,47.7-134.6,71.5
				c-3.8,2-7.6,4-11.8,6.3c1.5,0.8,2.4,1.3,3.4,1.8c13.5,6.8,27,13.4,40.5,20.3c2.2,1.1,3.8,0.9,5.8-0.1
				c49.2-24.7,98.5-49.2,147.7-73.9C1146.4,456.9,1147.4,456.3,1148.9,455.4z M840.2,455.4c1.8,1,3,1.7,4.2,2.3
				c12.9,6.5,25.9,12.9,38.8,19.5c2.6,1.3,4.5,1.1,6.8-0.2c47.6-25.3,95.2-50.6,142.8-75.9c1.1-0.6,2.1-1.2,3.5-2.1
				c-13.2-6.6-26-12.9-38.6-19.4c-2.3-1.2-4-1-6.2,0.1c-33.4,16.8-66.9,33.5-100.4,50.2C874.4,438.3,857.6,446.6,840.2,455.4z
				 M1084.5,423c-11.5-5.7-22.3-11.2-33.2-16.5c-1.1-0.5-3.1,0-4.4,0.6c-48,25.4-95.9,50.9-143.9,76.3c-0.9,0.5-1.7,1-3.1,1.8
				c10.8,5.4,21.1,10.4,31.2,15.7c2.6,1.3,4.4,1.1,6.8-0.2c41.4-22.1,82.9-44.1,124.3-66.1C1069.4,431.1,1076.6,427.2,1084.5,423z
				 M892.8,545.5c5.1,0,10.1,0.2,15.1-0.1c3.7-0.2,6.5,0.9,8.9,3.7c3.5,4,7.2,7.7,10.8,11.6c0.3-0.3,0.7-0.5,1-0.8
				c0-15,0.1-29.9-0.1-44.9c0-1.1-1.4-2.5-2.5-3.1c-7.6-4-15.4-7.7-23.1-11.6c-3.3-1.6-6.6-3.3-10.2-5.1
				C892.8,512.2,892.8,528.7,892.8,545.5z"/>
			<path class="st2" d="M1156.7,465.3c0,1.6,0,2.7,0,3.8c0,49,0,98,0,147c0,2.5-0.5,4-3,5.2c-50,24.9-99.9,49.9-149.8,74.8
				c-0.9,0.4-1.8,0.8-3.1,1.4c-0.1-1.2-0.2-2.1-0.2-3c0-49.4,0-98.8-0.1-148.1c0-2.2,0.5-3.6,2.7-4.6c50.2-25,100.3-50,150.4-75.1
				C1154.4,466.3,1155.2,466,1156.7,465.3z"/>
			<path class="st2" d="M940.6,519.1c15.9,7.9,31.1,15.5,46.1,23.2c1.1,0.5,1.8,2.8,1.8,4.2c0.1,25.9,0.1,51.7,0.1,77.6
				c0,24.2,0,48.5,0,73.4c-1.4-0.6-2.5-1.1-3.5-1.6c-49.9-24.9-99.8-49.9-149.7-74.8c-2-1-2.9-2.1-2.9-4.5
				c0.1-49.5,0.1-99,0.1-148.5c0-0.8,0.1-1.7,0.1-2.9c1.3,0.5,2.3,0.9,3.3,1.4c13.8,6.9,27.6,13.9,41.6,20.7
				c2.4,1.2,3.1,2.6,3.1,5.1c-0.1,18.6-0.1,37.2-0.1,55.9c0,7.3,1.6,8.9,9.1,8.9c5.3,0,10.5-0.1,15.7,0.1c1.5,0.1,3.4,0.8,4.5,1.9
				c6.5,6.2,12.8,12.6,19.1,19c2.1,2.2,4.4,3.8,7.6,2.6c3.3-1.3,4-4.1,4-7.3c-0.1-16.6,0-33.2,0-49.9
				C940.6,522.5,940.6,521.2,940.6,519.1z"/>
			<path class="st2" d="M1148.9,455.4c-1.4,0.8-2.5,1.5-3.5,2c-49.2,24.6-98.5,49.2-147.7,73.9c-2.1,1-3.6,1.2-5.8,0.1
				c-13.4-6.9-27-13.6-40.5-20.3c-1-0.5-1.9-1-3.4-1.8c4.2-2.3,8-4.3,11.8-6.3c44.9-23.8,89.8-47.6,134.6-71.5
				c2.5-1.3,4.3-1.4,6.9-0.1c14.7,7.5,29.4,14.8,44.2,22.2C1146.4,454,1147.4,454.6,1148.9,455.4z"/>
			<path class="st2" d="M840.2,455.4c17.5-8.7,34.2-17.1,50.9-25.5c33.5-16.7,66.9-33.4,100.4-50.2c2.2-1.1,3.9-1.3,6.2-0.1
				c12.6,6.5,25.4,12.8,38.6,19.4c-1.5,0.9-2.5,1.5-3.5,2.1c-47.6,25.3-95.2,50.6-142.8,75.9c-2.4,1.3-4.3,1.5-6.8,0.2
				c-12.9-6.6-25.8-13-38.8-19.5C843.2,457,842,456.4,840.2,455.4z"/>
			<path class="st2" d="M1084.5,423c-7.9,4.2-15,8-22.2,11.8c-41.4,22-82.9,44-124.3,66.1c-2.4,1.3-4.3,1.5-6.8,0.2
				c-10.2-5.3-20.4-10.3-31.2-15.7c1.3-0.8,2.2-1.3,3.1-1.8c47.9-25.5,95.9-50.9,143.9-76.3c1.3-0.7,3.3-1.2,4.4-0.6
				C1062.1,411.8,1072.9,417.3,1084.5,423z"/>
			<path class="st2" d="M892.8,545.5c0-16.8,0-33.2,0-50.2c3.6,1.8,6.9,3.4,10.2,5.1c7.7,3.8,15.4,7.6,23.1,11.6
				c1.1,0.6,2.4,2,2.5,3.1c0.2,15,0.1,29.9,0.1,44.9c-0.3,0.3-0.7,0.5-1,0.8c-3.6-3.9-7.3-7.6-10.8-11.6c-2.4-2.8-5.3-3.9-8.9-3.7
				C902.9,545.6,897.9,545.5,892.8,545.5z"/>
		</g>
		<g>
			<g>
				<circle class="st1" cx="825.2" cy="626.3" r="75"/>
			</g>
			<g>
				<g>
					<circle class="st0" cx="825.2" cy="626.3" r="36.5"/>
				</g>
				<path class="st1" d="M841.4,614.3c0.1,1.1-0.6,2.1-1.4,3c-2.6,2.5-5,5.2-7.7,7.6c-1.2,1.1-1,1.7,0.1,2.8c2.6,2.4,5.1,5,7.5,7.5
					c1.9,2,2.1,4.4,0.5,6.1c-1.7,1.8-4.1,1.7-6.2-0.3c-2.6-2.5-5.2-5.1-7.6-7.7c-0.9-1-1.5-1.1-2.5,0c-2.6,2.8-5.3,5.4-8,8.1
					c-2.4,2.2-6,1.3-6.8-1.7c-0.4-1.7,0.2-3.1,1.4-4.3c2.7-2.6,5.2-5.3,7.9-7.9c0.8-0.8,0.9-1.3,0-2.1c-2.8-2.7-5.5-5.4-8.2-8.2
					c-1.5-1.6-1.6-3.5-0.5-5.2c1.1-1.5,3.2-2.2,4.9-1.4c0.7,0.3,1.3,0.8,1.8,1.4c2.6,2.5,5.2,5,7.6,7.7c0.9,0.9,1.4,0.9,2.2,0
					c2.6-2.7,5.3-5.4,8-8.1c1.3-1.3,2.9-1.7,4.7-0.9C840.6,611.2,841.4,612.4,841.4,614.3z"/>
			</g>
		</g>
	</g>
</g>
</svg>
