<?xml version="1.0" encoding="utf-8"?>
<!-- Generator: Adobe Illustrator 25.0.0, SVG Export Plug-In . SVG Version: 6.00 Build 0)  -->
<svg version="1.1" id="Layer_1" xmlns="http://www.w3.org/2000/svg" xmlns:xlink="http://www.w3.org/1999/xlink" x="0px" y="0px"
	 viewBox="0 0 1920 1080" style="enable-background:new 0 0 1920 1080;" xml:space="preserve">
<style type="text/css">
	.st0{fill:#FBDC5E;}
	.st1{fill:#EE3A3A;}
	.st2{fill:#E0AD48;}
	.st3{fill:#DFAD48;}
	.st4{fill:#F8A789;}
	.st5{fill:#FFFFFF;}
</style>
<g>
	<path class="st0" d="M616.1,506c0-78,0-155.9,0-233.9c2-7.2,6.6-11.8,14.4-11.8c26.2,0,51.8,0,78,0c0,24.9,0,50.4,0,75.3
		c0,5.9,2.6,7.2,7.9,4.6c9.2-5.2,17.7-10.5,26.2-15.7c2-1.3,3.3-1.3,5.2,0c8.5,5.2,17.7,10.5,26.2,15.7c5.2,2.6,7.9,1.3,7.9-4.6
		c0-24.9,0-50.4,0-75.3c25.5,0,51.1,0,76.6,0c9.2,0,15.1,5.9,15.1,15.1c0,41.9,0,83.9,0,125.1c-0.7,0-0.7,0-1.3,0
		c-20.3-5.2-39.3-3.3-57.7,6.6c-30.1,15.7-47.2,50.4-40.6,83.2c2,9.8,5.2,18.3,9.8,26.9c-11.8,0-24.2,0-36,0c-38.7,0-78,0-116.6,0
		C622.6,517.2,618.7,513.9,616.1,506C616.8,506.7,616.1,506,616.1,506z M668.5,481.1c-6.6,0-13.1,0-19.7,0c-2.6,0-4.6,0.7-5.9,3.3
		c-2.6,4.6,0.7,9.8,6.6,9.8c12.4,0,24.9,0,38,0c4.6,0,7.9-2.6,7.2-6.6c0-3.9-3.3-6.6-7.9-6.6C681,480.5,674.4,481.1,668.5,481.1z
		 M662,466.1c4.6,0,9.2,0,13.8,0c3.9,0,6.6-2.6,6.6-5.9c0-3.3-2.6-6.6-6.6-6.6c-9.2,0-18.3,0-27.5,0c-3.9,0-6.6,2.6-6.6,6.6
		c0,3.3,2.6,5.9,6.6,5.9C652.8,466.1,657.4,466.1,662,466.1z"/>
	<path class="st1" d="M708.5,260.4L708.5,260.4c1.3,0,2.6,0,3.3,0c22.3,0,44.5,0,66.8,0c1.3,0,2,0,3.3,0c0,0,0,0,0.7,0
		c0,24.9,0,50.4,0,75.3c0,5.9-2.6,7.2-7.9,4.6c-8.5-5.2-17.7-10.5-26.2-15.7c-2-1.3-3.3-1.3-5.2,0c-8.5,5.2-17.7,10.5-26.2,15.7
		c-5.2,2.6-7.9,1.3-7.9-4.6C708.5,310.8,708.5,285.2,708.5,260.4z"/>
	<path class="st2" d="M668.5,481.1c6.6,0,12.4,0,19,0c4.6,0,7.9,2.6,7.9,6.6c0,3.3-3.3,6.6-7.2,6.6c-12.4,0-24.9,0-38,0
		c-5.9,0-9.2-4.6-6.6-9.8c1.3-2.6,3.3-3.3,5.9-3.3C655.4,481.1,662,481.1,668.5,481.1z"/>
	<path class="st3" d="M662,466.1c-4.6,0-9.2,0-13.8,0c-3.9,0-6.6-2.6-6.6-5.9c0-3.9,2.6-6.6,6.6-6.6c9.2,0,18.3,0,27.5,0
		c3.3,0,6.6,3.3,6.6,6.6c0,3.3-2.6,5.9-6.6,5.9C671.1,466.1,666.5,466.1,662,466.1z"/>
	<path class="st4" d="M781.2,260.4c-1.3,0-2,0-3.3,0c-22.3,0-44.5,0-66.8,0c-1.3,0-2,0-3.3,0c0.7,0,2,0,2.6,0c22.3,0,45.2,0,67.5,0
		C779.9,259.7,780.5,259.7,781.2,260.4z"/>
	<g>
		<circle class="st1" cx="851.9" cy="475.9" r="78.9"/>
	</g>
	<g>
		<path class="st5" d="M862.7,418l45.7,91.4c4,8-1.8,17.5-10.8,17.5h-91.4c-9,0-14.9-9.5-10.8-17.5L841,418
			C845.5,409.1,858.2,409.1,862.7,418z"/>
		<g>
			<path class="st1" d="M852.1,485.8h-0.6c-3.2,0-5.8-2.6-5.8-5.8v-25c0-3.2,2.6-5.8,5.8-5.8h0.6c3.2,0,5.8,2.6,5.8,5.8v25
				C858,483.2,855.4,485.8,852.1,485.8z"/>
			<circle class="st1" cx="851.9" cy="498.4" r="6.1"/>
		</g>
	</g>
</g>
</svg>
