<?xml version="1.0" encoding="utf-8"?>
<!-- Generator: Adobe Illustrator 25.0.0, SVG Export Plug-In . SVG Version: 6.00 Build 0)  -->
<svg version="1.1" id="Layer_1" xmlns="http://www.w3.org/2000/svg" xmlns:xlink="http://www.w3.org/1999/xlink" x="0px" y="0px"
	 viewBox="0 0 1920 1080" style="enable-background:new 0 0 1920 1080;" xml:space="preserve">
<style type="text/css">
	.st0{fill:#FFFFFF;}
</style>
<path d="M1216,613c0,8,0,16,0,24c-0.6,4.1-1.3,8.1-1.8,12.2c-9.2,68.6-61.6,126.2-129.3,141.9c-9.2,2.1-18.6,3.3-27.9,4.9
	c-8,0-16,0-24,0c-4.3-0.6-8.5-1.3-12.8-1.9C953,784.6,896.9,734.7,879.9,669c-2.4-9.4-3.9-19.1-5.9-29c-1.9,0-3.9,0-5.9,0
	c-48,0-96-0.2-143.9,0.1c-9.3,0.1-16.2-2.5-20.1-11.1c0-111.3,0-222.7,0-334c2.4-4.9,6-8.6,11-11c111.3,0,222.7,0,334,0
	c8.7,4,11.2,10.9,11.1,20.1c-0.3,48.2-0.1,96.3-0.1,144.5c0,1.9,0,3.9,0,5.9c3.7,0.5,6.8,1,10,1.4c66.2,9.2,122.9,59.2,139.9,123.9
	C1212.6,590.6,1214,601.9,1216,613z M873.6,609.8c15.2-89.5,66.9-141.2,156-156.1c0-46.1,0-92.8,0-139.3c-25.5,0-50.5,0-75.8,0
	c0,27.2,0,54.1,0,80.9c0,15-10.8,21.6-24.2,14.9c-14.7-7.4-29.4-15-44.2-22.2c-1.8-0.9-4.9-0.9-6.7,0c-15.1,7.4-30.1,15-45,22.7
	c-4.5,2.3-9.1,3.3-13.9,1.2c-7-3.1-9.5-8.8-9.5-16.1c0.1-25.3,0-50.7,0-76c0-1.8,0-3.6,0-5.5c-25.6,0-50.7,0-75.9,0
	c0,98.7,0,197,0,295.6C781.1,609.8,827.6,609.8,873.6,609.8z M956,515.6c3,2.6,5.6,4.7,7.9,7.1c6.5,6.7,6.8,15.8,0.7,21.9
	c-6,6.1-15.2,5.8-21.9-0.7c-2.4-2.4-4.6-5.1-7.2-7.9c-17.7,22.4-27.7,46.4-30.8,74c4.2,0,7.6-0.1,11.1,0c8.9,0.2,15.3,6.6,15.3,15.1
	c0,8.5-6.5,14.7-15.5,14.9c-3.5,0.1-6.9,0-10.4,0c-1.1,19,17.4,63.1,30.8,73.2c2.3-2.5,4.6-5.2,7.1-7.6c6.4-6,15.2-6.1,21.2-0.4
	c6,5.8,6.1,15,0,21.5c-2.5,2.6-5.3,4.9-8.4,7.7c22.2,17.6,46.3,27.6,73.9,30.7c0-3.6,0-6.8,0-9.9c0.1-9.8,6-16.4,14.9-16.5
	c9.1-0.1,15.1,6.6,15.1,16.7c0,3.1,0,6.2,0,9.7c27.7-3.2,51.9-13.2,73.7-30.6c-2.9-2.8-5.5-5.2-7.9-7.7c-6.2-6.5-6.3-15.6-0.4-21.5
	c5.9-5.9,15-5.9,21.5,0.3c2.6,2.5,4.9,5.2,7.7,8.2c17.5-22.2,27.6-46.3,30.6-73.8c-4.3,0-8,0.1-11.6,0c-8.6-0.3-14.8-6.8-14.8-15.1
	c0-8.3,6.4-14.6,15-14.9c3.6-0.1,7.3,0,11.4,0c-3.2-27.6-13.1-51.7-30.6-73.7c-2.8,3-5.2,5.7-7.8,8.2c-6.5,6.1-15.7,6.1-21.5,0
	c-5.7-5.9-5.7-14.8,0.3-21.2c2.5-2.6,5.3-4.9,8.4-7.7c-22.1-17.6-46.2-27.6-73.9-30.8c0,4.1,0.1,7.8,0,11.4c-0.3,8.6-6.5,15-14.8,15
	c-8.5,0.1-14.9-6.3-15.1-15.2c-0.1-3.6,0-7.2,0-11.2C1002.4,488,978.4,497.9,956,515.6z M923.4,373.5c0-20.4,0-39.8,0-59.2
	c-27.8,0-55.3,0-82.9,0c0,19.7,0,39,0,59c1.9-0.9,3.4-1.4,4.8-2.2c7.6-3.8,15.5-7,22.6-11.6c9.8-6.3,18.6-5.8,28.4,0.1
	C904.8,364.8,914,368.7,923.4,373.5z"/>
<path class="st0" d="M873.6,609.8c-46,0-92.5,0-139.3,0c0-98.5,0-196.9,0-295.6c25.2,0,50.2,0,75.9,0c0,1.9,0,3.7,0,5.5
	c0,25.3,0.1,50.7,0,76c0,7.3,2.5,13,9.5,16.1c4.8,2.1,9.4,1.1,13.9-1.2c15-7.6,29.9-15.3,45-22.7c1.8-0.9,4.9-0.9,6.7,0
	c14.8,7.2,29.4,14.8,44.2,22.2c13.5,6.8,24.2,0.2,24.2-14.9c0-26.8,0-53.7,0-80.9c25.3,0,50.3,0,75.8,0c0,46.5,0,93.2,0,139.3
	C940.5,468.7,888.8,520.4,873.6,609.8z"/>
<path class="st0" d="M956,515.6c22.3-17.7,46.4-27.6,74-30.8c0,4-0.1,7.6,0,11.2c0.2,8.9,6.6,15.3,15.1,15.2
	c8.3-0.1,14.6-6.4,14.8-15c0.1-3.6,0-7.3,0-11.4c27.7,3.1,51.8,13.2,73.9,30.8c-3.1,2.8-5.9,5.1-8.4,7.7c-6,6.3-6,15.2-0.3,21.2
	c5.8,6,15,6.1,21.5,0c2.6-2.5,5-5.2,7.8-8.2c17.5,22,27.5,46.1,30.6,73.7c-4.2,0-7.8-0.1-11.4,0c-8.6,0.3-14.9,6.6-15,14.9
	c0,8.3,6.2,14.7,14.8,15.1c3.6,0.1,7.3,0,11.6,0c-3.1,27.6-13.1,51.6-30.6,73.8c-2.7-2.9-5.1-5.7-7.7-8.2
	c-6.5-6.2-15.6-6.2-21.5-0.3c-5.9,6-5.8,15,0.4,21.5c2.4,2.5,5,4.9,7.9,7.7c-21.8,17.3-45.9,27.4-73.7,30.6c0-3.5,0-6.6,0-9.7
	c-0.1-10.2-6.1-16.8-15.1-16.7c-8.8,0.1-14.8,6.7-14.9,16.5c0,3.1,0,6.3,0,9.9c-27.6-3.1-51.7-13.2-73.9-30.7
	c3.1-2.8,5.9-5.1,8.4-7.7c6.1-6.5,6-15.7,0-21.5c-5.9-5.7-14.8-5.6-21.2,0.4c-2.5,2.4-4.8,5.1-7.1,7.6
	c-13.4-10.1-31.9-54.2-30.8-73.2c3.4,0,6.9,0.1,10.4,0c9-0.2,15.4-6.4,15.5-14.9c0-8.5-6.4-14.9-15.3-15.1c-3.5-0.1-7,0-11.1,0
	c3-27.6,13.1-51.6,30.8-74c2.6,2.9,4.7,5.6,7.2,7.9c6.7,6.5,15.8,6.7,21.9,0.7c6-6.1,5.8-15.2-0.7-21.9
	C961.6,520.4,959,518.3,956,515.6z M1043.4,660c23.8,0,40.5-20.8,35.6-42.4c-0.8-3.4-0.2-5.4,2.2-7.8c7.9-7.6,15.6-15.4,23.3-23.3
	c6.9-6.9,7.3-16,1.3-22.2c-6.2-6.3-15.5-5.9-22.6,1.1c-7.6,7.5-15.2,14.9-22.5,22.6c-2.7,2.8-5,3.7-9,2.8
	c-22.8-5-44.5,14.5-41.4,37.6c0.8,6.2,0.3,10.2-4.3,14.7c-5.3,5.1-4.7,13.6-0.1,19.2c4.6,5.4,13.6,7.6,18.9,2.9
	C1031.1,659.6,1037.1,656.9,1043.4,660z"/>
<path class="st0" d="M923.4,373.5c-9.4-4.7-18.6-8.7-27-13.8c-9.7-5.9-18.6-6.4-28.4-0.1c-7.1,4.6-15.1,7.8-22.6,11.6
	c-1.4,0.7-2.9,1.3-4.8,2.2c0-20,0-39.4,0-59c27.7,0,55.1,0,82.9,0C923.4,333.7,923.4,353.1,923.4,373.5z"/>
<path d="M1043.4,660c-6.4-3.1-12.3-0.4-18.6,5.2c-5.3,4.7-14.3,2.5-18.9-2.9c-4.7-5.5-5.2-14.1,0.1-19.2c4.6-4.4,5.2-8.5,4.3-14.7
	c-3.1-23.1,18.6-42.6,41.4-37.6c4,0.9,6.3,0,9-2.8c7.4-7.7,15-15.2,22.5-22.6c7.1-7,16.4-7.4,22.6-1.1c6,6.2,5.6,15.3-1.3,22.2
	c-7.7,7.8-15.4,15.6-23.3,23.3c-2.4,2.3-3,4.4-2.2,7.8C1084,639.2,1067.2,660.1,1043.4,660z M1045.8,619.3c-0.7,0-1.4,0-2.1,0
	c-1.2,2-3.5,4.1-3.3,6c0.2,1.7,3.4,4.5,4.7,4.2c1.9-0.5,4.3-3.1,4.6-5C1049.8,623,1047.2,621.1,1045.8,619.3z"/>
<path class="st0" d="M1045.8,619.3c1.4,1.8,4.1,3.7,3.8,5.2c-0.3,2-2.6,4.5-4.6,5c-1.2,0.3-4.5-2.6-4.7-4.2c-0.2-1.9,2.1-4,3.3-6
	C1044.4,619.3,1045.1,619.3,1045.8,619.3z"/>
</svg>
