<?xml version="1.0" encoding="utf-8"?>
<!-- Generator: Adobe Illustrator 25.0.0, SVG Export Plug-In . SVG Version: 6.00 Build 0)  -->
<svg version="1.1" id="Layer_1" xmlns="http://www.w3.org/2000/svg" xmlns:xlink="http://www.w3.org/1999/xlink" x="0px" y="0px"
	 viewBox="0 0 1920 1080" style="enable-background:new 0 0 1920 1080;" xml:space="preserve">
<style type="text/css">
	.st0{fill:#FEFEFE;}
	.st1{fill:#FEDE40;}
	.st2{fill:#FEBD40;}
	.st3{fill:#5AABFE;}
	.st4{fill:#EE3A3A;}
	.st5{fill:#FDFDFE;}
	.st6{fill:#4E4D7F;}
	.st7{fill:#504F7E;}
	.st8{fill:#453D66;}
	.st9{fill:#473F65;}
	.st10{fill:#F2F4F8;}
	.st11{fill:#E0E5EF;}
	.st12{fill:#4E4E80;}
	.st13{fill:#443D66;}
</style>
<path class="st0" d="M920.3,348.1c76.2,0,152.4,0,228.7-0.1c2.6,0,3.1,0.5,3.1,3.1c-0.1,93.7-0.1,187.4-0.1,281.1
	c-0.2-0.5-0.6-1.1-0.7-1.6c-2.3-18.8-9.8-35.2-22.6-49.1c-17.9-19.4-40-29.6-66.6-29.4c-4.7-0.6-9.4,0.7-14.1,0.7
	c-0.1-0.3-0.2-0.7-0.4-1c-32.2-57.8-64.4-115.7-96.6-173.5c-0.9-1.6-1.9-3.2-2.7-4.9C942.5,361,934.2,351.5,920.3,348.1z"/>
<path class="st0" d="M1052.2,731.9c-93.6,0-187.3,0-280.9,0.1c-2.5,0-3.3-0.3-3.3-3.2c0.1-46.2,0.1-92.4,0.1-138.6
	c0.7,0.3,0.7,1,0.8,1.6c3.6,15.4,17.6,26.7,35.4,26.3c16.1-0.4,32.2-0.1,48.3-0.1c20.6,0,41.1-0.1,61.7-0.1
	c20.2,0.1,40.5,0.1,60.7,0.2c-2.5,11.4-3.7,22.8-2.4,34.5c4.2,36.3,30.7,67.1,66.3,76.4C1043.3,730.1,1047.8,730.9,1052.2,731.9z"/>
<path class="st1" d="M914.3,617.9c-20.6,0-41.1,0.1-61.7,0.1c-16.1,0-32.2-0.3-48.3,0.1c-17.8,0.4-31.8-10.9-35.4-26.3
	c-0.1-0.6-0.2-1.2-0.8-1.6c0-3.5,0-7,0-10.5c1.4-5.4,3.6-10.5,6.3-15.5c8.4-14.9,16.7-29.8,25-44.8c28.6-51.5,57.2-102.9,85.8-154.4
	c2.3-4.1,5.4-7.4,9.1-10.3c4.4-3.4,9.7-4.9,14.8-6.7c1.7,0,3.5,0,5.2,0c0,29.9,0,59.9,0,89.8c-7.8,1.2-11.3,5.2-11.3,13.1
	c0,13.8,0,27.7,0,41.5c0,7.9,3.4,11.9,11.3,13.1c0,7.4,0,14.8,0,22.2c-2.5,0.3-4.9,0.9-6.9,2.5c-3.6,2.9-5.2,6.7-4.1,11.3
	c1.3,5.7,5.3,8.4,11,9C914.3,573,914.3,595.5,914.3,617.9z"/>
<path class="st2" d="M914.3,617.9c0-22.4,0-44.8,0-67.2l-0.1-0.3c6.5,0.1,11.3-4.6,11.3-11.1c0-6.5-4.8-11.2-11.3-11.1l0.1-0.3
	c0-7.4,0-14.8,0-22.2l-0.1-0.3c6.4,0,11.2-4.5,11.3-10.8c0.1-15.2,0.1-30.4,0-45.6c0-6.4-4.8-10.8-11.3-10.8l0.1-0.3
	c0-29.9,0-59.9,0-89.8c2,0,4,0,6,0c13.9,3.4,22.2,12.9,27.9,25.3c0.8,1.7,1.8,3.3,2.7,4.9c32.2,57.8,64.4,115.7,96.6,173.5
	c0.2,0.3,0.3,0.7,0.4,1c-0.5,0.2-0.9,0.5-1.4,0.5c-22.4,4-40.7,15-55,32.7c-7.7,9.5-12.8,20.4-16.5,32
	C954.8,618,934.5,617.9,914.3,617.9z"/>
<path class="st0" d="M909,348.1c-5.1,1.8-10.4,3.3-14.8,6.7c-3.7,2.9-6.8,6.2-9.1,10.3C856.5,416.6,828,468,799.4,519.5
	c-8.3,14.9-16.6,29.9-25,44.8c-2.8,4.9-4.9,10-6.3,15.5c0-76.1,0-152.3-0.1-228.4c0-2.6,0.4-3.3,3.2-3.3
	C817.2,348.1,863.1,348.1,909,348.1z"/>
<path class="st3" d="M975,618c3.8-11.6,8.8-22.5,16.5-32c14.3-17.6,32.6-28.6,55-32.7c0.5-0.1,0.9-0.4,1.4-0.5
	c4.7-0.1,9.4-1.3,14.1-0.7c0,7.4,0,14.8,0,22.3c-3.7,0.3-7.5,0.3-11.2,1c-26.6,5.3-45,20.6-53.1,46.5c-8.1,25.8-1.8,48.9,17.1,68.1
	c12.8,13,29,19,47.2,19.5c0,7.5,0,14.9,0,22.4c-3.2,0-6.5,0-9.7,0c-4.4-1-8.9-1.9-13.3-3c-35.6-9.3-62.1-40.1-66.3-76.4
	C971.3,640.8,972.5,629.4,975,618z"/>
<path class="st4" d="M1062,731.9c0-7.5,0-14.9,0-22.4c0,0-0.1-0.2-0.1-0.2c5.7,0.5,11.2-0.5,16.6-1.9c38.5-9.8,60.1-49.9,47.3-87.7
	c-9.2-27.1-36.4-46.4-63.9-45.2l0.1-0.2c0-7.4,0-14.8,0-22.3c26.6-0.2,48.7,10,66.6,29.4c12.8,13.8,20.3,30.3,22.6,49.1
	c0.1,0.6,0.5,1.1,0.7,1.6c0,6.5,0,13,0,19.5c-0.2,0.5-0.6,1.1-0.7,1.6c-4.5,37.3-32.5,68.1-69.5,76.5c-3.3,0.8-6.9,0.6-10,2.1
	C1068.5,731.9,1065.2,731.9,1062,731.9z"/>
<path class="st5" d="M1071.7,731.9c3.2-1.4,6.7-1.3,10-2.1c37-8.4,65-39.1,69.5-76.5c0.1-0.6,0.5-1.1,0.7-1.6
	c0,25.9,0,51.7,0.1,77.6c0,2.2-0.5,2.7-2.7,2.7C1123.4,731.9,1097.6,731.9,1071.7,731.9z"/>
<path class="st6" d="M914.3,505.7c-7.8-1.2-11.3-5.2-11.3-13.1c0-13.8,0-27.7,0-41.5c0-7.9,3.4-11.9,11.3-13.1c0,0-0.1,0.3-0.1,0.3
	c0,22.4,0,44.8,0,67.2L914.3,505.7z"/>
<path class="st7" d="M914.3,550.6c-5.6-0.6-9.6-3.3-11-9c-1.1-4.5,0.5-8.3,4.1-11.3c2-1.6,4.4-2.2,6.9-2.5c0,0-0.1,0.3-0.1,0.3
	c0,7.4,0,14.8,0,22.2L914.3,550.6z"/>
<path class="st8" d="M914.2,505.4c0-22.4,0-44.8,0-67.2c6.4,0,11.2,4.4,11.3,10.8c0.1,15.2,0.1,30.4,0,45.6
	C925.5,500.9,920.7,505.4,914.2,505.4z"/>
<path class="st9" d="M914.2,550.4c0-7.4,0-14.8,0-22.2c6.5-0.1,11.3,4.6,11.3,11.1C925.5,545.8,920.8,550.4,914.2,550.4z"/>
<path class="st10" d="M1062,709.5c-18.2-0.4-34.4-6.4-47.2-19.5c-18.9-19.2-25.1-42.4-17.1-68.1c8.1-25.9,26.5-41.2,53.1-46.5
	c3.6-0.7,7.4-0.7,11.2-1c0,0-0.1,0.2-0.1,0.2c0,7.4,0.1,14.8,0.1,22.3c-7.9,1.3-11.3,5.2-11.3,13.1c0,10.1,0,20.2,0,30.3
	c0,7.9,3.4,11.8,11.3,13.1c0,18.7-0.1,37.3-0.1,56C1061.9,709.3,1062,709.5,1062,709.5z"/>
<path class="st11" d="M1062,596.8c0-7.4-0.1-14.8-0.1-22.3c27.5-1.1,54.7,18.1,63.9,45.2c12.8,37.8-8.8,77.9-47.3,87.7
	c-5.4,1.4-10.9,2.4-16.6,1.9c0-18.7,0.1-37.3,0.1-56l-0.1-0.3c11.2,0,22.5,0.1,33.7,0.1c6.6,0,11.4-4.8,11.3-11.3
	c0-6.4-4.8-11.1-11.5-11.2c-6.4,0-12.7-0.2-19.1,0.1c-2.7,0.1-3.3-0.8-3.2-3.4c0.2-6.5,0.1-13,0-19.5c-0.1-6.4-4.8-10.9-11.3-10.8
	L1062,596.8z"/>
<path class="st12" d="M1062,653.4c-7.9-1.3-11.3-5.2-11.3-13.1c0-10.1,0-20.2,0-30.3c0-7.9,3.4-11.8,11.3-13.1l-0.1,0.3
	c0,18.7,0,37.3,0,56L1062,653.4z"/>
<path class="st13" d="M1061.9,653.1c0-18.7,0-37.3,0-56c6.4,0,11.2,4.4,11.3,10.8c0.1,6.5,0.1,13,0,19.5c-0.1,2.5,0.5,3.5,3.2,3.4
	c6.4-0.2,12.7-0.1,19.1-0.1c6.7,0,11.4,4.7,11.5,11.2c0,6.5-4.7,11.3-11.3,11.3C1084.4,653.2,1073.2,653.1,1061.9,653.1z"/>
</svg>
