<?xml version="1.0" encoding="utf-8"?>
<!-- Generator: Adobe Illustrator 25.0.0, SVG Export Plug-In . SVG Version: 6.00 Build 0)  -->
<svg version="1.1" id="Layer_1" xmlns="http://www.w3.org/2000/svg" xmlns:xlink="http://www.w3.org/1999/xlink" x="0px" y="0px"
	 viewBox="0 0 1920 1080" style="enable-background:new 0 0 1920 1080;" xml:space="preserve">
<style type="text/css">
	.st0{fill:#FBDC5E;}
	.st1{fill:#EE3A3A;}
	.st2{fill:#E0AD48;}
	.st3{fill:#DFAD48;}
	.st4{fill:#EEE5E5;}
	.st5{fill:#F8A789;}
</style>
<g>
	<path class="st0" d="M936,555c0-11.9,0-23.8,0-35.7c0.3-1.1,1-1.8,2.2-1.8c4,0,7.9,0,11.9,0c0,3.8,0,7.7,0,11.5
		c0,0.9,0.4,1.1,1.2,0.7c1.4-0.8,2.7-1.6,4-2.4c0.3-0.2,0.5-0.2,0.8,0c1.3,0.8,2.7,1.6,4,2.4c0.8,0.4,1.2,0.2,1.2-0.7
		c0-3.8,0-7.7,0-11.5c3.9,0,7.8,0,11.7,0c1.4,0,2.3,0.9,2.3,2.3c0,6.4,0,12.8,0,19.1c-0.1,0-0.1,0-0.2,0c-3.1-0.8-6-0.5-8.8,1
		c-4.6,2.4-7.2,7.7-6.2,12.7c0.3,1.5,0.8,2.8,1.5,4.1c-1.8,0-3.7,0-5.5,0c-5.9,0-11.9,0-17.8,0c-1.3,0-1.9-0.5-2.3-1.7
		C936.1,555.1,936,555,936,555z M944,551.2c-1,0-2,0-3,0c-0.4,0-0.7,0.1-0.9,0.5c-0.4,0.7,0.1,1.5,1,1.5c1.9,0,3.8,0,5.8,0
		c0.7,0,1.2-0.4,1.1-1c0-0.6-0.5-1-1.2-1C945.9,551.1,944.9,551.2,944,551.2z M943,548.9c0.7,0,1.4,0,2.1,0c0.6,0,1-0.4,1-0.9
		c0-0.5-0.4-1-1-1c-1.4,0-2.8,0-4.2,0c-0.6,0-1,0.4-1,1c0,0.5,0.4,0.9,1,0.9C941.6,548.9,942.3,548.9,943,548.9z"/>
	<path class="st1" d="M961.7,556.8c-0.7-1.3-1.3-2.7-1.5-4.1c-0.9-5.1,1.6-10.4,6.2-12.7c2.8-1.5,5.8-1.8,8.8-1c0.1,0,0.1,0,0.2,0
		c0.1,0,0.2,0.1,0.3,0.1c4.1,1.4,6.7,4.2,8,8.3c0.2,0.6,0.3,1.3,0.4,1.9c0,0.8,0,1.7,0,2.5c-0.2,0.2-0.1,0.5-0.2,0.7
		c-0.9,4.5-3.4,7.7-7.8,9.3c-4.3,1.5-8.2,0.8-11.8-2C963.2,558.9,962.4,557.9,961.7,556.8z M976.8,556.1c0,0,0.1,0,0.2,0
		c0.7-0.2,0.8-1.1,0.3-1.6c-1.2-1.2-2.4-2.4-3.6-3.6c-0.3-0.3-0.3-0.4,0-0.7c1.2-1.2,2.4-2.4,3.5-3.5c0.5-0.5,0.5-1.1,0.1-1.5
		c-0.4-0.4-0.9-0.3-1.4,0.1c-1.1,1.1-2.2,2.2-3.2,3.2c-0.7,0.7-0.7,0.7-1.3,0c-1.1-1.1-2.2-2.2-3.2-3.2c-0.6-0.6-1.3-0.5-1.6,0.2
		c-0.2,0.5,0,0.8,0.3,1.2c1.2,1.2,2.4,2.4,3.6,3.6c0.2,0.2,0.2,0.4,0,0.6c-1.2,1.2-2.4,2.4-3.5,3.5c-0.2,0.2-0.4,0.4-0.4,0.6
		c-0.1,0.4,0,0.8,0.4,1.1c0.4,0.2,0.9,0.2,1.2-0.2c1.2-1.2,2.4-2.4,3.6-3.6c0.2-0.2,0.4-0.3,0.6,0c1.2,1.2,2.4,2.4,3.6,3.6
		C976.1,556,976.3,556.2,976.8,556.1z"/>
	<path class="st1" d="M950.1,517.5C950.1,517.5,950.1,517.5,950.1,517.5c0.2,0,0.4,0,0.5,0c3.4,0,6.8,0,10.2,0c0.2,0,0.3,0,0.5,0
		c0,0,0,0,0.1,0c0,3.8,0,7.7,0,11.5c0,0.9-0.4,1.1-1.2,0.7c-1.3-0.8-2.7-1.6-4-2.4c-0.3-0.2-0.5-0.2-0.8,0c-1.3,0.8-2.7,1.6-4,2.4
		c-0.8,0.4-1.2,0.2-1.2-0.7C950.1,525.2,950.1,521.3,950.1,517.5z"/>
	<path class="st2" d="M944,551.2c1,0,1.9,0,2.9,0c0.7,0,1.2,0.4,1.2,1c0,0.5-0.5,1-1.1,1c-1.9,0-3.8,0-5.8,0c-0.9,0-1.4-0.7-1-1.5
		c0.2-0.4,0.5-0.5,0.9-0.5C942,551.2,943,551.2,944,551.2z"/>
	<path class="st3" d="M943,548.9c-0.7,0-1.4,0-2.1,0c-0.6,0-1-0.4-1-0.9c0-0.6,0.4-1,1-1c1.4,0,2.8,0,4.2,0c0.5,0,1,0.5,1,1
		c0,0.5-0.4,0.9-1,0.9C944.4,548.9,943.7,548.9,943,548.9z"/>
	<path class="st4" d="M976.8,556.1c-0.5,0-0.7-0.2-0.9-0.4c-1.2-1.2-2.4-2.4-3.6-3.6c-0.2-0.3-0.4-0.2-0.6,0
		c-1.2,1.2-2.4,2.4-3.6,3.6c-0.4,0.4-0.9,0.4-1.2,0.2c-0.4-0.2-0.5-0.6-0.4-1.1c0.1-0.3,0.2-0.4,0.4-0.6c1.2-1.2,2.4-2.4,3.5-3.5
		c0.2-0.2,0.2-0.3,0-0.6c-1.2-1.2-2.4-2.4-3.6-3.6c-0.3-0.3-0.5-0.7-0.3-1.2c0.3-0.7,1.1-0.8,1.6-0.2c1.1,1.1,2.2,2.2,3.2,3.2
		c0.7,0.7,0.7,0.7,1.3,0c1.1-1.1,2.2-2.2,3.2-3.2c0.5-0.5,1-0.5,1.4-0.1c0.4,0.4,0.4,1-0.1,1.5c-1.2,1.2-2.3,2.4-3.5,3.5
		c-0.3,0.3-0.3,0.4,0,0.7c1.2,1.2,2.4,2.4,3.6,3.6c0.6,0.6,0.4,1.4-0.3,1.6C976.9,556.1,976.8,556.1,976.8,556.1z"/>
	<path class="st5" d="M961.2,517.5c-0.2,0-0.3,0-0.5,0c-3.4,0-6.8,0-10.2,0c-0.2,0-0.3,0-0.5,0c0.1,0,0.3,0,0.4,0
		c3.4,0,6.9,0,10.3,0C961,517.4,961.1,517.4,961.2,517.5z"/>
</g>
</svg>
