<?xml version="1.0" encoding="utf-8"?>
<!-- Generator: Adobe Illustrator 25.0.0, SVG Export Plug-In . SVG Version: 6.00 Build 0)  -->
<svg version="1.1" id="Layer_1" xmlns="http://www.w3.org/2000/svg" xmlns:xlink="http://www.w3.org/1999/xlink" x="0px" y="0px"
	 viewBox="0 0 1920 1080" style="enable-background:new 0 0 1920 1080;" xml:space="preserve">
<style type="text/css">
	.st0{fill:#FFFFFF;}
</style>
<path class="st0" d="M935.1,757.9c17,0.4,33.9,0.4,50.9,0c19,0,38.1-0.1,57.1-0.1c17,0.6,34,0.4,50.9,0.1
	c19.3-0.1,38.6-0.1,57.8-0.2c13.9,0,27.9,0.1,41.8,0.1c7.8,0,10.2,2.4,10.2,10c0,6-0.2,12,0.1,17.9c0.2,4.1-1,7.4-4.1,10
	c-159.6,0-319.2,0-478.8,0c-3.1-3.3-3.9-7.2-3.7-11.7c0.3-5.5,0-11,0.1-16.4c0.1-7.3,2.3-9.5,9.6-9.6c14.1-0.1,28.2-0.2,42.3-0.3
	c19.2,0,38.5,0,57.7,0c16.9,0.5,33.9,0.5,50.8,0C896.9,757.9,916,757.9,935.1,757.9z"/>
<path class="st0" d="M1099.9,284.1c3.6,5.2,1.4,10.9,1.6,16.4c0,1.5-0.4,3-0.4,4.5c-0.4,21.8-0.8,43.6-1.3,65.4
	c-0.1,3-0.5,6-0.7,8.9c-0.1,1.6,0.1,3.5-2.3,3.8c-1.9,0.3-3.1-0.6-4-2.3c-4.3-7.3-8.7-14.6-12.9-22c-5.6-9.7-4.7-8-10.7-0.8
	c-17,20.1-34.2,39.9-52.4,58.9c-22.9,23.9-47,46.7-72.3,68c-38.5,32.4-79.3,61.6-123.2,86.5c-25.7,14.5-52.2,27.2-79.8,37.8
	c-2.9,1.1-5.8,2.5-9,2.8c-7.2,0.6-13.2-4-15-11.2c-1.7-6.6,2.4-13.9,9.6-16.6c19.1-7.1,37.5-15.4,55.7-24.6
	c37.6-18.9,72.6-41.8,106.2-67c40.2-30.1,77.2-63.8,111.8-100.1c17.3-18.2,33.8-37,50-57.2c-11-1.1-21.3-2.1-31.6-3.2
	c-1.5-0.1-3-0.3-4.4-0.6c-1.3-0.3-2.5-1-2.7-2.6c-0.2-1.6,0.8-2.5,1.9-3.3c1.2-0.8,2.6-1.4,4-2.1c24.8-12.2,49.6-24.4,74.3-36.7
	c1.6-0.8,3.5-1.2,4.6-2.8C1097.9,284.1,1098.9,284.1,1099.9,284.1z"/>
<path class="st0" d="M1151.9,757.8c-19.3,0.1-38.6,0.1-57.8,0.2c0-107.5,0-215.1,0-322.6c0-9.4,1.5-10.9,11.1-10.9
	c12.2,0,24.3,0,36.5,0c8.5,0,10.2,1.8,10.2,10.3c0,105.5,0,211.1,0,316.6C1151.8,753.5,1151.9,755.6,1151.9,757.8z"/>
<path class="st0" d="M1043.1,757.8c-19,0-38.1,0.1-57.1,0.1c0-79.7,0-159.5,0-239.2c0-8,1.6-9.6,9.6-9.6c13,0,26,0,39,0
	c6.8,0,8.6,1.7,8.6,8.5C1043.1,597.7,1043.1,677.8,1043.1,757.8z"/>
<path class="st0" d="M935.1,757.9c-19.1,0-38.2,0-57.2,0c0-51.3,0-102.5,0-153.8c0-8.8,1.2-10,10.1-10c12.7,0,25.3,0,38,0
	c7.5,0,9.1,1.6,9.1,9C935.1,654.7,935.1,706.3,935.1,757.9z"/>
<path class="st0" d="M827,757.9c-19.2,0-38.5,0-57.7,0c0-23.4-0.1-46.9,0-70.3c0-6.6,2.1-8.6,8.7-8.6c13.5,0,26.9,0,40.4,0
	c6.7,0,8.6,1.9,8.6,8.6C827.1,711,827,734.4,827,757.9z"/>
</svg>
