<?xml version="1.0" encoding="utf-8"?>
<!-- Generator: Adobe Illustrator 25.0.0, SVG Export Plug-In . SVG Version: 6.00 Build 0)  -->
<svg version="1.1" id="Layer_1" xmlns="http://www.w3.org/2000/svg" xmlns:xlink="http://www.w3.org/1999/xlink" x="0px" y="0px"
	 viewBox="0 0 1920 1080" style="enable-background:new 0 0 1920 1080;" xml:space="preserve">
<g>
	<path d="M946,491.2c1.2,0,2.3,0.6,3.1,1.8c1.4,2.1,2.7,4.2,4.1,6.3c1.1,1.8,2.7,2.6,4.8,2.5c1.6-0.1,3.1-0.1,4.7,0
		c2.1,0.1,3.7-0.8,4.8-2.6c1.2-2,2.5-4,3.7-6c1.4-2.2,3.2-2.8,5.5-1.9c2.3,0.9,4.6,1.8,6.9,2.8c2.1,0.9,3,2.6,2.5,4.8
		c-0.5,2.5-1,4.9-1.6,7.4c-0.4,1.9,0.1,3.5,1.5,4.8c1.3,1.2,2.5,2.4,3.8,3.7c1.2,1.2,2.7,1.8,4.5,1.4c2.4-0.5,4.8-1.1,7.2-1.7
		c2.7-0.6,4.3,0.2,5.4,2.8c0.9,2.1,1.8,4.3,2.7,6.4c1,2.4,0.5,4.2-1.7,5.6c-2,1.3-4.1,2.6-6.1,4c-1.6,1.1-2.4,2.6-2.4,4.6
		c0.1,1.6,0.1,3.3,0,4.9c0,2,0.7,3.5,2.4,4.6c2.1,1.3,4.2,2.6,6.3,3.9c2.1,1.3,2.7,3.1,1.8,5.5c-0.9,2.3-1.8,4.6-2.8,6.9
		c-0.9,2.1-2.6,3-4.8,2.5c-2.5-0.5-5-1.1-7.5-1.6c-1.9-0.4-3.5,0.2-4.8,1.6c-1.1,1.2-2.2,2.4-3.4,3.5c-1.5,1.4-2,3-1.5,5
		c0.5,2.3,1.1,4.5,1.6,6.8c0.7,2.9-0.1,4.5-2.8,5.6c-2.1,0.9-4.3,1.8-6.4,2.7c-2.3,1-4.1,0.4-5.5-1.7c-1.3-2-2.6-4-3.8-6
		c-1.1-1.8-2.7-2.7-4.8-2.6c-1.6,0.1-3.3,0-4.9,0c-2,0-3.5,0.8-4.5,2.5c-1.3,2.1-2.6,4.1-3.9,6.2c-1.3,2.1-3.2,2.7-5.4,1.8
		c-2.3-0.9-4.6-1.8-6.9-2.8c-2.2-0.9-3-2.6-2.6-4.9c0.5-2.5,1-4.9,1.6-7.4c0.4-1.9-0.1-3.5-1.5-4.8c-1.3-1.2-2.5-2.4-3.7-3.6
		c-1.3-1.3-2.9-1.8-4.7-1.4c-2.3,0.5-4.7,1.1-7,1.6c-2.8,0.7-4.4-0.1-5.5-2.8c-0.9-2.2-1.9-4.4-2.8-6.6c-0.8-2-0.3-3.9,1.6-5.1
		c2.1-1.4,4.2-2.7,6.2-4c1.7-1.1,2.6-2.7,2.5-4.7c-0.1-1.6-0.1-3.3,0-4.9c0-2-0.8-3.5-2.5-4.6c-2.1-1.3-4.2-2.6-6.3-3.9
		c-1.9-1.2-2.5-3.1-1.7-5.2c0.9-2.4,1.9-4.8,2.9-7.1c0.9-2,2.6-2.9,4.7-2.5c2.5,0.5,4.9,1,7.4,1.6c2,0.4,3.7-0.1,5-1.6
		c1.1-1.2,2.3-2.4,3.5-3.6c1.3-1.2,1.9-2.8,1.5-4.6c-0.5-2.4-1.1-4.8-1.7-7.2c-0.6-2.7,0.2-4.4,2.8-5.4c2.2-0.9,4.3-1.8,6.5-2.8
		C944.5,491.3,945.1,491.2,946,491.2z M939.8,540.7c0,11.5,9.4,20.9,20.9,20.9c11.4,0,20.8-9.4,20.8-20.9c0-11.6-9.4-20.9-21.1-20.9
		C949.2,519.8,939.8,529.3,939.8,540.7z"/>
</g>
</svg>
