<?xml version="1.0" encoding="utf-8"?>
<!-- Generator: Adobe Illustrator 25.0.0, SVG Export Plug-In . SVG Version: 6.00 Build 0)  -->
<svg version="1.1" id="Layer_1" xmlns="http://www.w3.org/2000/svg" xmlns:xlink="http://www.w3.org/1999/xlink" x="0px" y="0px"
	 viewBox="0 0 1920 1080" style="enable-background:new 0 0 1920 1080;" xml:space="preserve">
<style type="text/css">
	.st0{fill:#FFFFFF;}
</style>
<g>
	<path class="st0" d="M1122.7,542.5c0.1-1.2,0.2-2.5,0.2-3.8c0-65.8,0-131.6,0-197.5c0-4.3-0.4-8.7-1.4-12.9
		c-6.4-27.8-28.7-45.4-57.3-45.4c-89.8,0-179.6,0-269.4,0c-36.2,0-60.6,24.3-60.6,60.4c0,120.6,0,241.3,0,361.9c0,2.3,0,4.7,0.2,7
		c1.9,29.4,26.6,53.4,55.2,53.5c51.5,0.1,103,0,154.5,0c1.4,0,2.7-0.2,4.8-0.4c-17.9-27.3-26-56.7-25-89c-2.2,0-4,0-5.8,0
		c-13.2,0-26.3,0.1-39.5,0c-7.9-0.1-13.8-5.7-14.3-13.2c-0.4-7.3,5.2-13.8,13-14.4c5.6-0.4,11.3-0.3,17-0.3c11.1,0,22.3,0,33.6,0
		c5.8-23.9,16.9-44.8,33.3-64c-3.7,0-6,0-8.3,0c-23.3,0-46.7,0-70,0c-2.5,0-5,0-7.5-0.5c-8.2-1.5-13-10.1-10.3-17.9
		c2.2-6.3,7.2-9.5,15.3-9.5c36.2,0,72.3,0,108.5-0.2c3.5,0,7.3-1,10.3-2.6c28.5-15.7,58.8-22,91-17.8
		C1100.8,537.3,1111.4,540.2,1122.7,542.5z M957.8,683.2c0,62.6,51.2,113.8,113.9,113.8c62.9,0.1,114.4-51.2,114.2-114
		c-0.2-66-54.7-114.8-115.7-114.1C1008.7,569.6,957.8,620.7,957.8,683.2z"/>
	<path d="M1122.7,542.5c-11.2-2.3-21.9-5.2-32.7-6.6c-32.2-4.2-62.5,2.1-91,17.8c-3,1.7-6.8,2.6-10.3,2.6
		c-36.2,0.2-72.3,0.1-108.5,0.2c-8.1,0-13.1,3.2-15.3,9.5c-2.7,7.8,2.1,16.4,10.3,17.9c2.4,0.5,5,0.5,7.5,0.5c23.3,0,46.7,0,70,0
		c2.3,0,4.6,0,8.3,0c-16.4,19.2-27.5,40.1-33.3,64c-11.3,0-22.5,0-33.6,0c-5.7,0-11.3-0.1-17,0.3c-7.8,0.6-13.4,7.1-13,14.4
		c0.4,7.5,6.3,13.1,14.3,13.2c13.2,0.1,26.3,0,39.5,0c1.8,0,3.6,0,5.8,0c-1,32.3,7.2,61.6,25,89c-2.1,0.2-3.4,0.4-4.8,0.4
		c-51.5,0-103,0.1-154.5,0c-28.7-0.1-53.4-24.1-55.2-53.5c-0.1-2.3-0.2-4.7-0.2-7c0-120.6,0-241.3,0-361.9
		c0-36.1,24.4-60.4,60.6-60.4c89.8,0,179.6,0,269.4,0c28.6,0,50.9,17.6,57.3,45.4c1,4.2,1.4,8.6,1.4,12.9
		c0.1,65.8,0.1,131.6,0,197.5C1122.8,540,1122.7,541.3,1122.7,542.5z M963.6,400.2c8.8,0,17.7,0,26.5,0c19.5,0,39,0.1,58.4,0
		c9.3,0,15.2-6.2,14.6-15.1c-0.5-7.7-6.8-12.9-16.2-12.9c-55.5,0-110.9,0-166.4,0.1c-2.9,0-6,0.6-8.7,1.7c-5.6,2.4-8.8,9.1-7.6,14.9
		c1.4,6.9,6.9,11.3,14.4,11.3 M963.6,492.2c28.1,0,56.3,0.1,84.4-0.2c3.5,0,7.6-1.4,10.5-3.4c4.7-3.3,5.9-9.5,3.9-14.9
		c-2.1-6-7.1-9.2-14.5-9.2c-56.1,0-112.2-0.1-168.3,0c-2.7,0-5.7,0.6-8.2,1.7c-5.6,2.7-8.5,9.3-7,15.1c1.7,6.6,6.7,10.7,13.8,10.8
		C906.7,492.2,935.2,492.2,963.6,492.2z M815.7,371.9c-3.8,0.3-8,0.3-12,1.2c-6.6,1.5-10.9,8-10.2,14.6c0.7,6.9,5.9,12.1,12.8,12.4
		c6.1,0.3,12.3,0.3,18.4,0c6.9-0.2,12.6-5.9,13.2-12.7c0.6-6.8-4.1-13.2-10.9-14.6C823.4,372.2,819.7,372.2,815.7,371.9z
		 M815.3,676.2C815.3,676.2,815.3,676.2,815.3,676.2c3.7,0,7.3,0.3,10.9-0.1c6.6-0.8,11.7-6.9,11.8-13.4c0-6.9-5.1-13.2-11.9-13.7
		c-6.9-0.5-14-0.5-20.9,0c-6.7,0.5-11.6,6.7-11.7,13.4c-0.1,7,4.8,12.9,11.8,13.8C808.6,676.6,812,676.2,815.3,676.2z M815.8,556.3
		c-3.5,0.2-7.2,0-10.8,0.6c-6.8,1-11.5,6.8-11.5,13.6c0,6.9,4.7,12.9,11.5,13.5c7.1,0.6,14.3,0.6,21.4,0c6.6-0.5,11.6-6.9,11.6-13.5
		c0-6.5-5-12.6-11.6-13.6C822.9,556.4,819.4,556.5,815.8,556.3z M815.2,492.2c3.2,0,6.3,0.1,9.5,0c7.1-0.3,12.8-5.9,13.3-13
		c0.4-6.9-4.8-13.7-11.9-14.2c-6.9-0.6-14-0.6-20.9,0c-7.1,0.6-12.1,7.2-11.7,14.3c0.4,7.1,6.1,12.7,13.3,13
		C809.6,492.2,812.4,492.2,815.2,492.2z"/>
	<path d="M957.8,683.2c0-62.5,50.9-113.6,112.4-114.3c61-0.7,115.5,48.1,115.7,114.1c0.2,62.9-51.3,114.1-114.2,114
		C1009,796.9,957.9,745.8,957.8,683.2z M1057.1,690.4c-3.4-3.7-6.4-7.1-9.5-10.3c-3.1-3.2-6.2-6.5-9.6-9.4c-6.8-5.9-16.1-5.4-22,0.9
		c-6,6.3-6,15.7,0.2,22c10,10.2,20.1,20.4,30.4,30.4c6.1,6,15.6,6,21.6,0c19.9-19.7,39.7-39.5,59.3-59.4c2.3-2.3,3.8-5.9,4.4-9.2
		c1.2-6.8-2.5-12.9-8.6-16c-6.3-3.1-13.1-2.1-18.3,3.2C1089.3,658.1,1073.7,673.8,1057.1,690.4z"/>
</g>
</svg>
