<?xml version="1.0" encoding="utf-8"?>
<!-- Generator: Adobe Illustrator 25.0.0, SVG Export Plug-In . SVG Version: 6.00 Build 0)  -->
<svg version="1.1" id="Layer_1" xmlns="http://www.w3.org/2000/svg" xmlns:xlink="http://www.w3.org/1999/xlink" x="0px" y="0px"
	 viewBox="0 0 1920 1080" style="enable-background:new 0 0 1920 1080;" xml:space="preserve">
<style type="text/css">
	.st0{fill:#FFFFFF;}
</style>
<path class="st0" d="M1165.4,529c0,8,0,16,0,24c-0.2,1.1-0.6,2.3-0.7,3.4c-2,28.5-9.5,55.5-23.3,80.5
	c-31.8,57.6-80.1,92.8-144.8,105.3c-7.8,1.5-15.8,1.7-23.6,3.1c-8,0-16,0-24,0c-1-0.2-2-0.6-3.1-0.7c-28.5-1.9-55.6-9.3-80.6-23.2
	c-67.2-37.6-103.7-95.1-108.5-172c-2.3-36.9,5.7-72.1,23.7-104.4c37.5-67,95-103.4,171.8-108.2c36.9-2.3,72,5.8,104.5,23.7
	c57.7,31.7,92.8,80.1,105.4,144.8C1163.8,513.2,1164,521.2,1165.4,529z M978,575.1c0-17.7-0.1-35.4,0.1-53c0-3-0.8-3.9-3.8-3.8
	c-9,0.2-18.1,0.1-27.1,0c-2.4,0-3.2,0.8-3.2,3.2c0.1,35.8,0.1,71.5,0,107.3c0,2.9,1.2,3.2,3.6,3.2c8.9-0.1,17.8-0.2,26.7,0
	c3,0.1,3.8-0.9,3.8-3.8C977.9,610.5,978,592.8,978,575.1z M983.6,467.7c0.3-12.6-9.7-23-22.3-23.3c-12.2-0.2-22.4,9.6-22.8,21.9
	c-0.5,12.6,9.5,23.1,22.1,23.4C972.9,490.2,983.2,480.2,983.6,467.7z"/>
</svg>
