<?xml version="1.0" encoding="utf-8"?>
<!-- Generator: Adobe Illustrator 25.0.0, SVG Export Plug-In . SVG Version: 6.00 Build 0)  -->
<svg version="1.1" id="Layer_1" xmlns="http://www.w3.org/2000/svg" xmlns:xlink="http://www.w3.org/1999/xlink" x="0px" y="0px"
	 viewBox="0 0 1920 1080" style="enable-background:new 0 0 1920 1080;" xml:space="preserve">
<path d="M811.1,702.5c1.3,1.5,2.4,3,3.8,4.3c11.3,11.3,22.5,22.7,34,33.9c2.8,2.8,3.4,4.6,0.2,7.6c-7.8,7.5-15.3,15.3-22.5,22.6
	c-30.2-30-59.8-59.4-89-88.3c29.5-29.5,59.1-59.1,88-88c8,8,16.7,16.7,26.5,26.5c-13.1,12.7-27.2,26.3-41.2,39.9
	c0.2,0.5,0.4,0.9,0.6,1.4c1.7,0.2,3.4,0.5,5.1,0.5c81.5,0,163,0.1,244.5,0c40-0.1,72.7-30.5,76.2-70.3c0.4-4.7,2.2-6.3,6.9-6.1
	c8.2,0.3,16.3,0.1,24.5,0.1c7.3,0,7.5,0.1,6.9,7.2c-2,24.3-10.6,46-26,64.9c-17.4,21.3-39.9,34.7-66.8,40
	c-9.1,1.8-18.5,2.1-27.8,2.1c-78.7,0.2-157.3,0.1-236,0.1c-2.4,0-4.9,0.2-7.3,0.4C811.5,701.6,811.3,702.1,811.1,702.5z"/>
<path d="M1104.9,470.4c-1.3-1.5-2.4-3-3.8-4.3c-11.3-11.3-22.5-22.7-34-33.9c-2.8-2.8-3.4-4.6-0.2-7.6c7.8-7.5,15.3-15.3,22.5-22.6
	c30.2,30,59.8,59.4,89,88.3c-29.5,29.5-59.1,59.1-88,88c-8-8-16.7-16.7-26.5-26.5c13.1-12.7,27.2-26.3,41.2-39.9
	c-0.2-0.5-0.4-0.9-0.6-1.4c-1.7-0.2-3.4-0.5-5.1-0.5c-81.5,0-163-0.1-244.5,0c-40,0.1-72.7,30.5-76.2,70.3c-0.4,4.7-2.2,6.3-6.9,6.1
	c-8.2-0.3-16.3-0.1-24.5-0.1c-7.3,0-7.5-0.1-6.9-7.2c2-24.3,10.6-46,26-64.9c17.4-21.3,39.9-34.7,66.8-40c9.1-1.8,18.5-2.1,27.8-2.1
	c78.7-0.2,157.3-0.1,236-0.1c2.4,0,4.9-0.2,7.3-0.4C1104.5,471.3,1104.7,470.9,1104.9,470.4z"/>
</svg>
