<?xml version="1.0" encoding="utf-8"?>
<!-- Generator: Adobe Illustrator 25.0.0, SVG Export Plug-In . SVG Version: 6.00 Build 0)  -->
<svg version="1.1" id="Layer_1" xmlns="http://www.w3.org/2000/svg" xmlns:xlink="http://www.w3.org/1999/xlink" x="0px" y="0px"
	 viewBox="0 0 1920 1080" style="enable-background:new 0 0 1920 1080;" xml:space="preserve">
<style type="text/css">
	.st0{fill:#FFFFFF;}
	.st1{fill:#0CB2FF;}
</style>
<g>
	<g>
		<g>
			<path d="M1169.9,553.1c0,2.1,0,4.3,0,6.4c-0.2,0.3-0.6,0.6-0.7,0.9c-2.8,9.7-8.6,14.2-18.5,14.2c-7.8,0-15.7,0-23.5,0
				c-2.7,0-5.5,0-8.4,0c0,2.2,0,3.8,0,5.3c0,59.5,0,118.9,0,178.4c0,1.7,0,3.5-0.1,5.2c-0.7,8.5-6.2,14.2-14.7,15.3
				c-1.8,0.2-3.7,0.2-5.6,0.2c-88.6,0-177.2,0-265.8,0c-1.7,0-3.5,0-5.2-0.1c-8.9-0.8-14.6-6.7-15.2-15.6c-0.1-1.6-0.1-3.2-0.1-4.8
				c0-59.6,0-119.2,0-178.8c0-1.6,0-3.1,0-5.1c-10.9,0-21.3,0-31.8,0c-9.2,0-15.8-4.5-18.3-12.5c-2.5-8-0.3-13.7,7.5-19.4
				c61.1-44.4,122.2-88.9,183.3-133.3c10.2-7.4,15-7.4,25.1-0.1c61.1,44.4,122.2,88.9,183.3,133.2
				C1165.2,545.4,1168.3,548.5,1169.9,553.1z M863.3,642.7c0,56,45.9,102,102.1,102.1c56,0.1,102.1-45.7,102.3-101.9
				c0.3-55.9-46.4-102.6-102.3-102.4C909.4,540.7,863.4,586.8,863.3,642.7z"/>
			<path class="st0" d="M863.3,642.7c0-56,46-102,102.1-102.2c55.9-0.2,102.5,46.5,102.3,102.4c-0.3,56.1-46.3,102-102.3,101.9
				C909.3,744.7,863.3,698.7,863.3,642.7z M889.1,668.3c17,0,33.8,0,51,0c0,17.2,0,33.9,0,50.7c17.1,0,33.9,0,51.1,0
				c0-17,0-33.7,0-50.9c17.1,0,34,0,50.8,0c0-17.2,0-33.9,0-51.1c-17,0-33.8,0-51,0c0-17.2,0-33.9,0-50.7c-17.2,0-34,0-51.1,0
				c0,17,0,33.7,0,50.9c-17.2,0-34,0-50.8,0C889.1,634.4,889.1,651.1,889.1,668.3z"/>
			<path d="M889.1,668.3c0-17.2,0-33.9,0-51.1c16.8,0,33.6,0,50.8,0c0-17.2,0-33.9,0-50.9c17.2,0,34,0,51.1,0c0,16.8,0,33.6,0,50.7
				c17.2,0,34,0,51,0c0,17.2,0,33.9,0,51.1c-16.9,0-33.7,0-50.8,0c0,17.2,0,33.9,0,50.9c-17.1,0-33.9,0-51.1,0c0-16.8,0-33.5,0-50.7
				C922.9,668.3,906.1,668.3,889.1,668.3z"/>
		</g>
		<g>
			<path d="M709.9,553.1c0,2.1,0,4.3,0,6.4c-0.2,0.3-0.6,0.6-0.7,0.9c-2.8,9.7-8.6,14.2-18.5,14.2c-7.8,0-15.7,0-23.5,0
				c-2.7,0-5.5,0-8.4,0c0,2.2,0,3.8,0,5.3c0,59.5,0,118.9,0,178.4c0,1.7,0,3.5-0.1,5.2c-0.7,8.5-6.2,14.2-14.7,15.3
				c-1.8,0.2-3.7,0.2-5.6,0.2c-88.6,0-177.2,0-265.8,0c-1.7,0-3.5,0-5.2-0.1c-8.9-0.8-14.6-6.7-15.2-15.6c-0.1-1.6-0.1-3.2-0.1-4.8
				c0-59.6,0-119.2,0-178.8c0-1.6,0-3.1,0-5.1c-10.9,0-21.3,0-31.8,0c-9.2,0-15.8-4.5-18.3-12.5c-2.5-8-0.3-13.7,7.5-19.4
				c61.1-44.4,122.2-88.9,183.3-133.3c10.2-7.4,15-7.4,25.1-0.1c61.1,44.4,122.2,88.9,183.3,133.2
				C705.2,545.4,708.3,548.5,709.9,553.1z M403.3,642.7c0,56,45.9,102,102.1,102.1c56,0.1,102.1-45.7,102.3-101.9
				c0.3-55.9-46.4-102.6-102.3-102.4C449.3,540.7,403.3,586.8,403.3,642.7z"/>
			<path class="st0" d="M403.3,642.7c0-56,46-102,102.1-102.2c55.9-0.2,102.5,46.5,102.3,102.4c-0.3,56.1-46.3,102-102.3,101.9
				C449.2,744.7,403.3,698.7,403.3,642.7z M429.1,668.3c17,0,33.8,0,51,0c0,17.2,0,33.9,0,50.7c17.1,0,33.9,0,51.1,0
				c0-17,0-33.7,0-50.9c17.1,0,34,0,50.8,0c0-17.2,0-33.9,0-51.1c-17,0-33.8,0-51,0c0-17.2,0-33.9,0-50.7c-17.2,0-34,0-51.1,0
				c0,17,0,33.7,0,50.9c-17.2,0-34,0-50.8,0C429.1,634.4,429.1,651.1,429.1,668.3z"/>
			<path d="M429.1,668.3c0-17.2,0-33.9,0-51.1c16.8,0,33.6,0,50.8,0c0-17.2,0-33.9,0-50.9c17.2,0,34,0,51.1,0c0,16.8,0,33.6,0,50.7
				c17.2,0,34,0,51,0c0,17.2,0,33.9,0,51.1c-16.9,0-33.7,0-50.8,0c0,17.2,0,33.9,0,50.9c-17.1,0-33.9,0-51.1,0c0-16.8,0-33.5,0-50.7
				C462.9,668.3,446.1,668.3,429.1,668.3z"/>
		</g>
	</g>
	<path d="M843.9,263.1c23.6,22.9,43.7,47.3,57.5,74.2c6.3,12.2,11.9,24.7,16.8,37.1c5.6,14.3,2.2,26-10.9,31.8
		c-42.6,19-90.3,27.2-145.8,18.4c-2.6-0.4-5.2-1.2-9.2-2.1c9.9-21.5,26-37.6,46-52.2c-51.8-21.6-102.3-35-152.6-31.6
		c-51,3.5-87.1,24.6-113.9,56.4c14.5-41.9,52.5-76.7,107.9-89.4c55.1-12.6,114.5-6.8,176.2,9.1c4.4,1.1,8.9,2.3,13.8,3.5
		c1.7-19.9,2.3-39.8,12.5-56.1C842.8,262.5,843.3,262.8,843.9,263.1z"/>
	<g>
		<path class="st1" d="M636.7,180.6c0.1-49.9,40.3-89.6,90.3-89.4c49.4,0.2,89.1,40.3,88.9,89.6c-0.1,49.5-40.5,89.6-89.8,89.5
			C676.7,270.3,636.5,230,636.7,180.6z M707.3,192.9c-1.4-1.6-2.4-2.7-3.4-4c-4.9-6.1-9.6-12.2-14.6-18.3c-3.4-4.2-7.7-6.2-13.2-5.1
			c-9.6,2.1-13.4,12.8-7.2,20.9c8.2,10.7,16.8,21.3,25.1,31.9c7.2,9.2,14.8,9.6,23.2,1.2c19.7-19.7,39.3-39.3,59.1-59.1
			c1.2-1.2,2.5-2.4,3.5-3.9c3.1-4.4,3.5-9,1-13.7c-2.5-4.6-6.6-7.6-11.8-6.6c-3.7,0.6-7.7,2.6-10.3,5.2
			C741.4,158.4,724.6,175.5,707.3,192.9z"/>
		<path class="st0" d="M707.3,192.9c17.4-17.4,34.2-34.5,51.4-51.2c2.7-2.6,6.7-4.6,10.3-5.2c5.1-1,9.3,2,11.8,6.6
			c2.5,4.6,2.1,9.3-1,13.7c-1,1.4-2.2,2.6-3.5,3.9c-19.7,19.7-39.3,39.5-59.1,59.1c-8.3,8.3-15.9,8-23.2-1.2
			c-8.3-10.6-16.9-21-25.1-31.9c-6.2-8.1-2.4-18.7,7.2-20.9c5.5-1.2,9.8,0.9,13.2,5.1c4.9,6.1,9.7,12.2,14.6,18.3
			C704.8,190.2,705.9,191.3,707.3,192.9z"/>
	</g>
</g>
</svg>
