<?xml version="1.0" encoding="utf-8"?>
<!-- Generator: Adobe Illustrator 25.0.0, SVG Export Plug-In . SVG Version: 6.00 Build 0)  -->
<svg version="1.1" id="Layer_1" xmlns="http://www.w3.org/2000/svg" xmlns:xlink="http://www.w3.org/1999/xlink" x="0px" y="0px"
	 viewBox="0 0 1920 1080" style="enable-background:new 0 0 1920 1080;" xml:space="preserve">
<path d="M878.2,697.6c-27.6,0-55.1,0-82.7,0c-6.1,0-12.2-0.6-18.1-2.1c-8-2-15.6-5.1-22.5-9.6c-9-5.8-16.5-13.2-22.3-22.2
	c-5.4-8.4-9-17.6-10.7-27.4c-0.7-4.3-1.1-8.6-1.1-12.9c0-9.6,0-19.1,0-28.7c0-6.4,2.9-11.1,8.6-13.9c5.9-2.9,13.6-1,17.7,4.2
	c2.2,2.9,3.3,6.1,3.2,9.7c0,9.5,0,19,0,28.5c0,6.1,1,12.1,3.5,17.7c4.2,9.8,11,17.2,20.4,22.2c4.5,2.4,9.3,3.9,14.4,4.6
	c2.2,0.3,4.5,0.4,6.7,0.5c55.4,0,110.9,0,166.3,0c7.8,0,15.3-1.7,22.1-5.6c10.5-6,17.5-14.8,21-26.4c1.3-4.2,1.8-8.5,1.8-12.8
	c0-9.6,0-19.1,0-28.7c0-4.4,1.5-8.2,4.8-11.2c6.4-5.9,16.4-5,21.7,1.9c2.1,2.7,3.1,5.8,3.1,9.2c0,10.9,0.1,21.8-0.1,32.7
	c-0.2,9.3-2.5,18.3-6.3,26.8c-3.7,8.3-8.8,15.6-15.1,22c-7.2,7.2-15.5,12.7-25,16.5c-5.4,2.2-11,3.8-16.8,4.5
	c-3.7,0.5-7.5,0.7-11.3,0.7C933.7,697.6,906,697.6,878.2,697.6z"/>
<path d="M863.4,434.9c-0.2,0.3-0.4,0.6-0.6,0.9c-9.2,9.9-18.4,19.9-27.7,29.8c-3.5,3.7-6.8,7.6-10.4,11.1c-4.3,4.2-9.6,5.4-15.3,3.3
	c-5.6-2.1-8.8-6.3-9.6-12.2c-0.6-4.6,0.9-8.6,4-11.9c8.9-9.6,17.8-19.1,26.7-28.7c11.8-12.8,23.7-25.5,35.5-38.3
	c2-2.1,4-4.2,6.8-5.3c4.2-1.7,8.4-1.5,12.5,0.6c1.9,0.9,3.4,2.3,4.8,3.8c9.4,10.1,18.8,20.3,28.2,30.4c9.2,9.9,18.3,19.7,27.5,29.6
	c2.7,3,5.5,5.9,8.2,8.9c5.1,5.8,4.2,15.4-1.7,20.4c-3.3,2.8-7.1,4.1-11.4,3.6c-3.7-0.4-6.8-2.1-9.3-4.8
	c-11.5-12.4-23-24.8-34.5-37.2c-1-1.1-2-2.2-3-3.3c-0.2-0.2-0.3-0.4-0.4-0.7c-0.1,0.1-0.2,0.1-0.3,0.2c0,0.4,0,0.7,0,1.1
	c0,49.2,0,98.4,0,147.6c0,4-1.1,7.6-3.8,10.5c-4.3,4.5-9.5,6-15.5,4.1c-5.9-1.8-9.9-7.2-10.2-13.4c0-0.5,0-1.1,0-1.6
	c0-49,0-98.1,0-147.1c0-0.4,0-0.8,0-1.1C863.7,435,863.6,434.9,863.4,434.9z"/>
</svg>
