<?xml version="1.0" encoding="utf-8"?>
<!-- Generator: Adobe Illustrator 25.0.0, SVG Export Plug-In . SVG Version: 6.00 Build 0)  -->
<svg version="1.1" id="Layer_1" xmlns="http://www.w3.org/2000/svg" xmlns:xlink="http://www.w3.org/1999/xlink" x="0px" y="0px"
	 viewBox="0 0 1920 1080" style="enable-background:new 0 0 1920 1080;" xml:space="preserve">
<style type="text/css">
	.st0{fill:#FFFFFF;}
</style>
<path d="M959,284c2.8,2.3,6,4.2,8.4,6.8c34.4,36,68.7,72.1,103.2,108.2c3.7,3.8,5.4,8,5.4,13.4c-0.1,29.2-0.1,58.3-0.1,87.5
	c0,1.8,0,3.6,0,5.1c9.7,3.4,19.2,5.9,28,9.9c47.3,21.5,77.4,57.7,86.2,108.8c9.8,57-9.3,104.7-54.4,141.2
	c-22.4,18.2-48.6,27.9-77.4,30.4c-0.8,0.1-1.6,0.4-2.4,0.7c-7.3,0-14.7,0-22,0c-0.9-0.3-1.8-0.7-2.8-0.9
	c-46.4-5.3-82.3-27.6-108.2-66.3c-2.2-3.2-4.4-4.2-8.1-4.2c-42.3,0.1-84.6,0.1-127,0c-5.3,0-10.7-0.3-15.9-1.5
	c-27.2-6-45-28.6-45.1-57c-0.1-74.3,0-148.6,0-222.9c0-33.7-0.1-67.3,0-101c0.1-20,7.9-36.6,24.5-47.7c7.5-5,16.9-7.2,25.4-10.7
	C837.7,284,898.3,284,959,284z M928.7,560.5c-3,0-4.9,0-6.9,0c-34.5,0-69,0-103.5,0c-2.5,0-5-0.1-7.5-0.5c-4.6-0.9-7.8-4.8-8.1-9.5
	c-0.3-5,2.5-9.3,7.3-10.6c2.4-0.6,4.9-0.8,7.4-0.8c42.2,0,84.3,0,126.5-0.2c2.8,0,6.2-1.2,8.4-3c20.8-16.5,44.1-27.4,70.3-31.4
	c10.3-1.6,20.8-1.8,31.6-2.6c0-26.9,0-54.3,0-82.4c-2.1,0-3.9,0-5.6,0c-17.3,0-34.7,0.1-52-0.1c-5.1-0.1-10.4-0.3-15.3-1.6
	c-22.3-6-35.4-23.5-35.5-47.2c-0.1-19.8,0-39.7,0-59.5c0-1.8,0-3.6,0-5.6c-1.9-0.1-3.2-0.3-4.5-0.3c-51.7,0-103.3,0-155,0
	c-3.6,0-7.4,0.4-10.9,1.3c-17.6,4.7-27.2,18.6-27.2,38.7c0,106.2,0,212.3,0,318.5c0,4.1,0.3,8.4,1.3,12.4
	c4.5,17.4,18,27.1,37.6,27.2c39,0.1,78,0,117,0c1.5,0,3.1-0.2,5.1-0.4c-11-29-13-58.1-6.3-88.1c-2.5,0-4.3,0-6.1,0
	c-26.7,0-53.3,0-80,0c-2.3,0-4.7-0.2-6.9-0.8c-4.8-1.3-7.6-5.6-7.3-10.6c0.3-4.9,3.7-8.7,8.7-9.5c2.1-0.3,4.3-0.4,6.5-0.4
	c29.2,0,58.3-0.1,87.5,0.1c3.5,0,5.1-1.2,6.7-4.3c4.1-8,8.8-15.7,13.2-23.4C926.3,564.4,927.3,562.9,928.7,560.5z M1046.2,774.8
	c69.2-0.4,125.2-56.6,125-125.5c-0.2-69.4-56.8-125.7-125.7-125.3c-69.2,0.5-125.4,57.1-124.8,125.7
	C921.3,719.1,977.6,775.2,1046.2,774.8z M967.1,321.4c0,2.8,0,3.9,0,5.1c0,15.3-0.2,30.6,0.1,45.9c0.3,15,11.3,25.4,26.3,25.6
	c13.5,0.2,27,0,40.4,0c1.6,0,3.2-0.1,5.8-0.2C1015.3,372.2,991.7,347.4,967.1,321.4z"/>
<path class="st0" d="M928.7,560.5c-1.5,2.4-2.5,3.9-3.3,5.4c-4.5,7.8-9.1,15.5-13.2,23.4c-1.6,3.1-3.2,4.3-6.7,4.3
	c-29.2-0.1-58.3-0.1-87.5-0.1c-2.2,0-4.3,0-6.5,0.4c-4.9,0.8-8.4,4.6-8.7,9.5c-0.3,5,2.4,9.3,7.3,10.6c2.2,0.6,4.6,0.8,6.9,0.8
	c26.7,0.1,53.3,0,80,0c1.8,0,3.6,0,6.1,0c-6.7,30-4.7,59.1,6.3,88.1c-2,0.2-3.6,0.4-5.1,0.4c-39,0-78,0.1-117,0
	c-19.6-0.1-33.1-9.8-37.6-27.2c-1-4-1.3-8.2-1.3-12.4c-0.1-106.2-0.1-212.3,0-318.5c0-20.2,9.7-34,27.2-38.7
	c3.5-0.9,7.2-1.3,10.9-1.3c51.7-0.1,103.3-0.1,155,0c1.3,0,2.6,0.2,4.5,0.3c0,2,0,3.8,0,5.6c0,19.8-0.1,39.7,0,59.5
	c0.2,23.7,13.2,41.1,35.5,47.2c4.9,1.3,10.2,1.6,15.3,1.6c17.3,0.2,34.7,0.1,52,0.1c1.8,0,3.6,0,5.6,0c0,28.1,0,55.5,0,82.4
	c-10.8,0.9-21.3,1.1-31.6,2.6c-26.2,4-49.5,14.9-70.3,31.4c-2.2,1.8-5.6,3-8.4,3c-42.2,0.2-84.3,0.1-126.5,0.2c-2.5,0-5,0.2-7.4,0.8
	c-4.8,1.3-7.6,5.5-7.3,10.6c0.3,4.7,3.5,8.6,8.1,9.5c2.4,0.5,5,0.5,7.5,0.5c34.5,0,69,0,103.5,0
	C923.8,560.5,925.7,560.5,928.7,560.5z M867.4,485.8c-17,0-34,0-51,0c-2.5,0-5.1,0.2-7.3,1c-4.8,1.8-7.1,6.7-6.1,11.8
	c0.9,4.9,5.1,8.3,10.9,8.3c11.5,0.2,23,0.1,34.5,0.1c23.5,0,47,0,70.4,0c5,0,9.3-1.2,11.8-5.9c3.9-7.4-1.5-15.2-10.8-15.3
	C902.4,485.7,884.9,485.8,867.4,485.8z"/>
<path class="st0" d="M1046.2,774.8c-68.6,0.4-124.9-55.7-125.5-125.1c-0.6-68.6,55.6-125.2,124.8-125.7
	c69-0.5,125.6,55.9,125.7,125.3C1171.4,718.2,1115.4,774.4,1046.2,774.8z M1056.8,606.6c0.5-0.3,1-0.6,1.4-0.8c1,1.4,2,3,3.2,4.3
	c12.2,13.2,24.4,26.4,36.7,39.6c1.4,1.5,2.8,2.9,4.4,4c5.7,3.9,13.1,1.5,15.6-4.9c2-5.1-0.2-9-3.6-12.6
	c-19.7-21.1-39.3-42.2-59-63.2c-7-7.5-12.8-7.4-19.8,0.1c-19.1,20.5-38.2,41-57.2,61.5c-1.6,1.7-3.2,3.5-4.3,5.4
	c-2.2,3.8-2,7.7,0.6,11.2c2.6,3.5,6.3,5.4,10.4,4c3-1,6-3,8.1-5.3c12.6-13.1,24.9-26.5,37.3-39.8c1.2-1.3,2.2-2.8,3.2-4.2
	c0.5,0.2,1,0.5,1.5,0.7c0,1.9,0,3.8,0,5.7c0,35,0,70,0,105c0,9.8,3.8,14.9,11,14.7c6.9-0.2,10.5-5.2,10.5-14.7
	c0-35.2,0-70.3,0-105.5C1056.8,610.1,1056.8,608.3,1056.8,606.6z"/>
<path class="st0" d="M967.1,321.4c24.6,25.9,48.3,50.8,72.6,76.4c-2.6,0.1-4.2,0.2-5.8,0.2c-13.5,0-27,0.1-40.4,0
	c-15-0.2-26-10.7-26.3-25.6c-0.3-15.3-0.1-30.6-0.1-45.9C967.1,325.4,967.1,324.2,967.1,321.4z"/>
<path d="M867.4,485.8c17.5,0,35-0.1,52.5,0c9.3,0.1,14.7,7.9,10.8,15.3c-2.5,4.7-6.8,5.9-11.8,5.9c-23.5-0.1-47,0-70.4,0
	c-11.5,0-23,0.1-34.5-0.1c-5.9-0.1-10-3.4-10.9-8.3c-1-5.1,1.3-10,6.1-11.8c2.3-0.8,4.9-1,7.3-1
	C833.4,485.7,850.4,485.8,867.4,485.8z"/>
<path d="M1056.8,606.6c0,1.8,0,3.5,0,5.3c0,35.2,0,70.3,0,105.5c0,9.5-3.6,14.6-10.5,14.7c-7.1,0.2-11-4.9-11-14.7c0-35,0-70,0-105
	c0-1.9,0-3.8,0-5.7c-0.5-0.2-1-0.5-1.5-0.7c-1.1,1.4-2,2.9-3.2,4.2c-12.4,13.3-24.7,26.6-37.3,39.8c-2.2,2.3-5.2,4.2-8.1,5.3
	c-4.2,1.4-7.8-0.4-10.4-4c-2.6-3.6-2.8-7.5-0.6-11.2c1.2-2,2.8-3.7,4.3-5.4c19.1-20.5,38.1-41,57.2-61.5c7.1-7.6,12.8-7.6,19.8-0.1
	c19.7,21,39.4,42.1,59,63.2c3.4,3.6,5.6,7.5,3.6,12.6c-2.5,6.4-9.9,8.8-15.6,4.9c-1.6-1.1-3.1-2.6-4.4-4
	c-12.3-13.2-24.5-26.4-36.7-39.6c-1.2-1.3-2.1-2.8-3.2-4.3C1057.8,606,1057.3,606.3,1056.8,606.6z"/>
</svg>
