<?xml version="1.0" encoding="utf-8"?>
<!-- Generator: Adobe Illustrator 25.0.0, SVG Export Plug-In . SVG Version: 6.00 Build 0)  -->
<svg version="1.1" id="Layer_1" xmlns="http://www.w3.org/2000/svg" xmlns:xlink="http://www.w3.org/1999/xlink" x="0px" y="0px"
	 viewBox="0 0 1920 1080" style="enable-background:new 0 0 1920 1080;" xml:space="preserve">
<style type="text/css">
	.st0{fill:#FFFFFF;}
	.st1{fill:#06D6A0;}
	.st2{fill:#FF8500;}
</style>
<g>
	<g>
		<path class="st0" d="M683.8,355l-78.3,322.4L540,700.7l-89.1-263.1l68.4-24.2l50.8,153.7l45.3-187.8L683.8,355z"/>
		<path class="st0" d="M690.3,352.7l66.7-23.6l5.4,292.7l-66.7,23.6L690.3,352.7z"/>
		<path class="st0" d="M824.7,598.3c-15.9,0.2-29.5-2.3-40.6-7.3l14.5-78.4c24.1,9.7,47.7,10.5,70.9,2.2c8.5-3,14.7-6.8,18.8-11.3
			c4.1-4.5,5.7-9.3,4.9-14.3c-0.8-4.8-3.7-7.8-8.8-9.1c-5.1-1.3-12.9-1.9-23.4-1.8c-14-0.1-25.7-1.1-35.1-2.9
			c-9.5-1.8-18.3-6.7-26.4-14.6c-8.1-7.9-13.6-20.2-16.3-37c-3.4-21-2.3-40.8,3.1-59.4c5.5-18.6,15-34.9,28.7-48.9
			c13.7-14,30.8-24.6,51.3-31.9c14.7-5.2,28.7-8,42.1-8.4c13.4-0.4,25.3,1.6,35.8,6.1l-13,77c-8.8-4.2-18.2-6.3-28.1-6.5
			c-9.9-0.1-19.7,1.5-29.5,5c-9.2,3.3-16.1,7.7-20.6,13.2c-4.5,5.5-6.3,10.8-5.5,15.8c0.8,5,3.8,8.2,8.9,9.5
			c5.1,1.3,13.2,1.8,24.3,1.5c13.5-0.3,25,0.4,34.5,2.1s18.3,6.4,26.4,14.2c8,7.8,13.4,20,16,36.4c3.3,20.7,2.2,40.3-3.4,58.9
			c-5.6,18.5-15.2,34.8-28.9,48.8c-13.7,14-30.7,24.6-51,31.8C857.1,595,840.6,598.2,824.7,598.3z"/>
		<path class="st0" d="M1016.4,314.2l-57.9,20.5l-1.3-76.6l182.6-64.7l1.3,76.6l-57.9,20.5l4.1,216.2l-66.7,23.6L1016.4,314.2z"/>
		<path class="st0" d="M1288.8,384l-75.5,26.7l-11.9,55.6l-70.4,24.9l81.1-323.4l65.6-23.2l91.9,262.1l-66.4,23.5L1288.8,384z
			 M1268.6,319.6l-21.1-67.9l-17.6,81.6L1268.6,319.6z"/>
	</g>
	<path class="st1" d="M186.9,934.4c7.9-4.1,15.8-8.3,23.8-12.3c104.7-53.5,212.7-99.4,322.3-141.7C670.3,727.5,809.8,681,951.4,641
		c99.2-28,199.3-52.7,300.6-72.4c68.5-13.3,137.5-24.1,207-31c9.6-0.9,12.6,2,11.1,11.5c-2.2,14-8.2,26.3-17.1,37.2
		c-3.7,4.5-8.2,6.6-14.2,7.1c-53.1,4.5-106,11.6-158.6,20.3c-144.6,23.8-287,57.4-428.3,96c-129,35.3-256.7,75.1-383,118.9
		c-93.3,32.4-185.7,67.2-277,105c-1.5,0.6-3,1.1-4.5,1.7C187.2,935.1,187.1,934.7,186.9,934.4z"/>
	<path class="st2" d="M909.9,626.3c12.5-5,24.9-10.1,37.4-14.9c113.7-44.4,229.9-81.1,347.8-112.4c86.9-23.1,174.6-43.4,263.1-59.1
		c54.6-9.7,109.5-17.3,164.3-25.8c7.9-1.2,11.9,2.4,10.1,10.2c-4.1,18.1-14.3,32-30.4,41.4c-2.3,1.4-5.4,1.8-8.1,2.1
		c-40.8,3.9-81.6,7.2-122.4,11.7c-64.4,7.1-128.4,17.6-192.1,29.6c-146,27.5-289.6,64.6-431.9,107c-12.6,3.7-25.1,7.5-37.7,11.2
		C910.1,626.8,910,626.5,909.9,626.3z"/>
</g>
<g>
	<g>
		<path class="st0" d="M147.2-1038.2L68.9-715.8L3.4-692.6l-89.1-263.1l68.4-24.2l50.8,153.7L78.8-1014L147.2-1038.2z"/>
		<path class="st0" d="M153.7-1040.5l66.7-23.6l5.4,292.7l-66.7,23.6L153.7-1040.5z"/>
		<path class="st0" d="M288-795c-15.9,0.2-29.5-2.3-40.6-7.3l14.5-78.4c24.1,9.7,47.7,10.5,70.9,2.2c8.5-3,14.7-6.8,18.8-11.3
			c4.1-4.5,5.7-9.3,4.9-14.3c-0.8-4.8-3.7-7.8-8.8-9.1c-5.1-1.3-12.9-1.9-23.4-1.8c-14-0.1-25.7-1.1-35.1-2.9
			c-9.5-1.8-18.3-6.7-26.4-14.6c-8.1-7.9-13.6-20.2-16.3-37c-3.4-21-2.3-40.8,3.1-59.4c5.5-18.6,15-34.9,28.7-48.9
			c13.7-14,30.8-24.6,51.3-31.9c14.7-5.2,28.7-8,42.1-8.4c13.4-0.4,25.3,1.6,35.8,6.1l-13,77c-8.8-4.2-18.2-6.3-28.1-6.5
			c-9.9-0.1-19.7,1.5-29.5,5c-9.2,3.3-16.1,7.7-20.6,13.2c-4.5,5.5-6.3,10.8-5.5,15.8c0.8,5,3.8,8.2,8.9,9.5
			c5.1,1.3,13.2,1.8,24.3,1.5c13.5-0.3,25,0.4,34.5,2.1c9.5,1.7,18.3,6.4,26.4,14.2c8,7.8,13.4,20,16,36.4
			c3.3,20.7,2.2,40.3-3.4,58.9c-5.6,18.5-15.2,34.8-28.9,48.8c-13.7,14-30.7,24.6-51,31.8C320.5-798.2,303.9-795.1,288-795z"/>
		<path class="st0" d="M479.7-1079l-57.9,20.5l-1.3-76.6l182.6-64.7l1.3,76.6l-57.9,20.5l4.1,216.2l-66.7,23.6L479.7-1079z"/>
		<path class="st0" d="M752.2-1009.3l-75.5,26.7L664.7-927L594.4-902l81.1-323.4l65.6-23.2l91.9,262.1L766.5-963L752.2-1009.3z
			 M731.9-1073.7l-21.1-67.9l-17.6,81.6L731.9-1073.7z"/>
	</g>
	<path class="st1" d="M-349.7-210.4c7.9-6.1,15.8-12.2,23.8-18.2c104.7-79,212.7-146.9,322.3-209.3
		c137.3-78.2,276.8-146.8,418.4-205.9c99.2-41.4,199.3-77.9,300.6-106.9c68.5-19.7,137.5-35.7,207-45.8c9.6-1.4,12.6,3,11.1,17
		c-2.2,20.7-8.2,38.9-17.1,55c-3.7,6.6-8.2,9.7-14.2,10.5c-53.1,6.6-106,17.1-158.6,29.9c-144.6,35.1-287,84.8-428.3,141.9
		c-129,52.1-256.7,110.9-383,175.7c-93.3,47.9-185.7,99.3-277,155c-1.5,0.9-3,1.7-4.5,2.5C-349.5-209.5-349.6-209.9-349.7-210.4z"/>
	<path class="st2" d="M373.2-665.6c12.5-7.4,24.9-14.9,37.4-22.1c113.7-65.5,229.9-119.8,347.8-166c86.9-34.1,174.6-64.1,263.1-87.3
		c54.6-14.3,109.5-25.6,164.3-38.1c7.9-1.8,11.9,3.6,10.1,15c-4.1,26.7-14.3,47.3-30.4,61.2c-2.3,2-5.4,2.7-8.1,3.1
		c-40.8,5.8-81.6,10.7-122.4,17.3c-64.4,10.5-128.4,25.9-192.1,43.7c-146,40.6-289.6,95.5-431.9,158c-12.6,5.5-25.1,11-37.7,16.6
		C373.4-664.8,373.3-665.2,373.2-665.6z"/>
</g>
</svg>
